<svg width="45" height="117" viewBox="0 0 45 117" fill="none" xmlns="http://www.w3.org/2000/svg">
<mask id="path-1-outside-1_1_1275" maskUnits="userSpaceOnUse" x="-2" y="-1" width="48" height="119" fill="black">
<rect fill="white" x="-2" y="-1" width="48" height="119"/>
<path d="M-0.00812489 25.64V0.199997H44.3119V117H15.8319V25.64H-0.00812489Z"/>
</mask>
<path d="M-0.00812489 25.64V0.199997H44.3119V117H15.8319V25.64H-0.00812489Z" fill="url(#paint0_linear_1_1275)" fill-opacity="0.25"/>
<path d="M-0.00812531 25.64H-1.00813V26.64H-0.00812531V25.64ZM-0.00812531 0.199997V-0.800003H-1.00813V0.199997H-0.00812531ZM44.3119 0.199997H45.3119V-0.800003H44.3119V0.199997ZM44.3119 117V118H45.3119V117H44.3119ZM15.8319 117H14.8319V118H15.8319V117ZM15.8319 25.64H16.8319V24.64H15.8319V25.64ZM0.991875 25.64V0.199997H-1.00813V25.64H0.991875ZM-0.00812531 1.2H44.3119V-0.800003H-0.00812531V1.2ZM43.3119 0.199997V117H45.3119V0.199997H43.3119ZM44.3119 116H15.8319V118H44.3119V116ZM16.8319 117V25.64H14.8319V117H16.8319ZM15.8319 24.64H-0.00812531V26.64H15.8319V24.64Z" fill="url(#paint1_linear_1_1275)" mask="url(#path-1-outside-1_1_1275)"/>
<defs>
<linearGradient id="paint0_linear_1_1275" x1="27.0172" y1="4.33333" x2="26.043" y2="141.002" gradientUnits="userSpaceOnUse">
<stop stop-color="#FF630C"/>
<stop offset="1" stop-color="#FF630C" stop-opacity="0"/>
</linearGradient>
<linearGradient id="paint1_linear_1_1275" x1="27.0172" y1="-19" x2="27.0172" y2="127.667" gradientUnits="userSpaceOnUse">
<stop stop-color="#FF630C"/>
<stop offset="1" stop-color="#FF630C" stop-opacity="0"/>
</linearGradient>
</defs>
</svg>
