<svg width="91" height="114" viewBox="0 0 91 114" fill="none" xmlns="http://www.w3.org/2000/svg">
<mask id="path-1-outside-1_155_1313" maskUnits="userSpaceOnUse" x="-1" y="-1" width="93" height="116" fill="black">
<rect fill="white" x="-1" y="-1" width="93" height="116"/>
<path d="M5.5925 114V97.2L48.7925 56.4C52.2058 53.3067 54.7125 50.5333 56.3125 48.08C57.9125 45.6267 58.9792 43.3867 59.5125 41.36C60.1525 39.3333 60.4725 37.4667 60.4725 35.76C60.4725 31.28 58.9258 27.8667 55.8325 25.52C52.8458 23.0667 48.4192 21.84 42.5525 21.84C37.8592 21.84 33.4858 22.7467 29.4325 24.56C25.4858 26.3733 22.1258 29.2 19.3525 33.04L0.4725 20.88C4.73917 14.48 10.7125 9.41333 18.3925 5.67999C26.0725 1.94666 34.9258 0.079998 44.9525 0.079998C53.2725 0.079998 60.5258 1.46666 66.7125 4.23999C73.0058 6.90666 77.8592 10.6933 81.2725 15.6C84.7925 20.5067 86.5525 26.3733 86.5525 33.2C86.5525 36.8267 86.0725 40.4533 85.1125 44.08C84.2592 47.6 82.4458 51.3333 79.6725 55.28C77.0058 59.2267 73.0592 63.6533 67.8325 68.56L31.9925 102.32L27.0325 92.88H90.2325V114H5.5925Z"/>
</mask>
<path d="M5.5925 114V97.2L48.7925 56.4C52.2058 53.3067 54.7125 50.5333 56.3125 48.08C57.9125 45.6267 58.9792 43.3867 59.5125 41.36C60.1525 39.3333 60.4725 37.4667 60.4725 35.76C60.4725 31.28 58.9258 27.8667 55.8325 25.52C52.8458 23.0667 48.4192 21.84 42.5525 21.84C37.8592 21.84 33.4858 22.7467 29.4325 24.56C25.4858 26.3733 22.1258 29.2 19.3525 33.04L0.4725 20.88C4.73917 14.48 10.7125 9.41333 18.3925 5.67999C26.0725 1.94666 34.9258 0.079998 44.9525 0.079998C53.2725 0.079998 60.5258 1.46666 66.7125 4.23999C73.0058 6.90666 77.8592 10.6933 81.2725 15.6C84.7925 20.5067 86.5525 26.3733 86.5525 33.2C86.5525 36.8267 86.0725 40.4533 85.1125 44.08C84.2592 47.6 82.4458 51.3333 79.6725 55.28C77.0058 59.2267 73.0592 63.6533 67.8325 68.56L31.9925 102.32L27.0325 92.88H90.2325V114H5.5925Z" fill="url(#paint0_linear_155_1313)" fill-opacity="0.25"/>
<path d="M5.5925 114H4.5925V115H5.5925V114ZM5.5925 97.2L4.90588 96.473L4.5925 96.769V97.2H5.5925ZM48.7925 56.4L48.121 55.659L48.1134 55.6659L48.1059 55.673L48.7925 56.4ZM56.3125 48.08L57.1501 48.6263V48.6263L56.3125 48.08ZM59.5125 41.36L58.5589 41.0589L58.5516 41.082L58.5454 41.1055L59.5125 41.36ZM55.8325 25.52L55.1978 26.2927L55.2127 26.305L55.2281 26.3167L55.8325 25.52ZM29.4325 24.56L29.0241 23.6471L29.015 23.6513L29.4325 24.56ZM19.3525 33.04L18.811 33.8807L19.6081 34.3941L20.1632 33.6255L19.3525 33.04ZM0.4725 20.88L-0.35955 20.3253L-0.92309 21.1706L-0.0689774 21.7207L0.4725 20.88ZM18.3925 5.67999L17.9553 4.78062H17.9553L18.3925 5.67999ZM66.7125 4.23999L66.3035 5.1525L66.3129 5.15672L66.3224 5.16074L66.7125 4.23999ZM81.2725 15.6L80.4516 16.1711L80.4557 16.177L80.46 16.1829L81.2725 15.6ZM85.1125 44.08L84.1458 43.8241L84.1431 43.8342L84.1407 43.8444L85.1125 44.08ZM79.6725 55.28L78.8543 54.7051L78.849 54.7125L78.8439 54.7201L79.6725 55.28ZM67.8325 68.56L67.1481 67.8309L67.1468 67.8321L67.8325 68.56ZM31.9925 102.32L31.1073 102.785L31.7197 103.951L32.6782 103.048L31.9925 102.32ZM27.0325 92.88V91.88H25.3774L26.1473 93.3451L27.0325 92.88ZM90.2325 92.88H91.2325V91.88H90.2325V92.88ZM90.2325 114V115H91.2325V114H90.2325ZM6.5925 114V97.2H4.5925V114H6.5925ZM6.27912 97.927L49.4791 57.127L48.1059 55.673L4.90588 96.473L6.27912 97.927ZM49.464 57.141C52.909 54.0189 55.4846 51.1801 57.1501 48.6263L55.4749 47.5337C53.9404 49.8866 51.5026 52.5944 48.121 55.659L49.464 57.141ZM57.1501 48.6263C58.7872 46.1161 59.9105 43.7768 60.4796 41.6145L58.5454 41.1055C58.0478 42.9965 57.0378 45.1373 55.4749 47.5337L57.1501 48.6263ZM60.4661 41.6611C61.1296 39.5599 61.4725 37.5903 61.4725 35.76H59.4725C59.4725 37.343 59.1754 39.1068 58.5589 41.0589L60.4661 41.6611ZM61.4725 35.76C61.4725 31.0218 59.82 27.2898 56.4369 24.7233L55.2281 26.3167C58.0317 28.4435 59.4725 31.5382 59.4725 35.76H61.4725ZM56.4672 24.7473C53.2296 22.0877 48.536 20.84 42.5525 20.84V22.84C48.3024 22.84 52.4621 24.0456 55.1978 26.2927L56.4672 24.7473ZM42.5525 20.84C37.7266 20.84 33.2132 21.7731 29.0241 23.6472L29.8409 25.4728C33.7585 23.7202 37.9917 22.84 42.5525 22.84V20.84ZM29.015 23.6513C24.8976 25.5431 21.4067 28.4877 18.5418 32.4545L20.1632 33.6255C22.8449 29.9123 26.074 27.2036 29.85 25.4687L29.015 23.6513ZM19.894 32.1993L1.01398 20.0393L-0.0689774 21.7207L18.811 33.8807L19.894 32.1993ZM1.30455 21.4347C5.462 15.1985 11.2915 10.2437 18.8297 6.57936L17.9553 4.78062C10.1335 8.58291 4.01633 13.7615 -0.35955 20.3253L1.30455 21.4347ZM18.8297 6.57936C26.3517 2.92284 35.0511 1.08 44.9525 1.08V-0.920002C34.8006 -0.920002 25.7933 0.970486 17.9553 4.78062L18.8297 6.57936ZM44.9525 1.08C53.1628 1.08 60.2712 2.44839 66.3035 5.1525L67.1216 3.32748C60.7805 0.484934 53.3822 -0.920002 44.9525 -0.920002V1.08ZM66.3224 5.16074C72.4675 7.76463 77.1608 11.4405 80.4516 16.1711L82.0934 15.0289C78.5575 9.94613 73.5442 6.04869 67.1027 3.31924L66.3224 5.16074ZM80.46 16.1829C83.8425 20.8979 85.5525 26.554 85.5525 33.2H87.5525C87.5525 26.1926 85.7425 20.1154 82.085 15.0171L80.46 16.1829ZM85.5525 33.2C85.5525 36.7374 85.0845 40.2781 84.1458 43.8241L86.0792 44.3359C87.0605 40.6286 87.5525 36.916 87.5525 33.2H85.5525ZM84.1407 43.8444C83.3248 47.2096 81.5782 50.8288 78.8543 54.7051L80.4907 55.8549C83.3135 51.8379 85.1935 47.9904 86.0844 44.3156L84.1407 43.8444ZM78.8439 54.7201C76.2341 58.5827 72.3448 62.9523 67.1481 67.8309L68.5169 69.2891C73.7735 64.3543 77.7776 59.8706 80.5011 55.8399L78.8439 54.7201ZM67.1468 67.8321L31.3068 101.592L32.6782 103.048L68.5182 69.2879L67.1468 67.8321ZM32.8777 101.855L27.9177 92.4149L26.1473 93.3451L31.1073 102.785L32.8777 101.855ZM27.0325 93.88H90.2325V91.88H27.0325V93.88ZM89.2325 92.88V114H91.2325V92.88H89.2325ZM90.2325 113H5.5925V115H90.2325V113Z" fill="url(#paint1_linear_155_1313)" mask="url(#path-1-outside-1_155_1313)"/>
<defs>
<linearGradient id="paint0_linear_155_1313" x1="49.1379" y1="0.333334" x2="48.3842" y2="137.005" gradientUnits="userSpaceOnUse">
<stop stop-color="#2ACB74"/>
<stop offset="1" stop-color="#2ACB74" stop-opacity="0"/>
</linearGradient>
<linearGradient id="paint1_linear_155_1313" x1="49.1379" y1="-23" x2="49.1379" y2="123.667" gradientUnits="userSpaceOnUse">
<stop stop-color="#29CB74"/>
<stop offset="1" stop-color="#29CB74" stop-opacity="0"/>
</linearGradient>
</defs>
</svg>
