<svg width="81" height="119" viewBox="0 0 81 119" fill="none" xmlns="http://www.w3.org/2000/svg">
<mask id="path-1-outside-1_1_1283" maskUnits="userSpaceOnUse" x="-1" y="-1" width="83" height="121" fill="black">
<rect fill="white" x="-1" y="-1" width="83" height="121"/>
<path d="M0.536875 98.08C4.16354 95.2 5.81688 93.8667 5.49688 94.08C15.9502 85.44 24.1635 78.3467 30.1369 72.8C36.2169 67.2533 41.3369 61.44 45.4969 55.36C49.6569 49.28 51.7369 43.36 51.7369 37.6C51.7369 33.2267 50.7235 29.8133 48.6969 27.36C46.6702 24.9067 43.6302 23.68 39.5769 23.68C35.5235 23.68 32.3235 25.2267 29.9769 28.32C27.7369 31.3067 26.6169 35.5733 26.6169 41.12H0.216875C0.430208 32.0533 2.35021 24.48 5.97688 18.4C9.71021 12.32 14.5635 7.83999 20.5369 4.95999C26.6169 2.07999 33.3369 0.639992 40.6969 0.639992C53.3902 0.639992 62.9369 3.89332 69.3369 10.4C75.8435 16.9067 79.0969 25.3867 79.0969 35.84C79.0969 47.2533 75.2035 57.8667 67.4169 67.68C59.6302 77.3867 49.7102 86.88 37.6569 96.16H80.8569V118.4H0.536875V98.08Z"/>
</mask>
<path d="M0.536875 98.08C4.16354 95.2 5.81688 93.8667 5.49688 94.08C15.9502 85.44 24.1635 78.3467 30.1369 72.8C36.2169 67.2533 41.3369 61.44 45.4969 55.36C49.6569 49.28 51.7369 43.36 51.7369 37.6C51.7369 33.2267 50.7235 29.8133 48.6969 27.36C46.6702 24.9067 43.6302 23.68 39.5769 23.68C35.5235 23.68 32.3235 25.2267 29.9769 28.32C27.7369 31.3067 26.6169 35.5733 26.6169 41.12H0.216875C0.430208 32.0533 2.35021 24.48 5.97688 18.4C9.71021 12.32 14.5635 7.83999 20.5369 4.95999C26.6169 2.07999 33.3369 0.639992 40.6969 0.639992C53.3902 0.639992 62.9369 3.89332 69.3369 10.4C75.8435 16.9067 79.0969 25.3867 79.0969 35.84C79.0969 47.2533 75.2035 57.8667 67.4169 67.68C59.6302 77.3867 49.7102 86.88 37.6569 96.16H80.8569V118.4H0.536875V98.08Z" fill="url(#paint0_linear_1_1283)" fill-opacity="0.25"/>
<path d="M0.536875 98.08L-0.0850067 97.2969L-0.463125 97.5972V98.08H0.536875ZM5.49687 94.08L4.85979 93.3092L6.05158 94.912L5.49687 94.08ZM30.1369 72.8L29.4629 72.0612L29.4564 72.0672L30.1369 72.8ZM48.6969 27.36L47.9259 27.9969L48.6969 27.36ZM29.9769 28.32L29.1802 27.7156L29.1769 27.72L29.9769 28.32ZM26.6169 41.12V42.12H27.6169V41.12H26.6169ZM0.216875 41.12L-0.782848 41.0965L-0.806931 42.12H0.216875V41.12ZM5.97688 18.4L5.12463 17.8767L5.11806 17.8877L5.97688 18.4ZM20.5369 4.95999L20.1088 4.05623L20.1026 4.05923L20.5369 4.95999ZM69.3369 10.4L68.6239 11.1013L68.6298 11.1071L69.3369 10.4ZM67.4169 67.68L68.1969 68.3057L68.2002 68.3016L67.4169 67.68ZM37.6569 96.16L37.0468 95.3676L34.7188 97.16H37.6569V96.16ZM80.8569 96.16H81.8569V95.16H80.8569V96.16ZM80.8569 118.4V119.4H81.8569V118.4H80.8569ZM0.536875 118.4H-0.463125V119.4H0.536875V118.4ZM1.15876 98.8631C2.97233 97.4229 4.29483 96.3676 5.12463 95.6984C5.5379 95.3651 5.83492 95.1228 6.01007 94.9757C6.08372 94.9138 6.17285 94.8382 6.23148 94.7796C6.242 94.7691 6.25832 94.7524 6.27682 94.7317C6.28944 94.7176 6.33027 94.6717 6.37246 94.607C6.39166 94.5776 6.4376 94.5047 6.47501 94.4022C6.49757 94.3404 6.60799 94.0359 6.46041 93.6776C6.26598 93.2054 5.83631 93.0827 5.63267 93.0627C5.45144 93.0449 5.31168 93.0822 5.27063 93.0934C5.16811 93.1213 5.09275 93.1601 5.07725 93.168C5.04798 93.1828 5.02452 93.1964 5.01089 93.2045C4.98298 93.221 4.9584 93.2371 4.94217 93.2479L6.05158 94.912C6.05535 94.9095 6.04692 94.9153 6.0313 94.9246C6.02381 94.929 6.00553 94.9397 5.98048 94.9524C5.9692 94.9581 5.8971 94.9956 5.79687 95.0229C5.75697 95.0338 5.61811 95.0709 5.43755 95.0532C5.23457 95.0333 4.80532 94.9108 4.61107 94.4391C4.46368 94.0812 4.57404 93.7773 4.5963 93.7163C4.63341 93.6147 4.67881 93.5428 4.69723 93.5145C4.73786 93.4522 4.77616 93.4095 4.78529 93.3993C4.8003 93.3825 4.81216 93.3705 4.81727 93.3654C4.83257 93.3501 4.81669 93.3662 4.72368 93.4443C4.5655 93.5772 4.28252 93.8082 3.86912 94.1416C3.04559 94.8057 1.72809 95.8571 -0.0850067 97.2969L1.15876 98.8631ZM6.13396 94.8508C16.5938 86.2054 24.8238 79.0983 30.8173 73.5328L29.4564 72.0672C23.5033 77.5951 15.3066 84.6746 4.85979 93.3092L6.13396 94.8508ZM30.8108 73.5388C36.9413 67.9461 42.1139 62.0753 46.3222 55.9247L44.6716 54.7953C40.5599 60.8047 35.4925 66.5606 29.4629 72.0612L30.8108 73.5388ZM46.3222 55.9247C50.5643 49.7246 52.7369 43.6111 52.7369 37.6H50.7369C50.7369 43.1089 48.7494 48.8354 44.6716 54.7953L46.3222 55.9247ZM52.7369 37.6C52.7369 33.0807 51.6896 29.4126 49.4678 26.7231L47.9259 27.9969C49.7575 30.214 50.7369 33.3726 50.7369 37.6H52.7369ZM49.4678 26.7231C47.2013 23.9794 43.84 22.68 39.5769 22.68V24.68C43.4204 24.68 46.1392 25.834 47.9259 27.9969L49.4678 26.7231ZM39.5769 22.68C35.2268 22.68 31.7254 24.3605 29.1802 27.7156L30.7736 28.9244C32.9217 26.0928 35.8203 24.68 39.5769 24.68V22.68ZM29.1769 27.72C26.7576 30.9457 25.6169 35.4572 25.6169 41.12H27.6169C27.6169 35.6894 28.7162 31.6676 30.7769 28.92L29.1769 27.72ZM26.6169 40.12H0.216875V42.12H26.6169V40.12ZM1.2166 41.1435C1.42699 32.2018 3.3188 24.8082 6.8357 18.9123L5.11806 17.8877C1.38162 24.1518 -0.566575 31.9049 -0.782848 41.0965L1.2166 41.1435ZM6.82905 18.9233C10.4701 12.9936 15.1836 8.6512 20.9712 5.86076L20.1026 4.05923C13.9435 7.02879 8.95035 11.6464 5.12471 17.8767L6.82905 18.9233ZM20.965 5.86373C26.899 3.05289 33.4708 1.63999 40.6969 1.63999V-0.360008C33.2029 -0.360008 26.3348 1.1071 20.1088 4.05626L20.965 5.86373ZM40.6969 1.63999C53.229 1.63999 62.4756 4.85037 68.6239 11.1012L70.0498 9.69875C63.3982 2.93628 53.5514 -0.360008 40.6969 -0.360008V1.63999ZM68.6298 11.1071C74.9229 17.4002 78.0969 25.6126 78.0969 35.84H80.0969C80.0969 25.1607 76.7642 16.4131 70.044 9.69288L68.6298 11.1071ZM78.0969 35.84C78.0969 47.0053 74.2945 57.4035 66.6335 67.0584L68.2002 68.3016C76.1126 58.3298 80.0969 47.5014 80.0969 35.84H78.0969ZM66.6368 67.0543C58.9096 76.6869 49.0505 86.1259 37.0468 95.3676L38.2669 96.9524C50.3699 87.6341 60.3508 78.0864 68.1969 68.3057L66.6368 67.0543ZM37.6569 97.16H80.8569V95.16H37.6569V97.16ZM79.8569 96.16V118.4H81.8569V96.16H79.8569ZM80.8569 117.4H0.536875V119.4H80.8569V117.4ZM1.53688 118.4V98.08H-0.463125V118.4H1.53688Z" fill="url(#paint1_linear_1_1283)" mask="url(#path-1-outside-1_1_1283)"/>
<defs>
<linearGradient id="paint0_linear_1_1283" x1="41.5862" y1="7.33334" x2="41.4544" y2="163.501" gradientUnits="userSpaceOnUse">
<stop stop-color="#FF630C"/>
<stop offset="1" stop-color="#FF630C" stop-opacity="0"/>
</linearGradient>
<linearGradient id="paint1_linear_1_1283" x1="41.5862" y1="-16" x2="41.5862" y2="130.667" gradientUnits="userSpaceOnUse">
<stop stop-color="#FF630C"/>
<stop offset="1" stop-color="#FF630C" stop-opacity="0"/>
</linearGradient>
</defs>
</svg>
