<svg width="90" height="114" viewBox="0 0 90 114" fill="none" xmlns="http://www.w3.org/2000/svg">
<mask id="path-1-outside-1_155_1327" maskUnits="userSpaceOnUse" x="-2" y="-1" width="93" height="116" fill="black">
<rect fill="white" x="-2" y="-1" width="93" height="116"/>
<path d="M42.7163 113.92C34.9296 113.92 27.1963 112.907 19.5163 110.88C11.8363 108.747 5.32958 105.76 -0.00375001 101.92L10.0763 82.08C14.3429 85.1733 19.3029 87.6267 24.9563 89.44C30.6096 91.2533 36.3163 92.16 42.0763 92.16C48.5829 92.16 53.7029 90.88 57.4363 88.32C61.1696 85.76 63.0363 82.24 63.0363 77.76C63.0363 73.4933 61.3829 70.1333 58.0763 67.68C54.7696 65.2267 49.4363 64 42.0763 64H30.2363V46.88L61.4363 11.52L64.3163 20.8H5.59625V-7.62939e-06H83.9963V16.8L52.9563 52.16L39.8363 44.64H47.3563C61.1163 44.64 71.5163 47.7333 78.5563 53.92C85.5963 60.1067 89.1163 68.0533 89.1163 77.76C89.1163 84.0533 87.4629 89.9733 84.1563 95.52C80.8496 100.96 75.7829 105.387 68.9563 108.8C62.1296 112.213 53.3829 113.92 42.7163 113.92Z"/>
</mask>
<path d="M42.7163 113.92C34.9296 113.92 27.1963 112.907 19.5163 110.88C11.8363 108.747 5.32958 105.76 -0.00375001 101.92L10.0763 82.08C14.3429 85.1733 19.3029 87.6267 24.9563 89.44C30.6096 91.2533 36.3163 92.16 42.0763 92.16C48.5829 92.16 53.7029 90.88 57.4363 88.32C61.1696 85.76 63.0363 82.24 63.0363 77.76C63.0363 73.4933 61.3829 70.1333 58.0763 67.68C54.7696 65.2267 49.4363 64 42.0763 64H30.2363V46.88L61.4363 11.52L64.3163 20.8H5.59625V-7.62939e-06H83.9963V16.8L52.9563 52.16L39.8363 44.64H47.3563C61.1163 44.64 71.5163 47.7333 78.5563 53.92C85.5963 60.1067 89.1163 68.0533 89.1163 77.76C89.1163 84.0533 87.4629 89.9733 84.1563 95.52C80.8496 100.96 75.7829 105.387 68.9563 108.8C62.1296 112.213 53.3829 113.92 42.7163 113.92Z" fill="url(#paint0_linear_155_1327)" fill-opacity="0.25"/>
<path d="M19.5163 110.88L19.2486 111.844L19.2611 111.847L19.5163 110.88ZM-0.00375001 101.92L-0.895283 101.467L-1.28337 102.231L-0.588055 102.732L-0.00375001 101.92ZM10.0763 82.08L10.6632 81.2704L9.71514 80.583L9.18472 81.627L10.0763 82.08ZM24.9562 89.44L24.6508 90.3922H24.6508L24.9562 89.44ZM57.4363 88.32L58.0018 89.1447L57.4363 88.32ZM30.2363 64H29.2363V65H30.2363V64ZM30.2363 46.88L29.4864 46.2184L29.2363 46.5019V46.88H30.2363ZM61.4363 11.52L62.3913 11.2236L61.8638 9.52396L60.6864 10.8584L61.4363 11.52ZM64.3163 20.8V21.8H65.6737L65.2713 20.5036L64.3163 20.8ZM5.59625 20.8H4.59625V21.8H5.59625V20.8ZM5.59625 -7.62939e-06V-1.00001H4.59625V-7.62939e-06H5.59625ZM83.9963 -7.62939e-06H84.9963V-1.00001H83.9963V-7.62939e-06ZM83.9963 16.8L84.7478 17.4597L84.9963 17.1766V16.8H83.9963ZM52.9563 52.16L52.459 53.0276L53.1684 53.4342L53.7078 52.8197L52.9563 52.16ZM39.8363 44.64V43.64H36.0806L39.339 45.5076L39.8363 44.64ZM78.5563 53.92L77.8961 54.6712L78.5563 53.92ZM84.1563 95.52L85.0108 96.0394L85.0152 96.0321L84.1563 95.52ZM68.9563 108.8L68.509 107.906L68.9563 108.8ZM42.7163 112.92C35.0174 112.92 27.3698 111.918 19.7714 109.913L19.2611 111.847C27.0227 113.895 34.8417 114.92 42.7163 114.92V112.92ZM19.7839 109.916C12.1941 107.808 5.80018 104.867 0.580555 101.108L-0.588055 102.732C4.85899 106.653 11.4784 109.685 19.2486 111.844L19.7839 109.916ZM0.887783 102.373L10.9678 82.533L9.18472 81.627L-0.895283 101.467L0.887783 102.373ZM9.48928 82.8896C13.8517 86.0524 18.9093 88.5506 24.6508 90.3922L25.2617 88.4878C19.6966 86.7027 14.8341 84.2943 10.6632 81.2704L9.48928 82.8896ZM24.6508 90.3922C30.3998 92.2362 36.2094 93.16 42.0763 93.16V91.16C36.4231 91.16 30.8194 90.2704 25.2617 88.4878L24.6508 90.3922ZM42.0763 93.16C48.7003 93.16 54.0438 91.8588 58.0018 89.1447L56.8707 87.4953C53.3621 89.9012 48.4655 91.16 42.0763 91.16V93.16ZM58.0018 89.1447C62.0036 86.4006 64.0363 82.5738 64.0363 77.76H62.0363C62.0363 81.9062 60.3355 85.1194 56.8707 87.4953L58.0018 89.1447ZM64.0363 77.76C64.0363 73.1902 62.2437 69.5268 58.6721 66.8769L57.4804 68.4831C60.5222 70.7399 62.0363 73.7964 62.0363 77.76H64.0363ZM58.6721 66.8769C55.103 64.2289 49.5019 63 42.0763 63V65C49.3706 65 54.4361 66.2244 57.4804 68.4831L58.6721 66.8769ZM42.0763 63H30.2363V65H42.0763V63ZM31.2363 64V46.88H29.2363V64H31.2363ZM30.9861 47.5416L62.1861 12.1816L60.6864 10.8584L29.4864 46.2184L30.9861 47.5416ZM60.4812 11.8164L63.3612 21.0964L65.2713 20.5036L62.3913 11.2236L60.4812 11.8164ZM64.3163 19.8H5.59625V21.8H64.3163V19.8ZM6.59625 20.8V-7.62939e-06H4.59625V20.8H6.59625ZM5.59625 0.999992H83.9963V-1.00001H5.59625V0.999992ZM82.9963 -7.62939e-06V16.8H84.9963V-7.62939e-06H82.9963ZM83.2447 16.1403L52.2047 51.5003L53.7078 52.8197L84.7478 17.4597L83.2447 16.1403ZM53.4535 51.2924L40.3335 43.7724L39.339 45.5076L52.459 53.0276L53.4535 51.2924ZM39.8363 45.64H47.3563V43.64H39.8363V45.64ZM47.3563 45.64C60.9845 45.64 71.1077 48.7056 77.8961 54.6712L79.2164 53.1688C71.9248 46.761 61.248 43.64 47.3563 43.64V45.64ZM77.8961 54.6712C84.7114 60.6604 88.1163 68.3292 88.1163 77.76H90.1163C90.1163 67.7774 86.4811 59.553 79.2164 53.1688L77.8961 54.6712ZM88.1163 77.76C88.1163 83.8682 86.5142 89.6119 83.2973 95.0079L85.0152 96.0321C88.4117 90.3348 90.1163 84.2385 90.1163 77.76H88.1163ZM83.3017 95.0006C80.1108 100.25 75.2011 104.56 68.509 107.906L69.4035 109.694C76.3647 106.214 81.5884 101.67 85.0108 96.0394L83.3017 95.0006ZM68.509 107.906C61.8652 111.227 53.2857 112.92 42.7163 112.92V114.92C53.4801 114.92 62.394 113.199 69.4035 109.694L68.509 107.906Z" fill="url(#paint1_linear_155_1327)" mask="url(#path-1-outside-1_155_1327)"/>
<defs>
<linearGradient id="paint0_linear_155_1327" x1="49.1379" y1="-1.66667" x2="48.3842" y2="135.005" gradientUnits="userSpaceOnUse">
<stop stop-color="#2ACB74"/>
<stop offset="1" stop-color="#2ACB74" stop-opacity="0"/>
</linearGradient>
<linearGradient id="paint1_linear_155_1327" x1="49.1379" y1="-25" x2="49.1379" y2="121.667" gradientUnits="userSpaceOnUse">
<stop stop-color="#29CB74"/>
<stop offset="1" stop-color="#29CB74" stop-opacity="0"/>
</linearGradient>
</defs>
</svg>
