<svg width="83" height="121" viewBox="0 0 83 121" fill="none" xmlns="http://www.w3.org/2000/svg">
<mask id="path-1-outside-1_1_1300" maskUnits="userSpaceOnUse" x="-1" y="-1" width="85" height="123" fill="black">
<rect fill="white" x="-1" y="-1" width="85" height="123"/>
<path d="M2.2225 36.16C2.64917 24.7467 6.3825 15.9467 13.4225 9.76C20.4625 3.57333 30.0092 0.479994 42.0625 0.479994C50.0625 0.479994 56.8892 1.86666 62.5425 4.64C68.3025 7.41333 72.6225 11.2 75.5025 16C78.4892 20.8 79.9825 26.1867 79.9825 32.16C79.9825 39.2 78.2225 44.96 74.7025 49.44C71.1825 53.8133 67.0758 56.8 62.3825 58.4V59.04C68.4625 61.0667 73.2625 64.4267 76.7825 69.12C80.3025 73.8133 82.0625 79.84 82.0625 87.2C82.0625 93.8133 80.5158 99.68 77.4225 104.8C74.4358 109.813 70.0092 113.76 64.1425 116.64C58.3825 119.52 51.5025 120.96 43.5025 120.96C30.7025 120.96 20.4625 117.813 12.7825 111.52C5.20917 105.227 1.20917 95.7333 0.782501 83.04H27.3425C27.4492 87.7333 28.7825 91.4667 31.3425 94.24C33.9025 96.9067 37.6358 98.24 42.5425 98.24C46.7025 98.24 49.9025 97.0667 52.1425 94.72C54.4892 92.2667 55.6625 89.0667 55.6625 85.12C55.6625 80 54.0092 76.32 50.7025 74.08C47.5025 71.7333 42.3292 70.56 35.1825 70.56H30.0625V48.32H35.1825C40.6225 48.32 44.9958 47.4133 48.3025 45.6C51.7158 43.68 53.4225 40.32 53.4225 35.52C53.4225 31.68 52.3558 28.6933 50.2225 26.56C48.0892 24.4267 45.1558 23.36 41.4225 23.36C37.3692 23.36 34.3292 24.5867 32.3025 27.04C30.3825 29.4933 29.2625 32.5333 28.9425 36.16H2.2225Z"/>
</mask>
<path d="M2.2225 36.16C2.64917 24.7467 6.3825 15.9467 13.4225 9.76C20.4625 3.57333 30.0092 0.479994 42.0625 0.479994C50.0625 0.479994 56.8892 1.86666 62.5425 4.64C68.3025 7.41333 72.6225 11.2 75.5025 16C78.4892 20.8 79.9825 26.1867 79.9825 32.16C79.9825 39.2 78.2225 44.96 74.7025 49.44C71.1825 53.8133 67.0758 56.8 62.3825 58.4V59.04C68.4625 61.0667 73.2625 64.4267 76.7825 69.12C80.3025 73.8133 82.0625 79.84 82.0625 87.2C82.0625 93.8133 80.5158 99.68 77.4225 104.8C74.4358 109.813 70.0092 113.76 64.1425 116.64C58.3825 119.52 51.5025 120.96 43.5025 120.96C30.7025 120.96 20.4625 117.813 12.7825 111.52C5.20917 105.227 1.20917 95.7333 0.782501 83.04H27.3425C27.4492 87.7333 28.7825 91.4667 31.3425 94.24C33.9025 96.9067 37.6358 98.24 42.5425 98.24C46.7025 98.24 49.9025 97.0667 52.1425 94.72C54.4892 92.2667 55.6625 89.0667 55.6625 85.12C55.6625 80 54.0092 76.32 50.7025 74.08C47.5025 71.7333 42.3292 70.56 35.1825 70.56H30.0625V48.32H35.1825C40.6225 48.32 44.9958 47.4133 48.3025 45.6C51.7158 43.68 53.4225 40.32 53.4225 35.52C53.4225 31.68 52.3558 28.6933 50.2225 26.56C48.0892 24.4267 45.1558 23.36 41.4225 23.36C37.3692 23.36 34.3292 24.5867 32.3025 27.04C30.3825 29.4933 29.2625 32.5333 28.9425 36.16H2.2225Z" fill="url(#paint0_linear_1_1300)" fill-opacity="0.25"/>
<path d="M2.2225 36.16L1.2232 36.1226L1.18442 37.16H2.2225V36.16ZM13.4225 9.76L14.0826 10.5112H14.0826L13.4225 9.76ZM62.5425 4.64L62.1021 5.53781L62.1087 5.541L62.5425 4.64ZM75.5025 16L74.645 16.5145L74.6492 16.5214L74.6534 16.5283L75.5025 16ZM74.7025 49.44L75.4816 50.067L75.4888 50.0578L74.7025 49.44ZM62.3825 58.4L62.0598 57.4535L61.3825 57.6844V58.4H62.3825ZM62.3825 59.04H61.3825V59.7608L62.0663 59.9887L62.3825 59.04ZM76.7825 69.12L77.5825 68.52L76.7825 69.12ZM77.4225 104.8L76.5666 104.283L76.5634 104.288L77.4225 104.8ZM64.1425 116.64L63.7018 115.742L63.6953 115.746L64.1425 116.64ZM12.7825 111.52L12.1434 112.289L12.1487 112.293L12.7825 111.52ZM0.7825 83.04V82.04H-0.251678L-0.216935 83.0736L0.7825 83.04ZM27.3425 83.04L28.3422 83.0173L28.32 82.04H27.3425V83.04ZM31.3425 94.24L30.6077 94.9183L30.6143 94.9255L30.6211 94.9325L31.3425 94.24ZM52.1425 94.72L51.4199 94.0288L51.4191 94.0295L52.1425 94.72ZM50.7025 74.08L50.1111 74.8864L50.1262 74.8974L50.1417 74.9079L50.7025 74.08ZM30.0625 70.56H29.0625V71.56H30.0625V70.56ZM30.0625 48.32V47.32H29.0625V48.32H30.0625ZM48.3025 45.6L48.7834 46.4769L48.7928 46.4716L48.3025 45.6ZM50.2225 26.56L50.9296 25.8529L50.2225 26.56ZM32.3025 27.04L31.5315 26.4031L31.5231 26.4133L31.515 26.4237L32.3025 27.04ZM28.9425 36.16V37.16H29.8582L29.9386 36.2479L28.9425 36.16ZM3.2218 36.1973C3.64062 24.994 7.29279 16.478 14.0826 10.5112L12.7624 9.00883C5.47221 15.4153 1.65771 24.4993 1.2232 36.1226L3.2218 36.1973ZM14.0826 10.5112C20.8928 4.52643 30.1808 1.47999 42.0625 1.47999V-0.520006C29.8376 -0.520006 20.0322 2.62023 12.7624 9.00883L14.0826 10.5112ZM42.0625 1.47999C49.9499 1.47999 56.6178 2.84736 62.1021 5.53779L62.9829 3.74221C57.1606 0.88596 50.1751 -0.520006 42.0625 -0.520006V1.47999ZM62.1087 5.541C67.7185 8.242 71.8792 11.9048 74.645 16.5145L76.36 15.4855C73.3658 10.4952 68.8865 6.58465 62.9763 3.739L62.1087 5.541ZM74.6534 16.5283C77.5358 21.1606 78.9825 26.3624 78.9825 32.16H80.9825C80.9825 26.011 79.4426 20.4394 76.3516 15.4717L74.6534 16.5283ZM78.9825 32.16C78.9825 39.03 77.2677 44.5566 73.9162 48.8222L75.4888 50.0578C79.1773 45.3633 80.9825 39.37 80.9825 32.16H78.9825ZM73.9235 48.813C70.5061 53.0588 66.551 55.9224 62.0598 57.4535L62.7052 59.3465C67.6007 57.6776 71.8589 54.5679 75.4815 50.067L73.9235 48.813ZM61.3825 58.4V59.04H63.3825V58.4H61.3825ZM62.0663 59.9887C67.972 61.9573 72.5959 65.2045 75.9825 69.72L77.5825 68.52C73.9292 63.6489 68.953 60.1761 62.6987 58.0913L62.0663 59.9887ZM75.9825 69.72C79.3428 74.2003 81.0625 80.0005 81.0625 87.2H83.0625C83.0625 79.6795 81.2622 73.4263 77.5825 68.52L75.9825 69.72ZM81.0625 87.2C81.0625 93.6509 79.5559 99.335 76.5666 104.283L78.2784 105.317C81.4758 100.025 83.0625 93.9758 83.0625 87.2H81.0625ZM76.5634 104.288C73.6875 109.116 69.4161 112.937 63.7018 115.742L64.5832 117.538C70.6022 114.583 75.1842 110.511 78.2816 105.312L76.5634 104.288ZM63.6953 115.746C58.1037 118.541 51.3841 119.96 43.5025 119.96V121.96C51.6209 121.96 58.6613 120.499 64.5897 117.534L63.6953 115.746ZM43.5025 119.96C30.8657 119.96 20.8713 116.855 13.4163 110.747L12.1487 112.293C20.0537 118.771 30.5393 121.96 43.5025 121.96V119.96ZM13.4216 110.751C6.12761 104.69 2.20197 95.5025 1.78194 83.0064L-0.216935 83.0736C0.216363 95.9642 4.29072 105.764 12.1434 112.289L13.4216 110.751ZM0.7825 84.04H27.3425V82.04H0.7825V84.04ZM26.3428 83.0627C26.4536 87.9379 27.845 91.9253 30.6077 94.9183L32.0773 93.5617C29.72 91.008 28.4448 87.5288 28.3422 83.0173L26.3428 83.0627ZM30.6211 94.9325C33.4255 97.8538 37.4564 99.24 42.5425 99.24V97.24C37.8153 97.24 34.3795 95.9595 32.0639 93.5475L30.6211 94.9325ZM42.5425 99.24C46.8944 99.24 50.3875 98.0068 52.8659 95.4105L51.4191 94.0295C49.4175 96.1265 46.5106 97.24 42.5425 97.24V99.24ZM52.8651 95.4112C55.4186 92.7417 56.6625 89.2793 56.6625 85.12H54.6625C54.6625 88.8541 53.5597 91.7917 51.4199 94.0288L52.8651 95.4112ZM56.6625 85.12C56.6625 79.7731 54.9213 75.7301 51.2633 73.2521L50.1417 74.9079C53.097 76.9099 54.6625 80.2269 54.6625 85.12H56.6625ZM51.2939 73.2736C47.8319 70.7348 42.3924 69.56 35.1825 69.56V71.56C42.2659 71.56 47.1731 72.7318 50.1111 74.8864L51.2939 73.2736ZM35.1825 69.56H30.0625V71.56H35.1825V69.56ZM31.0625 70.56V48.32H29.0625V70.56H31.0625ZM30.0625 49.32H35.1825V47.32H30.0625V49.32ZM35.1825 49.32C40.721 49.32 45.2784 48.3989 48.7833 46.4768L47.8217 44.7232C44.7133 46.4278 40.524 47.32 35.1825 47.32V49.32ZM48.7928 46.4716C52.5966 44.3319 54.4225 40.5852 54.4225 35.52H52.4225C52.4225 40.0548 50.835 43.0281 47.8122 44.7284L48.7928 46.4716ZM54.4225 35.52C54.4225 31.4907 53.2981 28.2214 50.9296 25.8529L49.5154 27.2671C51.4136 29.1653 52.4225 31.8693 52.4225 35.52H54.4225ZM50.9296 25.8529C48.5663 23.4896 45.3543 22.36 41.4225 22.36V24.36C44.9574 24.36 47.612 25.3637 49.5154 27.2671L50.9296 25.8529ZM41.4225 22.36C37.1594 22.36 33.7981 23.6594 31.5315 26.4031L33.0735 27.6769C34.8602 25.514 37.579 24.36 41.4225 24.36V22.36ZM31.515 26.4237C29.4569 29.0535 28.2804 32.286 27.9464 36.0721L29.9386 36.2479C30.2446 32.7807 31.3081 29.9331 33.09 27.6563L31.515 26.4237ZM28.9425 35.16H2.2225V37.16H28.9425V35.16Z" fill="url(#paint1_linear_1_1300)" mask="url(#path-1-outside-1_1_1300)"/>
<defs>
<linearGradient id="paint0_linear_1_1300" x1="44.1724" y1="7.33334" x2="44.0474" y2="163.501" gradientUnits="userSpaceOnUse">
<stop stop-color="#FF630C"/>
<stop offset="1" stop-color="#FF630C" stop-opacity="0"/>
</linearGradient>
<linearGradient id="paint1_linear_1_1300" x1="44.1724" y1="-16" x2="44.1724" y2="130.667" gradientUnits="userSpaceOnUse">
<stop stop-color="#FF630C"/>
<stop offset="1" stop-color="#FF630C" stop-opacity="0"/>
</linearGradient>
</defs>
</svg>
