<svg width="502" height="501" viewBox="0 0 502 501" fill="none" xmlns="http://www.w3.org/2000/svg">
<g opacity="0.75">
<path d="M375.8 126H376.3V125.5H375.8V126ZM251 126.5H375.8V125.5H251V126.5ZM375.3 126V250.8H376.3V126H375.3Z" fill="#25CA71" fill-opacity="0.4"/>
<path d="M500.8 250.8V251.3H501.3V250.8H500.8ZM500.8 126H501.3V125.5H500.8V126ZM500.8 250.3H376V251.3H500.8V250.3ZM376 126.5H500.8V125.5H376V126.5ZM500.3 126V250.8H501.3V126H500.3Z" fill="url(#paint0_linear_1_1200)" fill-opacity="0.4"/>
<path d="M375.8 375.8V376.3H376.3V375.8H375.8ZM375.8 251H376.3V250.5H375.8V251ZM375.8 375.3H251V376.3H375.8V375.3ZM251 251.5H375.8V250.5H251V251.5ZM375.3 251V375.8H376.3V251H375.3Z" fill="url(#paint1_linear_1_1200)" fill-opacity="0.4"/>
<path d="M125.8 126H126.3V125.5H125.8V126ZM0.999802 126.5H125.8V125.5H0.999802V126.5ZM125.3 126V250.8H126.3V126H125.3Z" fill="url(#paint2_linear_1_1200)" fill-opacity="0.4"/>
<path d="M125.8 0.999802H126.3V0.499802H125.8V0.999802ZM0.999802 1.4998H125.8V0.499802H0.999802V1.4998ZM125.3 0.999802V125.8H126.3V0.999802H125.3Z" fill="url(#paint3_linear_1_1200)" fill-opacity="0.4"/>
<path d="M126 500.5V376H1" stroke="url(#paint4_linear_1_1200)" stroke-opacity="0.4"/>
<path d="M1 478V376H126" stroke="url(#paint5_linear_1_1200)" stroke-opacity="0.4"/>
<path d="M250.8 376H251.3V375.5H250.8V376ZM126 376.5H250.8V375.5H126V376.5ZM250.3 376V500.8H251.3V376H250.3Z" fill="url(#paint6_linear_1_1200)" fill-opacity="0.4"/>
<path d="M375.8 376H376.3V375.5H375.8V376ZM251 376.5H375.8V375.5H251V376.5ZM375.3 376V500.8H376.3V376H375.3Z" fill="url(#paint7_linear_1_1200)" fill-opacity="0.4"/>
<path d="M500.8 376H501.3V375.5H500.8V376ZM376 376.5H500.8V375.5H376V376.5ZM500.3 376V500.8H501.3V376H500.3Z" fill="url(#paint8_linear_1_1200)" fill-opacity="0.4"/>
<path d="M0.999802 251V250.5H0.499802V251H0.999802ZM125.8 251H126.3V250.5H125.8V251ZM1.4998 375.8V251H0.499802V375.8H1.4998ZM0.999802 251.5H125.8V250.5H0.999802V251.5ZM125.3 251V375.8H126.3V251H125.3Z" fill="url(#paint9_linear_1_1200)" fill-opacity="0.4"/>
<path d="M250.8 251H251.3V250.5H250.8V251ZM126 251.5H250.8V250.5H126V251.5ZM250.3 251V375.8H251.3V251H250.3Z" fill="url(#paint10_linear_1_1200)" fill-opacity="0.4"/>
</g>
<defs>
<linearGradient id="paint0_linear_1_1200" x1="438.4" y1="250.8" x2="438.8" y2="79.7998" gradientUnits="userSpaceOnUse">
<stop stop-color="#FF630C"/>
<stop offset="1" stop-color="#FF630C" stop-opacity="0"/>
</linearGradient>
<linearGradient id="paint1_linear_1_1200" x1="313.4" y1="375.8" x2="316.8" y2="205.3" gradientUnits="userSpaceOnUse">
<stop stop-color="#25CA71"/>
<stop offset="1" stop-color="#25CA71" stop-opacity="0"/>
</linearGradient>
<linearGradient id="paint2_linear_1_1200" x1="63.3998" y1="250.8" x2="63.7998" y2="66.7998" gradientUnits="userSpaceOnUse">
<stop stop-color="#FF630C"/>
<stop offset="1" stop-color="#FF630C" stop-opacity="0"/>
</linearGradient>
<linearGradient id="paint3_linear_1_1200" x1="63.3998" y1="125.8" x2="63.7998" y2="-58.2002" gradientUnits="userSpaceOnUse">
<stop stop-color="#FF630C"/>
<stop offset="1" stop-color="#FF630C" stop-opacity="0"/>
</linearGradient>
<linearGradient id="paint4_linear_1_1200" x1="63.9006" y1="478" x2="63.9006" y2="331.702" gradientUnits="userSpaceOnUse">
<stop stop-color="#FF630C"/>
<stop offset="1" stop-color="#FF630C" stop-opacity="0"/>
</linearGradient>
<linearGradient id="paint5_linear_1_1200" x1="63.0994" y1="478" x2="63.0994" y2="331.702" gradientUnits="userSpaceOnUse">
<stop stop-color="#FF630C"/>
<stop offset="1" stop-color="#FF630C" stop-opacity="0"/>
</linearGradient>
<linearGradient id="paint6_linear_1_1200" x1="188.8" y1="500.8" x2="188.8" y2="328.3" gradientUnits="userSpaceOnUse">
<stop stop-color="#FF630C"/>
<stop offset="1" stop-color="#FF630C" stop-opacity="0"/>
</linearGradient>
<linearGradient id="paint7_linear_1_1200" x1="313.8" y1="500.8" x2="313.8" y2="328.3" gradientUnits="userSpaceOnUse">
<stop stop-color="#FF630C"/>
<stop offset="1" stop-color="#FF630C" stop-opacity="0"/>
</linearGradient>
<linearGradient id="paint8_linear_1_1200" x1="438.8" y1="500.8" x2="438.8" y2="328.3" gradientUnits="userSpaceOnUse">
<stop stop-color="#FF630C"/>
<stop offset="1" stop-color="#FF630C" stop-opacity="0"/>
</linearGradient>
<linearGradient id="paint9_linear_1_1200" x1="63.3998" y1="375.8" x2="63.7998" y2="210.3" gradientUnits="userSpaceOnUse">
<stop stop-color="#FF630C"/>
<stop offset="1" stop-color="#FF630C" stop-opacity="0"/>
</linearGradient>
<linearGradient id="paint10_linear_1_1200" x1="188.4" y1="375.8" x2="188.8" y2="198.8" gradientUnits="userSpaceOnUse">
<stop stop-color="#FF630C"/>
<stop offset="1" stop-color="#FF630C" stop-opacity="0"/>
</linearGradient>
</defs>
</svg>
