<svg width="501" height="501" viewBox="0 0 501 501" fill="none" xmlns="http://www.w3.org/2000/svg">
<g opacity="0.75">
<path d="M374.8 126H375.3V125.5H374.8V126ZM250 126.5H374.8V125.5H250V126.5ZM374.3 126V250.8H375.3V126H374.3Z" fill="#25CA71" fill-opacity="0.4"/>
<path d="M499.8 250.8V251.3H500.3V250.8H499.8ZM499.8 126H500.3V125.5H499.8V126ZM499.8 250.3H375V251.3H499.8V250.3ZM375 126.5H499.8V125.5H375V126.5ZM499.3 126V250.8H500.3V126H499.3Z" fill="url(#paint0_linear_155_1189)" fill-opacity="0.4"/>
<path d="M374.8 375.8V376.3H375.3V375.8H374.8ZM374.8 251H375.3V250.5H374.8V251ZM374.8 375.3H250V376.3H374.8V375.3ZM250 251.5H374.8V250.5H250V251.5ZM374.3 251V375.8H375.3V251H374.3Z" fill="url(#paint1_linear_155_1189)" fill-opacity="0.4"/>
<path d="M124.8 126H125.3V125.5H124.8V126ZM-0.000198364 126.5H124.8V125.5H-0.000198364V126.5ZM124.3 126V250.8H125.3V126H124.3Z" fill="url(#paint2_linear_155_1189)" fill-opacity="0.4"/>
<path d="M124.8 0.999802H125.3V0.499802H124.8V0.999802ZM-0.000198364 1.4998H124.8V0.499802H-0.000198364V1.4998ZM124.3 0.999802V125.8H125.3V0.999802H124.3Z" fill="url(#paint3_linear_155_1189)" fill-opacity="0.4"/>
<path d="M-0.000198364 376V375.5H-0.500198V376H-0.000198364ZM124.8 376H125.3V375.5H124.8V376ZM0.499802 500.8V376H-0.500198V500.8H0.499802ZM-0.000198364 376.5H124.8V375.5H-0.000198364V376.5ZM124.3 376V500.8H125.3V376H124.3Z" fill="url(#paint4_linear_155_1189)" fill-opacity="0.4"/>
<path d="M249.8 376H250.3V375.5H249.8V376ZM125 376.5H249.8V375.5H125V376.5ZM249.3 376V500.8H250.3V376H249.3Z" fill="url(#paint5_linear_155_1189)" fill-opacity="0.4"/>
<path d="M374.8 376H375.3V375.5H374.8V376ZM250 376.5H374.8V375.5H250V376.5ZM374.3 376V500.8H375.3V376H374.3Z" fill="url(#paint6_linear_155_1189)" fill-opacity="0.4"/>
<path d="M499.8 376H500.3V375.5H499.8V376ZM375 376.5H499.8V375.5H375V376.5ZM499.3 376V500.8H500.3V376H499.3Z" fill="url(#paint7_linear_155_1189)" fill-opacity="0.4"/>
<path d="M-0.000198364 251V250.5H-0.500198V251H-0.000198364ZM124.8 251H125.3V250.5H124.8V251ZM0.499802 375.8V251H-0.500198V375.8H0.499802ZM-0.000198364 251.5H124.8V250.5H-0.000198364V251.5ZM124.3 251V375.8H125.3V251H124.3Z" fill="url(#paint8_linear_155_1189)" fill-opacity="0.4"/>
<path d="M249.8 251H250.3V250.5H249.8V251ZM125 251.5H249.8V250.5H125V251.5ZM249.3 251V375.8H250.3V251H249.3Z" fill="url(#paint9_linear_155_1189)" fill-opacity="0.4"/>
</g>
<defs>
<linearGradient id="paint0_linear_155_1189" x1="437.4" y1="250.8" x2="437.8" y2="79.7998" gradientUnits="userSpaceOnUse">
<stop stop-color="#25CA71"/>
<stop offset="1" stop-color="#25CA71" stop-opacity="0"/>
</linearGradient>
<linearGradient id="paint1_linear_155_1189" x1="312.4" y1="375.8" x2="315.8" y2="205.3" gradientUnits="userSpaceOnUse">
<stop stop-color="#25CA71"/>
<stop offset="1" stop-color="#25CA71" stop-opacity="0"/>
</linearGradient>
<linearGradient id="paint2_linear_155_1189" x1="62.3998" y1="250.8" x2="62.7998" y2="66.7998" gradientUnits="userSpaceOnUse">
<stop stop-color="#25CA71"/>
<stop offset="1" stop-color="#25CA71" stop-opacity="0"/>
</linearGradient>
<linearGradient id="paint3_linear_155_1189" x1="62.3998" y1="125.8" x2="62.7998" y2="-58.2002" gradientUnits="userSpaceOnUse">
<stop stop-color="#25CA71"/>
<stop offset="1" stop-color="#25CA71" stop-opacity="0"/>
</linearGradient>
<linearGradient id="paint4_linear_155_1189" x1="62.7998" y1="500.8" x2="62.7998" y2="321.8" gradientUnits="userSpaceOnUse">
<stop stop-color="#25CA71"/>
<stop offset="1" stop-color="#25CA71" stop-opacity="0"/>
</linearGradient>
<linearGradient id="paint5_linear_155_1189" x1="187.8" y1="500.8" x2="187.8" y2="328.3" gradientUnits="userSpaceOnUse">
<stop stop-color="#25CA71"/>
<stop offset="1" stop-color="#25CA71" stop-opacity="0"/>
</linearGradient>
<linearGradient id="paint6_linear_155_1189" x1="312.8" y1="500.8" x2="312.8" y2="328.3" gradientUnits="userSpaceOnUse">
<stop stop-color="#25CA71"/>
<stop offset="1" stop-color="#25CA71" stop-opacity="0"/>
</linearGradient>
<linearGradient id="paint7_linear_155_1189" x1="437.8" y1="500.8" x2="437.8" y2="328.3" gradientUnits="userSpaceOnUse">
<stop stop-color="#25CA71"/>
<stop offset="1" stop-color="#25CA71" stop-opacity="0"/>
</linearGradient>
<linearGradient id="paint8_linear_155_1189" x1="62.3998" y1="375.8" x2="62.7998" y2="210.3" gradientUnits="userSpaceOnUse">
<stop stop-color="#25CA71"/>
<stop offset="1" stop-color="#25CA71" stop-opacity="0"/>
</linearGradient>
<linearGradient id="paint9_linear_155_1189" x1="187.4" y1="375.8" x2="187.8" y2="198.8" gradientUnits="userSpaceOnUse">
<stop stop-color="#25CA71"/>
<stop offset="1" stop-color="#25CA71" stop-opacity="0"/>
</linearGradient>
</defs>
</svg>
