<svg width="501" height="1259" viewBox="0 0 501 1259" fill="none" xmlns="http://www.w3.org/2000/svg">
<g opacity="0.75">
<path d="M374.8 126H375.3V125.5H374.8V126ZM250 126.5H374.8V125.5H250V126.5ZM374.3 126V250.8H375.3V126H374.3Z" fill="#25CA71" fill-opacity="0.4"/>
<path d="M499.8 250.8V251.3H500.3V250.8H499.8ZM499.8 126H500.3V125.5H499.8V126ZM499.8 250.3H375V251.3H499.8V250.3ZM375 126.5H499.8V125.5H375V126.5ZM499.3 126V250.8H500.3V126H499.3Z" fill="url(#paint0_linear_78_1982)" fill-opacity="0.4"/>
<path d="M374.8 375.804V376.304H375.3V375.804H374.8ZM374.8 251.004H375.3V250.504H374.8V251.004ZM374.8 375.304H250V376.304H374.8V375.304ZM250 251.504H374.8V250.504H250V251.504ZM374.3 251.004V375.804H375.3V251.004H374.3Z" fill="url(#paint1_linear_78_1982)" fill-opacity="0.4"/>
<path d="M124.8 126H125.3V125.5H124.8V126ZM4.57764e-05 126.5H124.8V125.5H4.57764e-05V126.5ZM124.3 126V250.8H125.3V126H124.3Z" fill="url(#paint2_linear_78_1982)" fill-opacity="0.4"/>
<path d="M124.8 0.999802H125.3V0.499802H124.8V0.999802ZM4.57764e-05 1.4998H124.8V0.499802H4.57764e-05V1.4998ZM124.3 0.999802V125.8H125.3V0.999802H124.3Z" fill="url(#paint3_linear_78_1982)" fill-opacity="0.4"/>
<path d="M4.57764e-05 376.004V375.504H-0.499954V376.004H4.57764e-05ZM124.8 376.004H125.3V375.504H124.8V376.004ZM0.500046 500.804V376.004H-0.499954V500.804H0.500046ZM4.57764e-05 376.504H124.8V375.504H4.57764e-05V376.504ZM124.3 376.004V500.804H125.3V376.004H124.3Z" fill="url(#paint4_linear_78_1982)" fill-opacity="0.4"/>
<path d="M249.8 376.004H250.3V375.504H249.8V376.004ZM125 376.504H249.8V375.504H125V376.504ZM249.3 376.004V500.804H250.3V376.004H249.3Z" fill="url(#paint5_linear_78_1982)" fill-opacity="0.4"/>
<path d="M374.8 376.004H375.3V375.504H374.8V376.004ZM250 376.504H374.8V375.504H250V376.504ZM374.3 376.004V500.804H375.3V376.004H374.3Z" fill="url(#paint6_linear_78_1982)" fill-opacity="0.4"/>
<path d="M499.8 376.004H500.3V375.504H499.8V376.004ZM375 376.504H499.8V375.504H375V376.504ZM499.3 376.004V500.804H500.3V376.004H499.3Z" fill="url(#paint7_linear_78_1982)" fill-opacity="0.4"/>
<path d="M4.57764e-05 251.004V250.504H-0.499954V251.004H4.57764e-05ZM124.8 251.004H125.3V250.504H124.8V251.004ZM0.500046 375.804V251.004H-0.499954V375.804H0.500046ZM4.57764e-05 251.504H124.8V250.504H4.57764e-05V251.504ZM124.3 251.004V375.804H125.3V251.004H124.3Z" fill="url(#paint8_linear_78_1982)" fill-opacity="0.4"/>
<path d="M249.8 251.004H250.3V250.504H249.8V251.004ZM125 251.504H249.8V250.504H125V251.504ZM249.3 251.004V375.804H250.3V251.004H249.3Z" fill="url(#paint9_linear_78_1982)" fill-opacity="0.4"/>
<path d="M125 625.504V501.004H0" stroke="url(#paint10_linear_78_1982)" stroke-opacity="0.4"/>
<path d="M125 749.504V625.004H0" stroke="url(#paint11_linear_78_1982)" stroke-opacity="0.4"/>
<path d="M125 873.504V749.004H0" stroke="url(#paint12_linear_78_1982)" stroke-opacity="0.4"/>
<path d="M125 997.504V873.004H0" stroke="url(#paint13_linear_78_1982)" stroke-opacity="0.4"/>
<path d="M125 1121.5V997.003H0" stroke="url(#paint14_linear_78_1982)" stroke-opacity="0.4"/>
<path d="M125 1245.5V1121H0" stroke="url(#paint15_linear_78_1982)" stroke-opacity="0.4"/>
<path d="M125 1259V1246H0" stroke="url(#paint16_linear_78_1982)" stroke-opacity="0.4"/>
<path d="M249.8 501.004H250.3V500.504H249.8V501.004ZM125 501.504H249.8V500.504H125V501.504ZM249.3 501.004V625.804H250.3V501.004H249.3Z" fill="url(#paint17_linear_78_1982)" fill-opacity="0.4"/>
<path d="M249.8 625.004H250.3V624.504H249.8V625.004ZM125 625.504H249.8V624.504H125V625.504ZM249.3 625.004V749.804H250.3V625.004H249.3Z" fill="url(#paint18_linear_78_1982)" fill-opacity="0.4"/>
<path d="M249.8 749.004H250.3V748.504H249.8V749.004ZM125 749.504H249.8V748.504H125V749.504ZM249.3 749.004V873.804H250.3V749.004H249.3Z" fill="url(#paint19_linear_78_1982)" fill-opacity="0.4"/>
<path d="M249.8 873.004H250.3V872.504H249.8V873.004ZM125 873.504H249.8V872.504H125V873.504ZM249.3 873.004V997.804H250.3V873.004H249.3Z" fill="url(#paint20_linear_78_1982)" fill-opacity="0.4"/>
<path d="M374.8 997.804V998.304H375.3V997.804H374.8ZM374.8 873.004H375.3V872.504H374.8V873.004ZM374.8 997.304H250V998.304H374.8V997.304ZM250 873.504H374.8V872.504H250V873.504ZM374.3 873.004V997.804H375.3V873.004H374.3Z" fill="url(#paint21_linear_78_1982)" fill-opacity="0.4"/>
<path d="M249.8 997.003H250.3V996.503H249.8V997.003ZM125 997.503H249.8V996.503H125V997.503ZM249.3 997.003V1121.8H250.3V997.003H249.3Z" fill="url(#paint22_linear_78_1982)" fill-opacity="0.4"/>
<path d="M249.8 1121H250.3V1120.5H249.8V1121ZM125 1121.5H249.8V1120.5H125V1121.5ZM249.3 1121V1245.8H250.3V1121H249.3Z" fill="url(#paint23_linear_78_1982)" fill-opacity="0.4"/>
<path d="M250 1246H250.5V1245.5H250V1246ZM125 1246.5H250V1245.5H125V1246.5ZM249.5 1246V1259H250.5V1246H249.5Z" fill="url(#paint24_linear_78_1982)" fill-opacity="0.4"/>
<path d="M374.8 501.004H375.3V500.504H374.8V501.004ZM250 501.504H374.8V500.504H250V501.504ZM374.3 501.004V625.804H375.3V501.004H374.3Z" fill="url(#paint25_linear_78_1982)" fill-opacity="0.4"/>
<path d="M374.8 625.004H375.3V624.504H374.8V625.004ZM250 625.504H374.8V624.504H250V625.504ZM374.3 625.004V749.804H375.3V625.004H374.3Z" fill="url(#paint26_linear_78_1982)" fill-opacity="0.4"/>
<path d="M374.8 749.004H375.3V748.504H374.8V749.004ZM250 749.504H374.8V748.504H250V749.504ZM374.3 749.004V873.804H375.3V749.004H374.3Z" fill="url(#paint27_linear_78_1982)" fill-opacity="0.4"/>
<path d="M499.8 625.804V626.304H500.3V625.804H499.8ZM499.8 501.004H500.3V500.504H499.8V501.004ZM499.8 625.304H375V626.304H499.8V625.304ZM375 501.504H499.8V500.504H375V501.504ZM499.3 501.004V625.804H500.3V501.004H499.3Z" fill="url(#paint28_linear_78_1982)" fill-opacity="0.4"/>
</g>
<defs>
<linearGradient id="paint0_linear_78_1982" x1="437.4" y1="250.8" x2="437.8" y2="79.8003" gradientUnits="userSpaceOnUse">
<stop stop-color="#FF630C"/>
<stop offset="1" stop-color="#FF630C" stop-opacity="0"/>
</linearGradient>
<linearGradient id="paint1_linear_78_1982" x1="312.4" y1="375.804" x2="315.8" y2="205.304" gradientUnits="userSpaceOnUse">
<stop stop-color="#25CA71"/>
<stop offset="1" stop-color="#25CA71" stop-opacity="0"/>
</linearGradient>
<linearGradient id="paint2_linear_78_1982" x1="62.4" y1="250.8" x2="62.8" y2="66.8003" gradientUnits="userSpaceOnUse">
<stop stop-color="#FF630C"/>
<stop offset="1" stop-color="#FF630C" stop-opacity="0"/>
</linearGradient>
<linearGradient id="paint3_linear_78_1982" x1="62.4" y1="125.8" x2="62.8" y2="-58.2002" gradientUnits="userSpaceOnUse">
<stop stop-color="#FF630C"/>
<stop offset="1" stop-color="#FF630C" stop-opacity="0"/>
</linearGradient>
<linearGradient id="paint4_linear_78_1982" x1="62.8" y1="500.804" x2="62.8" y2="321.804" gradientUnits="userSpaceOnUse">
<stop stop-color="#FF630C"/>
<stop offset="1" stop-color="#FF630C" stop-opacity="0"/>
</linearGradient>
<linearGradient id="paint5_linear_78_1982" x1="187.8" y1="500.804" x2="187.8" y2="328.304" gradientUnits="userSpaceOnUse">
<stop stop-color="#FF630C"/>
<stop offset="1" stop-color="#FF630C" stop-opacity="0"/>
</linearGradient>
<linearGradient id="paint6_linear_78_1982" x1="312.8" y1="500.804" x2="312.8" y2="328.304" gradientUnits="userSpaceOnUse">
<stop stop-color="#FF630C"/>
<stop offset="1" stop-color="#FF630C" stop-opacity="0"/>
</linearGradient>
<linearGradient id="paint7_linear_78_1982" x1="437.8" y1="500.804" x2="437.8" y2="328.304" gradientUnits="userSpaceOnUse">
<stop stop-color="#FF630C"/>
<stop offset="1" stop-color="#FF630C" stop-opacity="0"/>
</linearGradient>
<linearGradient id="paint8_linear_78_1982" x1="62.4" y1="375.804" x2="62.8" y2="210.304" gradientUnits="userSpaceOnUse">
<stop stop-color="#FF630C"/>
<stop offset="1" stop-color="#FF630C" stop-opacity="0"/>
</linearGradient>
<linearGradient id="paint9_linear_78_1982" x1="187.4" y1="375.804" x2="187.8" y2="198.804" gradientUnits="userSpaceOnUse">
<stop stop-color="#FF630C"/>
<stop offset="1" stop-color="#FF630C" stop-opacity="0"/>
</linearGradient>
<linearGradient id="paint10_linear_78_1982" x1="62.9006" y1="603.004" x2="62.9006" y2="456.706" gradientUnits="userSpaceOnUse">
<stop stop-color="#FF630C"/>
<stop offset="1" stop-color="#FF630C" stop-opacity="0"/>
</linearGradient>
<linearGradient id="paint11_linear_78_1982" x1="62.9006" y1="727.004" x2="62.9006" y2="580.706" gradientUnits="userSpaceOnUse">
<stop stop-color="#FF630C"/>
<stop offset="1" stop-color="#FF630C" stop-opacity="0"/>
</linearGradient>
<linearGradient id="paint12_linear_78_1982" x1="62.9006" y1="851.004" x2="62.9006" y2="704.706" gradientUnits="userSpaceOnUse">
<stop stop-color="#FF630C"/>
<stop offset="1" stop-color="#FF630C" stop-opacity="0"/>
</linearGradient>
<linearGradient id="paint13_linear_78_1982" x1="62.9006" y1="975.004" x2="62.9006" y2="828.706" gradientUnits="userSpaceOnUse">
<stop stop-color="#FF630C"/>
<stop offset="1" stop-color="#FF630C" stop-opacity="0"/>
</linearGradient>
<linearGradient id="paint14_linear_78_1982" x1="62.9006" y1="1099" x2="62.9006" y2="952.705" gradientUnits="userSpaceOnUse">
<stop stop-color="#FF630C"/>
<stop offset="1" stop-color="#FF630C" stop-opacity="0"/>
</linearGradient>
<linearGradient id="paint15_linear_78_1982" x1="62.9006" y1="1223" x2="62.9006" y2="1076.71" gradientUnits="userSpaceOnUse">
<stop stop-color="#FF630C"/>
<stop offset="1" stop-color="#FF630C" stop-opacity="0"/>
</linearGradient>
<linearGradient id="paint16_linear_78_1982" x1="62.9006" y1="1256.65" x2="62.9006" y2="1241.37" gradientUnits="userSpaceOnUse">
<stop stop-color="#FF630C"/>
<stop offset="1" stop-color="#FF630C" stop-opacity="0"/>
</linearGradient>
<linearGradient id="paint17_linear_78_1982" x1="187.8" y1="625.804" x2="187.8" y2="453.304" gradientUnits="userSpaceOnUse">
<stop stop-color="#FF630C"/>
<stop offset="1" stop-color="#FF630C" stop-opacity="0"/>
</linearGradient>
<linearGradient id="paint18_linear_78_1982" x1="187.8" y1="749.804" x2="187.8" y2="577.304" gradientUnits="userSpaceOnUse">
<stop stop-color="#FF630C"/>
<stop offset="1" stop-color="#FF630C" stop-opacity="0"/>
</linearGradient>
<linearGradient id="paint19_linear_78_1982" x1="187.8" y1="873.804" x2="187.8" y2="701.304" gradientUnits="userSpaceOnUse">
<stop stop-color="#FF630C"/>
<stop offset="1" stop-color="#FF630C" stop-opacity="0"/>
</linearGradient>
<linearGradient id="paint20_linear_78_1982" x1="187.8" y1="997.804" x2="187.8" y2="825.304" gradientUnits="userSpaceOnUse">
<stop stop-color="#FF630C"/>
<stop offset="1" stop-color="#FF630C" stop-opacity="0"/>
</linearGradient>
<linearGradient id="paint21_linear_78_1982" x1="312.8" y1="997.804" x2="312.8" y2="825.304" gradientUnits="userSpaceOnUse">
<stop stop-color="#FF630C"/>
<stop offset="1" stop-color="#FF630C" stop-opacity="0"/>
</linearGradient>
<linearGradient id="paint22_linear_78_1982" x1="187.8" y1="1121.8" x2="187.8" y2="949.303" gradientUnits="userSpaceOnUse">
<stop stop-color="#FF630C"/>
<stop offset="1" stop-color="#FF630C" stop-opacity="0"/>
</linearGradient>
<linearGradient id="paint23_linear_78_1982" x1="187.8" y1="1245.8" x2="187.8" y2="1073.3" gradientUnits="userSpaceOnUse">
<stop stop-color="#FF630C"/>
<stop offset="1" stop-color="#FF630C" stop-opacity="0"/>
</linearGradient>
<linearGradient id="paint24_linear_78_1982" x1="187.901" y1="1259" x2="187.901" y2="1241.03" gradientUnits="userSpaceOnUse">
<stop stop-color="#FF630C"/>
<stop offset="1" stop-color="#FF630C" stop-opacity="0"/>
</linearGradient>
<linearGradient id="paint25_linear_78_1982" x1="312.8" y1="625.804" x2="312.8" y2="453.304" gradientUnits="userSpaceOnUse">
<stop stop-color="#FF630C"/>
<stop offset="1" stop-color="#FF630C" stop-opacity="0"/>
</linearGradient>
<linearGradient id="paint26_linear_78_1982" x1="312.8" y1="749.804" x2="312.8" y2="577.304" gradientUnits="userSpaceOnUse">
<stop stop-color="#FF630C"/>
<stop offset="1" stop-color="#FF630C" stop-opacity="0"/>
</linearGradient>
<linearGradient id="paint27_linear_78_1982" x1="312.8" y1="873.804" x2="312.8" y2="701.304" gradientUnits="userSpaceOnUse">
<stop stop-color="#FF630C"/>
<stop offset="1" stop-color="#FF630C" stop-opacity="0"/>
</linearGradient>
<linearGradient id="paint28_linear_78_1982" x1="437.8" y1="625.804" x2="437.8" y2="453.304" gradientUnits="userSpaceOnUse">
<stop stop-color="#FF630C"/>
<stop offset="1" stop-color="#FF630C" stop-opacity="0"/>
</linearGradient>
</defs>
</svg>
