<svg width="32" height="32" viewBox="0 0 32 32" fill="none" xmlns="http://www.w3.org/2000/svg">
<path opacity="0.4" d="M24 27.3334H22.6667V27C22.6667 25.5334 21.4667 24.3334 20 24.3334H17V21.28C16.6667 21.32 16.3333 21.3334 16 21.3334C15.6667 21.3334 15.3333 21.32 15 21.28V24.3334H12C10.5333 24.3334 9.33333 25.5334 9.33333 27V27.3334H8C7.45333 27.3334 7 27.7867 7 28.3334C7 28.88 7.45333 29.3334 8 29.3334H24C24.5467 29.3334 25 28.88 25 28.3334C25 27.7867 24.5467 27.3334 24 27.3334Z" fill="white"/>
<path opacity="0.4" d="M7.36004 15.52C6.48004 15.1867 5.70671 14.64 5.09337 14.0267C3.85337 12.6534 3.04004 11.0134 3.04004 9.09335C3.04004 7.17335 4.54671 5.66669 6.46671 5.66669H7.21337C6.86671 6.37335 6.66671 7.16002 6.66671 8.00002V12C6.66671 13.2534 6.90671 14.44 7.36004 15.52Z" fill="white"/>
<path opacity="0.4" d="M28.9601 9.09335C28.9601 11.0134 28.1468 12.6534 26.9068 14.0267C26.2935 14.64 25.5201 15.1867 24.6401 15.52C25.0935 14.44 25.3335 13.2534 25.3335 12V8.00002C25.3335 7.16002 25.1335 6.37335 24.7868 5.66669H25.5335C27.4535 5.66669 28.9601 7.17335 28.9601 9.09335Z" fill="white"/>
<path d="M19.9998 2.66669H11.9998C9.05317 2.66669 6.6665 5.05335 6.6665 8.00002V12C6.6665 17.16 10.8398 21.3334 15.9998 21.3334C21.1598 21.3334 25.3332 17.16 25.3332 12V8.00002C25.3332 5.05335 22.9465 2.66669 19.9998 2.66669ZM19.7865 11.2667L18.9598 12.28C18.8265 12.4267 18.7332 12.72 18.7465 12.92L18.8265 14.2267C18.8798 15.0267 18.3065 15.44 17.5598 15.1467L16.3465 14.6667C16.1598 14.6 15.8398 14.6 15.6532 14.6667L14.4398 15.1467C13.6932 15.44 13.1198 15.0267 13.1732 14.2267L13.2532 12.92C13.2665 12.72 13.1732 12.4267 13.0398 12.28L12.2132 11.2667C11.6932 10.6534 11.9198 9.97335 12.6932 9.77335L13.9598 9.45335C14.1598 9.40002 14.3998 9.21335 14.5065 9.04002L15.2132 7.94669C15.6532 7.26669 16.3465 7.26669 16.7865 7.94669L17.4932 9.04002C17.5998 9.21335 17.8398 9.40002 18.0398 9.45335L19.3065 9.77335C20.0798 9.97335 20.3065 10.6534 19.7865 11.2667Z" fill="white"/>
<path opacity="0.4" d="M19.7867 11.2666L18.96 12.28C18.8267 12.4266 18.7333 12.72 18.7467 12.92L18.8267 14.2266C18.88 15.0266 18.3067 15.44 17.56 15.1466L16.3467 14.6666C16.16 14.6 15.84 14.6 15.6533 14.6666L14.44 15.1466C13.6933 15.44 13.12 15.0266 13.1733 14.2266L13.2533 12.92C13.2667 12.72 13.1733 12.4266 13.04 12.28L12.2133 11.2666C11.6933 10.6533 11.92 9.97331 12.6933 9.77331L13.96 9.45331C14.16 9.39998 14.4 9.21331 14.5067 9.03998L15.2133 7.94665C15.6533 7.26665 16.3467 7.26665 16.7867 7.94665L17.4933 9.03998C17.6 9.21331 17.84 9.39998 18.04 9.45331L19.3067 9.77331C20.08 9.97331 20.3067 10.6533 19.7867 11.2666Z" fill="white"/>
</svg>
