<svg width="56" height="56" viewBox="0 0 56 56" fill="none" xmlns="http://www.w3.org/2000/svg">
<circle cx="28" cy="28" r="28" fill="#FF630C"/>
<path opacity="0.55" d="M32.6401 16H22.0267C17.4267 16 14.6667 18.7467 14.6667 23.36V33.96C14.6667 38.5867 17.4267 41.3333 22.0267 41.3333H32.6267C37.2401 41.3333 39.9867 38.5867 39.9867 33.9733V23.36C40.0001 18.7467 37.2401 16 32.6401 16Z" fill="white"/>
<path d="M40.0267 15.9733C37.64 13.5733 35.3067 13.52 32.8534 15.9733L31.3467 17.4667C31.2134 17.6 31.1734 17.7867 31.2267 17.96C32.16 21.2267 34.7734 23.84 38.04 24.7733C38.08 24.7867 38.1467 24.7867 38.1867 24.7867C38.32 24.7867 38.4534 24.7333 38.5467 24.64L40.0267 23.1467C41.24 21.9333 41.84 20.7733 41.84 19.5867C41.84 18.3867 41.24 17.2 40.0267 15.9733Z" fill="white"/>
<path d="M35.8134 25.8933C35.4534 25.72 35.1067 25.5467 34.7867 25.3467C34.5201 25.1867 34.2534 25.0133 34.0001 24.8267C33.7867 24.6933 33.5467 24.4933 33.3067 24.2933C33.2801 24.28 33.2001 24.2133 33.0934 24.1067C32.6801 23.7733 32.2401 23.32 31.8267 22.8267C31.8001 22.8 31.7201 22.72 31.6534 22.6C31.5201 22.4533 31.3201 22.2 31.1467 21.92C31.0001 21.7333 30.8267 21.4667 30.6667 21.1867C30.4667 20.8533 30.2934 20.52 30.1334 20.1733C29.9601 19.8 29.8267 19.4533 29.7067 19.12L22.5334 26.2933C22.0667 26.76 21.6134 27.64 21.5201 28.2933L20.9467 32.2667C20.8267 33.1067 21.0534 33.8933 21.5734 34.4133C22.0134 34.8533 22.6134 35.08 23.2801 35.08C23.4267 35.08 23.5734 35.0667 23.7201 35.0533L27.6801 34.4933C28.3334 34.4 29.2134 33.96 29.6801 33.48L36.8534 26.3067C36.5201 26.2 36.1867 26.0533 35.8134 25.8933Z" fill="white"/>
</svg>
