<svg width="56" height="56" viewBox="0 0 56 56" fill="none" xmlns="http://www.w3.org/2000/svg">
<circle cx="28" cy="28" r="28" fill="#29CB73"/>
<path opacity="0.55" d="M32.6398 16H22.0265C17.4265 16 14.6665 18.7467 14.6665 23.36V33.96C14.6665 38.5867 17.4265 41.3333 22.0265 41.3333H32.6265C37.2398 41.3333 39.9865 38.5867 39.9865 33.9733V23.36C39.9998 18.7467 37.2398 16 32.6398 16Z" fill="white"/>
<path d="M40.0265 15.9733C37.6398 13.5733 35.3065 13.52 32.8531 15.9733L31.3465 17.4667C31.2131 17.6 31.1731 17.7867 31.2265 17.96C32.1598 21.2267 34.7731 23.84 38.0398 24.7733C38.0798 24.7867 38.1465 24.7867 38.1865 24.7867C38.3198 24.7867 38.4531 24.7333 38.5465 24.64L40.0265 23.1467C41.2398 21.9333 41.8398 20.7733 41.8398 19.5867C41.8398 18.3867 41.2398 17.2 40.0265 15.9733Z" fill="white"/>
<path d="M35.8131 25.8933C35.4531 25.72 35.1065 25.5467 34.7865 25.3467C34.5198 25.1867 34.2531 25.0133 33.9998 24.8267C33.7865 24.6933 33.5465 24.4933 33.3065 24.2933C33.2798 24.28 33.1998 24.2133 33.0931 24.1067C32.6798 23.7733 32.2398 23.32 31.8265 22.8267C31.7998 22.8 31.7198 22.72 31.6531 22.6C31.5198 22.4533 31.3198 22.2 31.1465 21.92C30.9998 21.7333 30.8265 21.4667 30.6665 21.1867C30.4665 20.8533 30.2931 20.52 30.1331 20.1733C29.9598 19.8 29.8265 19.4533 29.7065 19.12L22.5331 26.2933C22.0665 26.76 21.6131 27.64 21.5198 28.2933L20.9465 32.2667C20.8265 33.1067 21.0531 33.8933 21.5731 34.4133C22.0131 34.8533 22.6131 35.08 23.2798 35.08C23.4265 35.08 23.5731 35.0667 23.7198 35.0533L27.6798 34.4933C28.3331 34.4 29.2131 33.96 29.6798 33.48L36.8531 26.3067C36.5198 26.2 36.1865 26.0533 35.8131 25.8933Z" fill="white"/>
</svg>
