<svg width="56" height="56" viewBox="0 0 56 56" fill="none" xmlns="http://www.w3.org/2000/svg">
<circle cx="28" cy="28" r="28" fill="#29CB73"/>
<g clip-path="url(#clip0_130_792)">
<path d="M43.7611 27.3747C43.4755 27.0561 36.6052 19.5625 28 19.5625C19.3949 19.5625 12.5247 27.0561 12.239 27.3747C12.0851 27.5466 12 27.7693 12 28C12 28.2307 12.0851 28.4534 12.239 28.6253C12.5247 28.9439 19.395 36.4375 28 36.4375C36.605 36.4375 43.4754 28.9439 43.7611 28.6253C43.9149 28.4534 44 28.2307 44 28C44 27.7693 43.9149 27.5466 43.7611 27.3747ZM28 34.5625C24.3818 34.5625 21.4375 31.6182 21.4375 28C21.4375 24.3818 24.3818 21.4375 28 21.4375C31.6182 21.4375 34.5625 24.3818 34.5625 28C34.5625 31.6182 31.6182 34.5625 28 34.5625Z" fill="white"/>
<path d="M28.9375 26.125C28.9375 25.1819 29.4057 24.3522 30.1179 23.8419C29.4788 23.5147 28.7659 23.3125 28 23.3125C25.4154 23.3125 23.3125 25.4154 23.3125 28C23.3125 30.5846 25.4154 32.6875 28 32.6875C30.314 32.6875 32.2292 30.9979 32.6076 28.7901C30.7197 29.3979 28.9375 27.9701 28.9375 26.125Z" fill="white"/>
</g>
<defs>
<clipPath id="clip0_130_792">
<rect width="32" height="32" fill="white" transform="translate(12 12)"/>
</clipPath>
</defs>
</svg>
