<svg width="41" height="40" viewBox="0 0 41 40" fill="none" xmlns="http://www.w3.org/2000/svg">
<path opacity="0.4" d="M27.603 3.3335H13.6531C7.58639 3.3335 3.96973 6.95016 3.96973 13.0168V26.9668C3.96973 33.0335 7.58639 36.6502 13.6531 36.6502H27.603C33.6697 36.6502 37.2864 33.0335 37.2864 26.9668V13.0168C37.2864 6.95016 33.6697 3.3335 27.603 3.3335Z" fill="white"/>
<path d="M23.8198 15.4665L23.9031 20.3832L28.2864 20.3165C28.6031 20.3165 28.8364 20.5998 28.7864 20.8998L28.2031 24.0832C28.1531 24.3165 27.9531 24.4832 27.7198 24.4998L23.9698 24.5665L24.1697 36.6498L19.1697 36.7332L18.9698 24.6498L16.1364 24.6998C15.8531 24.6998 15.6364 24.4832 15.6364 24.1998L15.5864 21.0332C15.5864 20.7498 15.8031 20.5332 16.0864 20.5332L18.9198 20.4832L18.8364 15.0665C18.7864 12.2998 20.9864 10.0332 23.7531 9.98317L28.2531 9.9165C28.5364 9.9165 28.7531 10.1332 28.7531 10.4165L28.8198 14.4165C28.8198 14.6998 28.6031 14.9165 28.3197 14.9165L24.3197 14.9832C24.0364 14.9665 23.8198 15.1998 23.8198 15.4665Z" fill="white"/>
</svg>
