<svg width="32" height="32" viewBox="0 0 32 32" fill="none" xmlns="http://www.w3.org/2000/svg">
<path opacity="0.25" d="M26.6268 13.3334V24C26.6268 28 25.2935 29.3334 21.2935 29.3334H10.6268C6.62679 29.3334 5.29346 28 5.29346 24V13.3334H26.6268Z" fill="white"/>
<path d="M28.6668 9.33329V10.6666C28.6668 12.1333 27.9602 13.3333 26.0002 13.3333H6.00016C3.96016 13.3333 3.3335 12.1333 3.3335 10.6666V9.33329C3.3335 7.86663 3.96016 6.66663 6.00016 6.66663H26.0002C27.9602 6.66663 28.6668 7.86663 28.6668 9.33329Z" fill="white"/>
<path opacity="0.25" d="M15.5199 6.66671H8.15988C7.70654 6.17338 7.71988 5.41338 8.19988 4.93338L10.0932 3.04004C10.5865 2.54671 11.3999 2.54671 11.8932 3.04004L15.5199 6.66671Z" fill="white"/>
<path opacity="0.25" d="M23.8268 6.66671H16.4668L20.0935 3.04004C20.5868 2.54671 21.4001 2.54671 21.8935 3.04004L23.7868 4.93338C24.2668 5.41338 24.2801 6.17338 23.8268 6.66671Z" fill="white"/>
<path opacity="0.6" d="M11.9199 13.3334V20.1867C11.9199 21.2534 13.0933 21.88 13.9866 21.3067L15.2399 20.48C15.6933 20.1867 16.2666 20.1867 16.7066 20.48L17.8933 21.28C18.7733 21.8667 19.9599 21.24 19.9599 20.1734V13.3334H11.9199Z" fill="white"/>
</svg>
