<svg width="325" height="44" viewBox="0 0 325 44" fill="none" xmlns="http://www.w3.org/2000/svg">
<path d="M50.5033 41.524C39.6234 40.1292 31.2542 36.8745 31.7192 34.2708C32.1842 31.667 41.2972 30.7371 52.1771 32.132C58.4075 32.9689 63.894 34.3638 67.2416 35.9446V32.8759V29.6212V13.2549C62.2201 11.674 56.2687 10.7441 49.9454 10.7441C31.4402 10.7441 16.4688 18.5553 16.4688 28.1334C16.4688 31.76 18.6075 35.1077 22.2342 37.8044C27.4417 41.2451 34.4159 43.3838 42.0412 43.3838C45.9468 43.3838 49.5734 42.8259 53.0141 41.803C52.0842 41.71 51.3402 41.617 50.5033 41.524Z" fill="#FF5C00"/>
<path d="M15.9774 16.5605C19.545 12.18 20.3064 6.89369 17.6781 4.75317C15.0498 2.61265 10.0271 4.42848 6.45958 8.80895C2.89205 13.1894 2.13065 18.4757 4.75893 20.6162C7.38721 22.7568 12.4099 20.9409 15.9774 16.5605Z" fill="#FF5C00"/>
<path d="M137.965 35.1551H132.953L132.293 33.3085C129.523 35.0232 126.226 35.8146 122.532 35.8146C119.499 35.8146 116.729 35.287 114.355 34.0999C111.848 33.0447 110.002 31.4619 108.551 29.4834C107.1 27.5049 106.44 25.3944 106.44 23.0202C106.44 20.646 107.1 18.4037 108.551 16.4251C110.002 14.4466 111.98 12.9957 114.355 11.8086C116.861 10.7534 119.499 10.0939 122.532 10.0939C125.17 10.0939 127.677 10.4896 129.787 11.281C131.897 12.0724 133.744 13.1276 135.195 14.5785C136.646 16.0294 137.569 17.8761 137.965 19.8546H129.523C129.127 18.5356 128.204 17.6122 126.885 17.0846C125.566 16.557 124.115 16.1613 122.532 16.1613C121.213 16.1613 119.894 16.4251 118.839 16.9528C117.784 17.4804 116.861 18.2718 116.201 19.1951C115.542 20.2503 115.278 21.3055 115.278 22.6245C115.278 23.9435 115.542 25.1306 116.201 26.1858C116.861 27.2411 117.784 27.9006 118.839 28.4282C119.894 28.9558 121.213 29.2196 122.532 29.2196C123.851 29.2196 125.17 28.9558 126.226 28.4282C127.413 27.9006 128.336 27.2411 128.996 26.1858H122.664V21.8331H137.965V24.7349V35.1551Z" fill="#1D1D1D"/>
<path d="M146.933 20.3821C148.648 18.4035 151.418 17.3483 155.243 16.9526V22.6244H150.89C149.571 22.6244 148.516 23.152 147.989 24.2072C147.329 25.2624 147.065 26.5814 147.065 28.1642V35.155H139.547V17.3483H146.406L146.933 20.3821Z" fill="#1D1D1D"/>
<path d="M177.007 18.1398C179.513 19.195 180.701 21.0416 180.701 23.6796V35.155H173.578L173.05 32.7808V32.6489C172.523 33.5722 171.336 34.3636 169.621 34.7593C167.906 35.155 165.928 35.4188 163.817 35.4188C162.103 35.4188 160.52 35.0231 158.805 34.3636C157.09 33.5722 156.299 32.1213 156.299 29.7471C156.299 26.0539 158.673 24.2072 163.553 24.2072C166.587 24.2072 168.829 24.2072 170.017 24.0753C171.204 24.0753 171.995 23.9434 172.391 23.8115C172.787 23.6796 173.05 23.2839 173.05 22.8882V22.4925C173.05 21.833 172.523 21.3054 171.599 20.9097C170.676 20.514 169.621 20.3821 168.434 20.3821C167.247 20.3821 166.191 20.6459 165.268 21.0416C164.345 21.4373 163.949 22.0968 163.949 23.0201H156.431C156.431 21.3054 157.09 19.9864 158.409 19.0631C159.728 18.0079 161.311 17.3484 163.158 16.9527C165.004 16.557 166.719 16.425 168.566 16.425C171.731 16.557 174.633 17.0846 177.007 18.1398ZM171.863 29.6152C172.655 28.9557 173.182 28.0324 173.182 26.8453V26.4496C172.391 26.8453 171.072 26.9772 169.225 26.9772C167.379 26.9772 166.06 27.1091 165.268 27.3729C164.477 27.6367 164.081 28.1643 164.081 28.8238C164.081 29.4833 164.477 30.0109 165.136 30.2747C165.796 30.5385 166.719 30.8023 168.17 30.8023C169.753 30.6704 171.072 30.4066 171.863 29.6152Z" fill="#1D1D1D"/>
<path d="M203.783 19.3267C205.234 21.0414 206.025 23.8113 206.025 27.7684V35.1548H198.507V27.9003C198.507 26.5812 198.375 25.3941 198.243 24.4708C198.111 23.5475 197.715 22.888 197.188 22.2285C196.66 21.7009 195.737 21.3052 194.418 21.3052C193.099 21.3052 192.176 21.569 191.516 22.0966C190.857 22.6242 190.461 23.4156 190.329 24.207C190.197 25.1304 190.065 26.1855 190.065 27.6365V34.891H182.547V17.0844H190.065V19.3267C191.78 17.4801 194.286 16.5568 197.584 16.5568C200.222 16.6887 202.332 17.612 203.783 19.3267Z" fill="#1D1D1D"/>
<path d="M224.36 10.8854H231.878V35.0233H225.02L224.624 32.9129C222.777 34.7595 219.875 35.5509 215.918 35.419C214.204 35.419 212.753 35.0233 211.434 34.1C210.115 33.3086 209.06 32.1215 208.4 30.6706C207.609 29.2197 207.213 27.6368 207.213 25.7902V25.6583V25.5264C207.213 23.9436 207.609 22.4927 208.4 21.0418C209.06 19.5909 210.115 18.5357 211.434 17.6123C212.753 16.689 214.204 16.2933 215.918 16.2933C219.744 16.2933 222.513 17.0847 224.36 18.7995V10.8854ZM222.118 30.4068C222.777 30.0111 223.437 29.3515 223.832 28.5601C224.228 27.7687 224.492 26.9773 224.492 26.1859V26.054C224.492 24.4712 224.096 23.2841 223.173 22.3608C222.25 21.4375 221.194 21.0418 219.875 21.0418C218.293 21.0418 217.105 21.5694 216.314 22.4927C215.523 23.416 214.995 24.6031 214.995 25.9221C214.995 27.373 215.391 28.692 216.314 29.6154C217.105 30.5387 218.293 31.0663 219.875 31.0663C220.535 31.0663 221.326 30.8025 222.118 30.4068Z" fill="#1D1D1D"/>
<path d="M258.127 26.9772H240.716C240.848 28.2962 241.375 29.4833 242.299 30.4066C243.222 31.3299 244.409 31.7256 245.86 31.7256C247.047 31.7256 248.234 31.4618 249.157 30.8023C250.081 30.1428 250.608 29.2195 250.608 28.0324H258.127C258.127 30.5385 257.072 32.517 254.829 33.836C252.719 35.155 249.685 35.8145 245.728 35.8145C243.354 35.8145 241.243 35.4188 239.265 34.6274C237.286 33.836 235.835 32.6489 234.648 31.198C233.461 29.7471 232.934 28.0324 232.934 26.1858C232.934 24.2072 233.461 22.6244 234.648 21.0416C235.835 19.4588 237.286 18.4036 239.265 17.6122C241.243 16.8208 243.354 16.425 245.728 16.425C248.234 16.425 250.345 16.8208 252.191 17.6122C254.038 18.4036 255.489 19.4588 256.544 20.9097C257.599 22.3606 258.127 24.0753 258.127 25.9219V26.0538V26.9772ZM242.562 21.3054C241.771 21.9649 241.243 22.7563 240.98 23.8115H250.476C250.213 22.7563 249.817 21.833 249.026 21.3054C248.366 20.6459 247.311 20.3821 245.86 20.3821C244.409 20.3821 243.354 20.7778 242.562 21.3054Z" fill="#1D1D1D"/>
<path d="M94.4373 18.4036C96.2839 19.195 97.8667 20.3821 98.9219 21.833C99.9771 23.284 100.505 24.9987 100.505 26.8453C100.505 28.6919 99.9771 30.2747 98.9219 31.7256C97.8667 33.1766 96.4158 34.3637 94.4373 35.1551C92.5907 35.9465 90.4803 36.3422 88.106 36.3422C85.8637 36.3422 83.7533 35.9465 81.7748 35.0232C79.7962 34.0999 78.2134 33.0446 77.0263 31.5937C75.8392 30.1428 75.1797 28.4281 75.1797 26.7134C75.1797 24.8668 75.8392 23.284 77.0263 21.833C78.2134 20.3821 79.7962 19.195 81.7748 18.4036C83.7533 17.6122 85.8637 17.0846 88.2379 17.0846C90.4803 17.2165 92.5907 17.6122 94.4373 18.4036ZM90.4802 31.198C91.2717 30.8023 91.7992 30.2747 92.3269 29.4833C92.7226 28.6919 92.9864 27.7686 92.9864 26.8453C92.9864 25.7901 92.7226 24.8668 92.3269 24.2073C91.9311 23.4159 91.2717 22.8883 90.4802 22.4926C89.6888 22.0969 88.8974 21.9649 88.106 21.9649C87.3146 21.9649 86.3913 22.0969 85.5999 22.4926C84.8085 22.8883 84.149 23.4159 83.6214 24.2073C83.0938 24.9987 82.83 25.7901 82.83 26.8453C82.83 27.9005 83.0938 28.8238 83.6214 29.4833C84.149 30.2747 84.8085 30.8023 85.5999 31.198C86.3913 31.5937 87.3146 31.7256 88.106 31.7256C88.8974 31.8575 89.8207 31.5937 90.4802 31.198Z" fill="#1D1D1D"/>
<path d="M266.04 37.6615L268.81 36.0787V20.9101H272.239V38.321L265.908 41.6186V37.6615H266.04ZM270.525 14.1831C271.844 14.1831 272.767 15.1064 272.767 16.4254C272.767 17.7444 271.712 18.6677 270.525 18.6677C269.206 18.6677 268.282 17.7444 268.282 16.4254C268.282 15.1064 269.338 14.1831 270.525 14.1831Z" fill="#FF5C00"/>
<path d="M275.009 28.0325C275.009 23.6797 278.306 20.646 282.659 20.646C287.012 20.646 290.309 23.6797 290.309 28.0325C290.309 32.3852 287.012 35.419 282.659 35.419C278.306 35.419 275.009 32.3852 275.009 28.0325ZM282.659 32.2533C285.033 32.2533 286.88 30.5386 286.88 28.0325C286.88 25.6583 285.033 23.8116 282.659 23.8116C280.285 23.8116 278.438 25.6583 278.438 28.0325C278.438 30.4067 280.285 32.2533 282.659 32.2533Z" fill="#FF5C00"/>
<path d="M303.5 34.7595V33.4405C302.708 34.4957 300.994 35.2871 299.015 35.2871C295.19 35.2871 292.024 32.5172 292.024 28.0325C292.024 23.5479 295.19 20.778 299.015 20.778C300.994 20.778 302.708 21.7013 303.5 22.7565V21.0418H306.929V34.6276C306.929 38.4527 304.423 41.8822 299.411 41.8822C295.981 41.8822 293.475 39.9036 292.552 37.5294L295.454 35.9466C296.113 37.5294 297.564 38.4527 299.411 38.4527C302.181 38.4527 303.5 36.738 303.5 34.7595ZM299.543 31.9896C301.917 31.9896 303.5 30.1429 303.5 27.9006C303.5 25.5264 301.917 23.8117 299.543 23.8117C297.169 23.8117 295.586 25.5264 295.586 27.9006C295.586 30.2748 297.169 31.9896 299.543 31.9896Z" fill="#FF5C00"/>
<path d="M309.699 28.0325C309.699 23.6797 312.997 20.646 317.35 20.646C321.702 20.646 325 23.6797 325 28.0325C325 32.3852 321.702 35.419 317.35 35.419C312.997 35.419 309.699 32.3852 309.699 28.0325ZM317.35 32.2533C319.724 32.2533 321.57 30.5386 321.57 28.0325C321.57 25.6583 319.724 23.8116 317.35 23.8116C314.975 23.8116 313.129 25.6583 313.129 28.0325C313.129 30.4067 314.975 32.2533 317.35 32.2533Z" fill="#FF5C00"/>
</svg>
