<svg width="356" height="358" viewBox="0 0 356 358" fill="none" xmlns="http://www.w3.org/2000/svg">
<path d="M178 0C178.086 29.6595 219.991 35.6845 228.43 7.25076C220.157 35.7331 258.667 53.3202 274.775 28.4156C258.812 53.4133 290.808 81.1376 313.279 61.7799C290.92 81.2678 313.809 116.883 340.824 104.641C313.881 117.04 325.808 157.661 355.178 153.526C325.833 157.832 325.833 200.168 355.178 204.474C325.808 200.339 313.881 240.96 340.824 253.359C313.809 241.117 290.92 276.732 313.279 296.22C290.808 276.862 258.812 304.587 274.775 329.584C258.667 304.68 220.157 322.267 228.43 350.749C219.991 322.315 178.086 328.341 178 358C177.914 328.341 136.009 322.315 127.57 350.749C135.843 322.267 97.3329 304.68 81.2253 329.584C97.188 304.587 65.1923 276.862 42.7208 296.22C65.0795 276.732 42.1908 241.117 15.1759 253.359C42.1193 240.96 30.1918 200.339 0.82196 204.474C30.1673 200.168 30.1673 157.832 0.82196 153.526C30.1918 157.661 42.1193 117.04 15.1759 104.641C42.1908 116.883 65.0795 81.2678 42.7208 61.7799C65.1923 81.1377 97.188 53.4133 81.2253 28.4156C97.3329 53.3202 135.843 35.7331 127.57 7.25076C136.009 35.6845 177.914 29.6595 178 0Z" fill="#FF5C00"/>
</svg>
