<svg width="376" height="380" viewBox="0 0 376 380" fill="none" xmlns="http://www.w3.org/2000/svg">
<mask id="mask0_206_1925" style="mask-type:alpha" maskUnits="userSpaceOnUse" x="-40" y="0" width="416" height="380">
<rect x="-40" width="416" height="380" fill="#D9D9D9"/>
</mask>
<g mask="url(#mask0_206_1925)">
<path d="M-91.4169 686.579C64.0667 558.888 163.628 425.961 130.898 389.893C98.3528 353.711 -53.8963 428.007 -209.38 555.698C-298.967 629.236 -369.959 704.718 -407.791 762.064L-437.983 713.678L-469.782 662.716L-629.122 407.356C-565.693 333.27 -481.808 261.246 -382.828 199.485C-93.7991 19.1376 216.056 -5.75879 309.501 143.999C344.515 200.112 344.071 272.726 314.751 351.089C266.746 456.448 179.047 557.18 60.1976 631.339C-0.146974 668.993 -63.0126 696.461 -125.457 713.954C-114.118 705.09 -102.894 696.041 -91.4169 686.579Z" fill="#84CEF8"/>
</g>
</svg>
