<svg width="192" height="261" viewBox="0 0 192 261" fill="none" xmlns="http://www.w3.org/2000/svg">
<mask id="mask0_239_2483" style="mask-type:alpha" maskUnits="userSpaceOnUse" x="-40" y="0" width="232" height="261">
<path d="M-33 0.5L191.038 50V260.095H-39.6094L-33 0.5Z" fill="#D9D9D9"/>
</mask>
<g mask="url(#mask0_239_2483)">
<path d="M-68.117 429.596C18.0894 358.998 73.29 285.505 55.1435 265.564C37.099 245.56 -47.3141 286.637 -133.521 357.235C-183.191 397.892 -222.553 439.625 -243.528 471.331L-260.268 444.579L-277.898 416.403L-366.243 275.219C-331.075 234.259 -196.378 111.147 -141.5 77C18.7495 -22.7105 109.415 39.5 154.168 129.614C170.749 163 173.335 200.785 157.079 244.11C130.463 302.361 81.8392 358.054 15.9442 399.055C-17.5133 419.873 -52.3686 435.06 -86.9904 444.731C-80.7036 439.83 -74.4805 434.828 -68.117 429.596Z" fill="#84CEF8"/>
</g>
<path d="M16.7986 126.042C16.7986 126.573 16.6767 127.061 16.4329 127.505C16.189 127.941 15.8146 128.293 15.3095 128.563C14.8044 128.833 14.1773 128.968 13.4284 128.968H12.0437V132.26H9.80991V123.09H13.4284C14.1599 123.09 14.7782 123.216 15.2833 123.469C15.7884 123.721 16.1673 124.07 16.4198 124.514C16.6724 124.958 16.7986 125.467 16.7986 126.042ZM13.2586 127.192C13.6853 127.192 14.0032 127.092 14.2122 126.891C14.4212 126.691 14.5257 126.408 14.5257 126.042C14.5257 125.676 14.4212 125.393 14.2122 125.193C14.0032 124.993 13.6853 124.893 13.2586 124.893H12.0437V127.192H13.2586ZM16.9949 128.603C16.9949 127.854 17.1342 127.196 17.4129 126.63C17.7003 126.064 18.0878 125.629 18.5755 125.324C19.0632 125.019 19.6075 124.867 20.2084 124.867C20.7222 124.867 21.1707 124.971 21.5539 125.18C21.9458 125.389 22.2463 125.663 22.4553 126.003V124.971H24.689V132.26H22.4553V131.228C22.2375 131.568 21.9327 131.842 21.5408 132.051C21.1577 132.26 20.7092 132.365 20.1954 132.365C19.6032 132.365 19.0632 132.212 18.5755 131.908C18.0878 131.594 17.7003 131.154 17.4129 130.588C17.1342 130.013 16.9949 129.352 16.9949 128.603ZM22.4553 128.616C22.4553 128.058 22.2985 127.619 21.985 127.296C21.6802 126.974 21.3057 126.813 20.8616 126.813C20.4174 126.813 20.0386 126.974 19.7251 127.296C19.4203 127.61 19.2679 128.045 19.2679 128.603C19.2679 129.16 19.4203 129.604 19.7251 129.935C20.0386 130.257 20.4174 130.418 20.8616 130.418C21.3057 130.418 21.6802 130.257 21.985 129.935C22.2985 129.613 22.4553 129.173 22.4553 128.616ZM28.0164 126.186C28.2776 125.785 28.6042 125.472 28.9961 125.245C29.388 125.01 29.8234 124.893 30.3024 124.893V127.257H29.6884C29.1311 127.257 28.713 127.379 28.4344 127.623C28.1557 127.858 28.0164 128.276 28.0164 128.877V132.26H25.7826V124.971H28.0164V126.186ZM30.4034 128.603C30.4034 127.854 30.5428 127.196 30.8214 126.63C31.1088 126.064 31.4964 125.629 31.9841 125.324C32.4717 125.019 33.016 124.867 33.6169 124.867C34.1308 124.867 34.5792 124.971 34.9624 125.18C35.3543 125.389 35.6548 125.663 35.8638 126.003V124.971H38.0976V132.26H35.8638V131.228C35.6461 131.568 35.3413 131.842 34.9494 132.051C34.5662 132.26 34.1177 132.365 33.6039 132.365C33.0117 132.365 32.4717 132.212 31.9841 131.908C31.4964 131.594 31.1088 131.154 30.8214 130.588C30.5428 130.013 30.4034 129.352 30.4034 128.603ZM35.8638 128.616C35.8638 128.058 35.707 127.619 35.3935 127.296C35.0887 126.974 34.7142 126.813 34.2701 126.813C33.8259 126.813 33.4471 126.974 33.1336 127.296C32.8288 127.61 32.6764 128.045 32.6764 128.603C32.6764 129.16 32.8288 129.604 33.1336 129.935C33.4471 130.257 33.8259 130.418 34.2701 130.418C34.7142 130.418 35.0887 130.257 35.3935 129.935C35.707 129.613 35.8638 129.173 35.8638 128.616ZM45.4994 130.366V132.26H44.3629C43.553 132.26 42.9216 132.064 42.4688 131.672C42.0159 131.272 41.7895 130.623 41.7895 129.726V126.826H40.9012V124.971H41.7895V123.194H44.0233V124.971H45.4864V126.826H44.0233V129.752C44.0233 129.97 44.0756 130.127 44.1801 130.222C44.2846 130.318 44.4587 130.366 44.7026 130.366H45.4994ZM53.0923 128.498C53.0923 128.707 53.0793 128.925 53.0531 129.151H47.9977C48.0326 129.604 48.1763 129.952 48.4288 130.196C48.6901 130.431 49.0079 130.549 49.3824 130.549C49.9398 130.549 50.3273 130.314 50.545 129.844H52.9225C52.8006 130.323 52.5785 130.754 52.2563 131.137C51.9428 131.52 51.5465 131.82 51.0676 132.038C50.5886 132.256 50.053 132.365 49.4608 132.365C48.7467 132.365 48.111 132.212 47.5536 131.908C46.9962 131.603 46.5608 131.167 46.2473 130.601C45.9338 130.035 45.777 129.373 45.777 128.616C45.777 127.858 45.9294 127.196 46.2342 126.63C46.5477 126.064 46.9832 125.629 47.5405 125.324C48.0979 125.019 48.738 124.867 49.4608 124.867C50.1662 124.867 50.7932 125.015 51.3419 125.311C51.8905 125.607 52.3173 126.029 52.6221 126.578C52.9356 127.126 53.0923 127.767 53.0923 128.498ZM50.8063 127.91C50.8063 127.527 50.6757 127.222 50.4144 126.996C50.1531 126.769 49.8266 126.656 49.4347 126.656C49.0602 126.656 48.7423 126.765 48.4811 126.983C48.2285 127.2 48.0718 127.51 48.0108 127.91H50.8063ZM55.982 126.186C56.2433 125.785 56.5699 125.472 56.9618 125.245C57.3536 125.01 57.7891 124.893 58.2681 124.893V127.257H57.6541C57.0967 127.257 56.6787 127.379 56.4 127.623C56.1214 127.858 55.982 128.276 55.982 128.877V132.26H53.7482V124.971H55.982V126.186ZM60.6148 128.603C60.6148 127.854 60.7542 127.196 61.0328 126.63C61.3202 126.064 61.7078 125.629 62.1955 125.324C62.6831 125.019 63.2274 124.867 63.8283 124.867C64.3421 124.867 64.7906 124.971 65.1738 125.18C65.5657 125.389 65.8662 125.663 66.0752 126.003V124.971H68.309V132.26H66.0752V131.228C65.8575 131.568 65.5527 131.842 65.1608 132.051C64.7776 132.26 64.3291 132.365 63.8153 132.365C63.2231 132.365 62.6831 132.212 62.1955 131.908C61.7078 131.594 61.3202 131.154 61.0328 130.588C60.7542 130.013 60.6148 129.352 60.6148 128.603ZM66.0752 128.616C66.0752 128.058 65.9184 127.619 65.6049 127.296C65.3001 126.974 64.9256 126.813 64.4815 126.813C64.0373 126.813 63.6585 126.974 63.345 127.296C63.0402 127.61 62.8878 128.045 62.8878 128.603C62.8878 129.16 63.0402 129.604 63.345 129.935C63.6585 130.257 64.0373 130.418 64.4815 130.418C64.9256 130.418 65.3001 130.257 65.6049 129.935C65.9184 129.613 66.0752 129.173 66.0752 128.616ZM71.2041 128.616C71.2041 127.858 71.3565 127.196 71.6613 126.63C71.9748 126.064 72.4059 125.629 72.9545 125.324C73.5119 125.019 74.1476 124.867 74.8617 124.867C75.7761 124.867 76.5382 125.106 77.1478 125.585C77.7661 126.064 78.171 126.739 78.3626 127.61H75.9852C75.7849 127.052 75.3973 126.774 74.8225 126.774C74.4132 126.774 74.0867 126.935 73.8428 127.257C73.599 127.571 73.477 128.023 73.477 128.616C73.477 129.208 73.599 129.665 73.8428 129.987C74.0867 130.301 74.4132 130.458 74.8225 130.458C75.3973 130.458 75.7849 130.179 75.9852 129.622H78.3626C78.171 130.475 77.7661 131.146 77.1478 131.633C76.5294 132.121 75.7674 132.365 74.8617 132.365C74.1476 132.365 73.5119 132.212 72.9545 131.908C72.4059 131.603 71.9748 131.167 71.6613 130.601C71.3565 130.035 71.2041 129.373 71.2041 128.616ZM83.5156 124.893C84.3516 124.893 85.0222 125.171 85.5273 125.729C86.0324 126.277 86.285 127.035 86.285 128.002V132.26H84.0642V128.302C84.0642 127.814 83.938 127.436 83.6854 127.166C83.4329 126.896 83.0932 126.761 82.6665 126.761C82.2398 126.761 81.9001 126.896 81.6476 127.166C81.395 127.436 81.2688 127.814 81.2688 128.302V132.26H79.035V122.594H81.2688V125.951C81.4952 125.629 81.8043 125.372 82.1962 125.18C82.5881 124.988 83.0279 124.893 83.5156 124.893ZM86.8706 128.603C86.8706 127.854 87.0099 127.196 87.2886 126.63C87.576 126.064 87.9635 125.629 88.4512 125.324C88.9389 125.019 89.4832 124.867 90.0841 124.867C90.5979 124.867 91.0464 124.971 91.4296 125.18C91.8215 125.389 92.1219 125.663 92.3309 126.003V124.971H94.5647V132.26H92.3309V131.228C92.1132 131.568 91.8084 131.842 91.4165 132.051C91.0333 132.26 90.5848 132.365 90.071 132.365C89.4788 132.365 88.9389 132.212 88.4512 131.908C87.9635 131.594 87.576 131.154 87.2886 130.588C87.0099 130.013 86.8706 129.352 86.8706 128.603ZM92.3309 128.616C92.3309 128.058 92.1742 127.619 91.8607 127.296C91.5559 126.974 91.1814 126.813 90.7372 126.813C90.2931 126.813 89.9143 126.974 89.6007 127.296C89.2959 127.61 89.1435 128.045 89.1435 128.603C89.1435 129.16 89.2959 129.604 89.6007 129.935C89.9143 130.257 90.2931 130.418 90.7372 130.418C91.1814 130.418 91.5559 130.257 91.8607 129.935C92.1742 129.613 92.3309 129.173 92.3309 128.616ZM100.1 124.893C100.953 124.893 101.632 125.171 102.138 125.729C102.651 126.277 102.908 127.035 102.908 128.002V132.26H100.688V128.302C100.688 127.814 100.561 127.436 100.309 127.166C100.056 126.896 99.7165 126.761 99.2898 126.761C98.863 126.761 98.5234 126.896 98.2708 127.166C98.0183 127.436 97.892 127.814 97.892 128.302V132.26H95.6582V124.971H97.892V125.938C98.1184 125.616 98.4232 125.363 98.8064 125.18C99.1896 124.988 99.6207 124.893 100.1 124.893ZM103.494 128.616C103.494 127.858 103.646 127.196 103.951 126.63C104.265 126.064 104.696 125.629 105.244 125.324C105.802 125.019 106.437 124.867 107.151 124.867C108.066 124.867 108.828 125.106 109.438 125.585C110.056 126.064 110.461 126.739 110.652 127.61H108.275C108.075 127.052 107.687 126.774 107.112 126.774C106.703 126.774 106.376 126.935 106.133 127.257C105.889 127.571 105.767 128.023 105.767 128.616C105.767 129.208 105.889 129.665 106.133 129.987C106.376 130.301 106.703 130.458 107.112 130.458C107.687 130.458 108.075 130.179 108.275 129.622H110.652C110.461 130.475 110.056 131.146 109.438 131.633C108.819 132.121 108.057 132.365 107.151 132.365C106.437 132.365 105.802 132.212 105.244 131.908C104.696 131.603 104.265 131.167 103.951 130.601C103.646 130.035 103.494 129.373 103.494 128.616ZM118.196 128.498C118.196 128.707 118.183 128.925 118.157 129.151H113.101C113.136 129.604 113.28 129.952 113.532 130.196C113.794 130.431 114.112 130.549 114.486 130.549C115.043 130.549 115.431 130.314 115.649 129.844H118.026C117.904 130.323 117.682 130.754 117.36 131.137C117.046 131.52 116.65 131.82 116.171 132.038C115.692 132.256 115.157 132.365 114.564 132.365C113.85 132.365 113.215 132.212 112.657 131.908C112.1 131.603 111.664 131.167 111.351 130.601C111.037 130.035 110.881 129.373 110.881 128.616C110.881 127.858 111.033 127.196 111.338 126.63C111.651 126.064 112.087 125.629 112.644 125.324C113.201 125.019 113.842 124.867 114.564 124.867C115.27 124.867 115.897 125.015 116.445 125.311C116.994 125.607 117.421 126.029 117.726 126.578C118.039 127.126 118.196 127.767 118.196 128.498ZM115.91 127.91C115.91 127.527 115.779 127.222 115.518 126.996C115.257 126.769 114.93 126.656 114.538 126.656C114.164 126.656 113.846 126.765 113.585 126.983C113.332 127.2 113.175 127.51 113.114 127.91H115.91ZM120.653 128.603C120.653 127.854 120.793 127.196 121.071 126.63C121.359 126.064 121.746 125.629 122.234 125.324C122.722 125.019 123.266 124.867 123.867 124.867C124.346 124.867 124.781 124.967 125.173 125.167C125.574 125.367 125.887 125.637 126.114 125.977V122.594H128.348V132.26H126.114V131.215C125.905 131.564 125.604 131.842 125.212 132.051C124.829 132.26 124.381 132.365 123.867 132.365C123.266 132.365 122.722 132.212 122.234 131.908C121.746 131.594 121.359 131.154 121.071 130.588C120.793 130.013 120.653 129.352 120.653 128.603ZM126.114 128.616C126.114 128.058 125.957 127.619 125.643 127.296C125.339 126.974 124.964 126.813 124.52 126.813C124.076 126.813 123.697 126.974 123.384 127.296C123.079 127.61 122.926 128.045 122.926 128.603C122.926 129.16 123.079 129.604 123.384 129.935C123.697 130.257 124.076 130.418 124.52 130.418C124.964 130.418 125.339 130.257 125.643 129.935C125.957 129.613 126.114 129.173 126.114 128.616ZM136.312 128.498C136.312 128.707 136.299 128.925 136.273 129.151H131.218C131.252 129.604 131.396 129.952 131.649 130.196C131.91 130.431 132.228 130.549 132.602 130.549C133.16 130.549 133.547 130.314 133.765 129.844H136.142C136.02 130.323 135.798 130.754 135.476 131.137C135.163 131.52 134.766 131.82 134.287 132.038C133.808 132.256 133.273 132.365 132.681 132.365C131.967 132.365 131.331 132.212 130.773 131.908C130.216 131.603 129.781 131.167 129.467 130.601C129.154 130.035 128.997 129.373 128.997 128.616C128.997 127.858 129.149 127.196 129.454 126.63C129.768 126.064 130.203 125.629 130.76 125.324C131.318 125.019 131.958 124.867 132.681 124.867C133.386 124.867 134.013 125.015 134.562 125.311C135.11 125.607 135.537 126.029 135.842 126.578C136.155 127.126 136.312 127.767 136.312 128.498ZM134.026 127.91C134.026 127.527 133.896 127.222 133.634 126.996C133.373 126.769 133.046 126.656 132.655 126.656C132.28 126.656 131.962 126.765 131.701 126.983C131.448 127.2 131.292 127.51 131.231 127.91H134.026ZM12.0437 142.003C12.2614 141.663 12.5619 141.389 12.945 141.18C13.3282 140.971 13.7767 140.867 14.2905 140.867C14.8914 140.867 15.4357 141.019 15.9234 141.324C16.4111 141.629 16.7943 142.064 17.073 142.63C17.3604 143.196 17.5041 143.854 17.5041 144.603C17.5041 145.352 17.3604 146.013 17.073 146.588C16.7943 147.154 16.4111 147.594 15.9234 147.908C15.4357 148.212 14.8914 148.365 14.2905 148.365C13.7854 148.365 13.3369 148.26 12.945 148.051C12.5619 147.842 12.2614 147.572 12.0437 147.241V151.735H9.80991V140.971H12.0437V142.003ZM15.2311 144.603C15.2311 144.045 15.0743 143.61 14.7608 143.296C14.456 142.974 14.0772 142.813 13.6243 142.813C13.1802 142.813 12.8014 142.974 12.4878 143.296C12.183 143.619 12.0306 144.058 12.0306 144.616C12.0306 145.173 12.183 145.613 12.4878 145.935C12.8014 146.257 13.1802 146.418 13.6243 146.418C14.0685 146.418 14.4473 146.257 14.7608 145.935C15.0743 145.604 15.2311 145.16 15.2311 144.603ZM17.7093 144.603C17.7093 143.854 17.8486 143.196 18.1273 142.63C18.4147 142.064 18.8022 141.629 19.2899 141.324C19.7776 141.019 20.3219 140.867 20.9228 140.867C21.4366 140.867 21.8851 140.971 22.2683 141.18C22.6602 141.389 22.9606 141.663 23.1696 142.003V140.971H25.4034V148.26H23.1696V147.228C22.9519 147.568 22.6471 147.842 22.2552 148.051C21.8721 148.26 21.4236 148.365 20.9097 148.365C20.3175 148.365 19.7776 148.212 19.2899 147.908C18.8022 147.594 18.4147 147.154 18.1273 146.588C17.8486 146.013 17.7093 145.352 17.7093 144.603ZM23.1696 144.616C23.1696 144.058 23.0129 143.619 22.6994 143.296C22.3946 142.974 22.0201 142.813 21.576 142.813C21.1318 142.813 20.753 142.974 20.4395 143.296C20.1347 143.61 19.9823 144.045 19.9823 144.603C19.9823 145.16 20.1347 145.604 20.4395 145.935C20.753 146.257 21.1318 146.418 21.576 146.418C22.0201 146.418 22.3946 146.257 22.6994 145.935C23.0129 145.613 23.1696 145.173 23.1696 144.616ZM28.7307 142.186C28.992 141.785 29.3186 141.472 29.7105 141.245C30.1024 141.01 30.5378 140.893 31.0168 140.893V143.257H30.4028C29.8455 143.257 29.4274 143.379 29.1488 143.623C28.8701 143.858 28.7307 144.276 28.7307 144.877V148.26H26.497V140.971H28.7307V142.186ZM35.6246 146.366V148.26H34.4881C33.6782 148.26 33.0468 148.064 32.5939 147.672C32.1411 147.272 31.9147 146.623 31.9147 145.726V142.826H31.0264V140.971H31.9147V139.194H34.1484V140.971H35.6115V142.826H34.1484V145.752C34.1484 145.97 34.2007 146.127 34.3052 146.222C34.4097 146.318 34.5839 146.366 34.8277 146.366H35.6246ZM37.4697 140.213C37.0778 140.213 36.7556 140.1 36.5031 139.874C36.2592 139.639 36.1373 139.351 36.1373 139.012C36.1373 138.663 36.2592 138.376 36.5031 138.149C36.7556 137.914 37.0778 137.797 37.4697 137.797C37.8529 137.797 38.1664 137.914 38.4103 138.149C38.6628 138.376 38.7891 138.663 38.7891 139.012C38.7891 139.351 38.6628 139.639 38.4103 139.874C38.1664 140.1 37.8529 140.213 37.4697 140.213ZM38.5801 140.971V148.26H36.3463V140.971H38.5801ZM39.2322 144.616C39.2322 143.858 39.3846 143.196 39.6894 142.63C40.0029 142.064 40.434 141.629 40.9827 141.324C41.54 141.019 42.1758 140.867 42.8899 140.867C43.8043 140.867 44.5663 141.106 45.1759 141.585C45.7942 142.064 46.1992 142.739 46.3908 143.61H44.0133C43.813 143.052 43.4255 142.774 42.8507 142.774C42.4414 142.774 42.1148 142.935 41.871 143.257C41.6271 143.571 41.5052 144.023 41.5052 144.616C41.5052 145.208 41.6271 145.665 41.871 145.987C42.1148 146.301 42.4414 146.458 42.8507 146.458C43.4255 146.458 43.813 146.179 44.0133 145.622H46.3908C46.1992 146.475 45.7942 147.146 45.1759 147.633C44.5576 148.121 43.7956 148.365 42.8899 148.365C42.1758 148.365 41.54 148.212 40.9827 147.908C40.434 147.603 40.0029 147.167 39.6894 146.601C39.3846 146.035 39.2322 145.373 39.2322 144.616ZM48.1865 140.213C47.7946 140.213 47.4724 140.1 47.2199 139.874C46.976 139.639 46.8541 139.351 46.8541 139.012C46.8541 138.663 46.976 138.376 47.2199 138.149C47.4724 137.914 47.7946 137.797 48.1865 137.797C48.5697 137.797 48.8832 137.914 49.1271 138.149C49.3796 138.376 49.5059 138.663 49.5059 139.012C49.5059 139.351 49.3796 139.639 49.1271 139.874C48.8832 140.1 48.5697 140.213 48.1865 140.213ZM49.2969 140.971V148.26H47.0631V140.971H49.2969ZM52.627 142.003C52.8447 141.663 53.1451 141.389 53.5283 141.18C53.9115 140.971 54.36 140.867 54.8738 140.867C55.4747 140.867 56.019 141.019 56.5067 141.324C56.9944 141.629 57.3776 142.064 57.6562 142.63C57.9436 143.196 58.0873 143.854 58.0873 144.603C58.0873 145.352 57.9436 146.013 57.6562 146.588C57.3776 147.154 56.9944 147.594 56.5067 147.908C56.019 148.212 55.4747 148.365 54.8738 148.365C54.3687 148.365 53.9202 148.26 53.5283 148.051C53.1451 147.842 52.8447 147.572 52.627 147.241V151.735H50.3932V140.971H52.627V142.003ZM55.8143 144.603C55.8143 144.045 55.6576 143.61 55.3441 143.296C55.0393 142.974 54.6604 142.813 54.2076 142.813C53.7634 142.813 53.3846 142.974 53.0711 143.296C52.7663 143.619 52.6139 144.058 52.6139 144.616C52.6139 145.173 52.7663 145.613 53.0711 145.935C53.3846 146.257 53.7634 146.418 54.2076 146.418C54.6517 146.418 55.0306 146.257 55.3441 145.935C55.6576 145.604 55.8143 145.16 55.8143 144.603ZM58.2926 144.603C58.2926 143.854 58.4319 143.196 58.7106 142.63C58.998 142.064 59.3855 141.629 59.8732 141.324C60.3609 141.019 60.9052 140.867 61.5061 140.867C62.0199 140.867 62.4684 140.971 62.8516 141.18C63.2435 141.389 63.5439 141.663 63.7529 142.003V140.971H65.9867V148.26H63.7529V147.228C63.5352 147.568 63.2304 147.842 62.8385 148.051C62.4553 148.26 62.0068 148.365 61.493 148.365C60.9008 148.365 60.3609 148.212 59.8732 147.908C59.3855 147.594 58.998 147.154 58.7106 146.588C58.4319 146.013 58.2926 145.352 58.2926 144.603ZM63.7529 144.616C63.7529 144.058 63.5962 143.619 63.2826 143.296C62.9778 142.974 62.6034 142.813 62.1592 142.813C61.7151 142.813 61.3362 142.974 61.0227 143.296C60.7179 143.61 60.5655 144.045 60.5655 144.603C60.5655 145.16 60.7179 145.604 61.0227 145.935C61.3362 146.257 61.7151 146.418 62.1592 146.418C62.6034 146.418 62.9778 146.257 63.2826 145.935C63.5962 145.613 63.7529 145.173 63.7529 144.616ZM69.314 142.186C69.5753 141.785 69.9018 141.472 70.2937 141.245C70.6856 141.01 71.1211 140.893 71.6 140.893V143.257H70.9861C70.4287 143.257 70.0107 143.379 69.732 143.623C69.4533 143.858 69.314 144.276 69.314 144.877V148.26H67.0802V140.971H69.314V142.186ZM73.9468 144.603C73.9468 143.854 74.0861 143.196 74.3648 142.63C74.6522 142.064 75.0397 141.629 75.5274 141.324C76.0151 141.019 76.5594 140.867 77.1603 140.867C77.6393 140.867 78.0747 140.967 78.4666 141.167C78.8672 141.367 79.1807 141.637 79.4072 141.977V138.594H81.641V148.26H79.4072V147.215C79.1982 147.564 78.8977 147.842 78.5058 148.051C78.1226 148.26 77.6741 148.365 77.1603 148.365C76.5594 148.365 76.0151 148.212 75.5274 147.908C75.0397 147.594 74.6522 147.154 74.3648 146.588C74.0861 146.013 73.9468 145.352 73.9468 144.603ZM79.4072 144.616C79.4072 144.058 79.2504 143.619 78.9369 143.296C78.6321 142.974 78.2576 142.813 77.8135 142.813C77.3693 142.813 76.9905 142.974 76.677 143.296C76.3722 143.61 76.2198 144.045 76.2198 144.603C76.2198 145.16 76.3722 145.604 76.677 145.935C76.9905 146.257 77.3693 146.418 77.8135 146.418C78.2576 146.418 78.6321 146.257 78.9369 145.935C79.2504 145.613 79.4072 145.173 79.4072 144.616ZM86.0525 148.365C85.3384 148.365 84.6939 148.212 84.1192 147.908C83.5531 147.603 83.1046 147.167 82.7737 146.601C82.4514 146.035 82.2903 145.373 82.2903 144.616C82.2903 143.867 82.4558 143.209 82.7867 142.643C83.1177 142.068 83.5705 141.629 84.1453 141.324C84.7201 141.019 85.3645 140.867 86.0786 140.867C86.7927 140.867 87.4372 141.019 88.0119 141.324C88.5867 141.629 89.0396 142.068 89.3705 142.643C89.7014 143.209 89.8669 143.867 89.8669 144.616C89.8669 145.365 89.6971 146.026 89.3574 146.601C89.0265 147.167 88.5693 147.603 87.9858 147.908C87.411 148.212 86.7666 148.365 86.0525 148.365ZM86.0525 146.431C86.4792 146.431 86.8406 146.275 87.1367 145.961C87.4415 145.648 87.5939 145.199 87.5939 144.616C87.5939 144.032 87.4459 143.584 87.1498 143.27C86.8624 142.957 86.5053 142.8 86.0786 142.8C85.6432 142.8 85.2818 142.957 84.9944 143.27C84.707 143.575 84.5633 144.023 84.5633 144.616C84.5633 145.199 84.7026 145.648 84.9813 145.961C85.2687 146.275 85.6258 146.431 86.0525 146.431ZM98.8626 141.99C98.6971 141.685 98.4576 141.454 98.1441 141.298C97.8393 141.132 97.4779 141.049 97.0599 141.049C96.337 141.049 95.7579 141.289 95.3225 141.768C94.887 142.238 94.6693 142.87 94.6693 143.662C94.6693 144.507 94.8957 145.169 95.3486 145.648C95.8102 146.118 96.4415 146.353 97.2427 146.353C97.7914 146.353 98.2529 146.214 98.6274 145.935C99.0106 145.656 99.2893 145.256 99.4635 144.733H96.6288V143.087H101.488V145.164C101.323 145.722 101.04 146.24 100.639 146.719C100.247 147.198 99.7465 147.585 99.1369 147.881C98.5273 148.178 97.8393 148.326 97.0729 148.326C96.1672 148.326 95.3573 148.13 94.6432 147.738C93.9378 147.337 93.3848 146.784 92.9842 146.079C92.5923 145.373 92.3963 144.568 92.3963 143.662C92.3963 142.756 92.5923 141.951 92.9842 141.245C93.3848 140.531 93.9378 139.978 94.6432 139.586C95.3486 139.186 96.1541 138.985 97.0599 138.985C98.1571 138.985 99.0803 139.251 99.8292 139.782C100.587 140.314 101.088 141.049 101.331 141.99H98.8626ZM104.437 142.186C104.698 141.785 105.025 141.472 105.417 141.245C105.808 141.01 106.244 140.893 106.723 140.893V143.257H106.109C105.552 143.257 105.134 143.379 104.855 143.623C104.576 143.858 104.437 144.276 104.437 144.877V148.26H102.203V140.971H104.437V142.186ZM106.824 144.603C106.824 143.854 106.963 143.196 107.242 142.63C107.529 142.064 107.917 141.629 108.405 141.324C108.892 141.019 109.436 140.867 110.037 140.867C110.551 140.867 111 140.971 111.383 141.18C111.775 141.389 112.075 141.663 112.284 142.003V140.971H114.518V148.26H112.284V147.228C112.067 147.568 111.762 147.842 111.37 148.051C110.987 148.26 110.538 148.365 110.024 148.365C109.432 148.365 108.892 148.212 108.405 147.908C107.917 147.594 107.529 147.154 107.242 146.588C106.963 146.013 106.824 145.352 106.824 144.603ZM112.284 144.616C112.284 144.058 112.127 143.619 111.814 143.296C111.509 142.974 111.135 142.813 110.691 142.813C110.246 142.813 109.868 142.974 109.554 143.296C109.249 143.61 109.097 144.045 109.097 144.603C109.097 145.16 109.249 145.604 109.554 145.935C109.868 146.257 110.246 146.418 110.691 146.418C111.135 146.418 111.509 146.257 111.814 145.935C112.127 145.613 112.284 145.173 112.284 144.616ZM120.053 140.893C120.906 140.893 121.586 141.171 122.091 141.729C122.605 142.277 122.862 143.035 122.862 144.002V148.26H120.641V144.302C120.641 143.814 120.515 143.436 120.262 143.166C120.009 142.896 119.67 142.761 119.243 142.761C118.816 142.761 118.477 142.896 118.224 143.166C117.972 143.436 117.845 143.814 117.845 144.302V148.26H115.612V140.971H117.845V141.938C118.072 141.616 118.377 141.363 118.76 141.18C119.143 140.988 119.574 140.893 120.053 140.893ZM123.447 144.603C123.447 143.854 123.586 143.196 123.865 142.63C124.153 142.064 124.54 141.629 125.028 141.324C125.515 141.019 126.06 140.867 126.661 140.867C127.14 140.867 127.575 140.967 127.967 141.167C128.368 141.367 128.681 141.637 128.908 141.977V138.594H131.141V148.26H128.908V147.215C128.698 147.564 128.398 147.842 128.006 148.051C127.623 148.26 127.174 148.365 126.661 148.365C126.06 148.365 125.515 148.212 125.028 147.908C124.54 147.594 124.153 147.154 123.865 146.588C123.586 146.013 123.447 145.352 123.447 144.603ZM128.908 144.616C128.908 144.058 128.751 143.619 128.437 143.296C128.132 142.974 127.758 142.813 127.314 142.813C126.87 142.813 126.491 142.974 126.177 143.296C125.873 143.61 125.72 144.045 125.72 144.603C125.72 145.16 125.873 145.604 126.177 145.935C126.491 146.257 126.87 146.418 127.314 146.418C127.758 146.418 128.132 146.257 128.437 145.935C128.751 145.613 128.908 145.173 128.908 144.616ZM139.106 144.498C139.106 144.707 139.093 144.925 139.067 145.151H134.011C134.046 145.604 134.19 145.952 134.442 146.196C134.704 146.431 135.022 146.549 135.396 146.549C135.953 146.549 136.341 146.314 136.559 145.844H138.936C138.814 146.323 138.592 146.754 138.27 147.137C137.956 147.52 137.56 147.82 137.081 148.038C136.602 148.256 136.067 148.365 135.474 148.365C134.76 148.365 134.125 148.212 133.567 147.908C133.01 147.603 132.574 147.167 132.261 146.601C131.947 146.035 131.791 145.373 131.791 144.616C131.791 143.858 131.943 143.196 132.248 142.63C132.561 142.064 132.997 141.629 133.554 141.324C134.112 141.019 134.752 140.867 135.474 140.867C136.18 140.867 136.807 141.015 137.356 141.311C137.904 141.607 138.331 142.029 138.636 142.578C138.949 143.126 139.106 143.767 139.106 144.498ZM136.82 143.91C136.82 143.527 136.689 143.222 136.428 142.996C136.167 142.769 135.84 142.656 135.448 142.656C135.074 142.656 134.756 142.765 134.495 142.983C134.242 143.2 134.085 143.51 134.024 143.91H136.82ZM15.5577 155.09V161.334C15.5577 162.301 15.2833 163.045 14.7347 163.568C14.1947 164.09 13.4632 164.352 12.5401 164.352C11.5734 164.352 10.7983 164.077 10.2149 163.529C9.63138 162.98 9.33964 162.201 9.33964 161.19H11.5604C11.5604 161.574 11.6387 161.865 11.7955 162.066C11.9523 162.257 12.1787 162.353 12.4748 162.353C12.7447 162.353 12.9538 162.266 13.1018 162.092C13.2499 161.918 13.3239 161.665 13.3239 161.334V155.09H15.5577ZM20.1575 164.365C19.4434 164.365 18.7989 164.212 18.2242 163.908C17.6581 163.603 17.2096 163.167 16.8787 162.601C16.5564 162.035 16.3953 161.373 16.3953 160.616C16.3953 159.867 16.5608 159.209 16.8917 158.643C17.2227 158.068 17.6755 157.629 18.2503 157.324C18.8251 157.019 19.4695 156.867 20.1836 156.867C20.8977 156.867 21.5422 157.019 22.1169 157.324C22.6917 157.629 23.1446 158.068 23.4755 158.643C23.8064 159.209 23.9719 159.867 23.9719 160.616C23.9719 161.365 23.8021 162.026 23.4624 162.601C23.1315 163.167 22.6743 163.603 22.0908 163.908C21.516 164.212 20.8716 164.365 20.1575 164.365ZM20.1575 162.431C20.5842 162.431 20.9456 162.275 21.2417 161.961C21.5465 161.648 21.6989 161.199 21.6989 160.616C21.6989 160.032 21.5509 159.584 21.2548 159.27C20.9674 158.957 20.6103 158.8 20.1836 158.8C19.7482 158.8 19.3868 158.957 19.0994 159.27C18.812 159.575 18.6683 160.023 18.6683 160.616C18.6683 161.199 18.8076 161.648 19.0863 161.961C19.3737 162.275 19.7308 162.431 20.1575 162.431ZM27.4038 156.867C27.9176 156.867 28.3661 156.971 28.7493 157.18C29.1412 157.389 29.4417 157.663 29.6507 158.003V156.971H31.8844V164.247C31.8844 164.918 31.7495 165.523 31.4795 166.063C31.2182 166.612 30.8133 167.047 30.2646 167.369C29.7247 167.691 29.0498 167.853 28.2399 167.853C27.16 167.853 26.2847 167.596 25.6142 167.082C24.9436 166.577 24.5604 165.889 24.4646 165.018H26.6723C26.742 165.297 26.9074 165.514 27.1687 165.671C27.4299 165.837 27.7522 165.919 28.1353 165.919C28.5969 165.919 28.9627 165.784 29.2326 165.514C29.5113 165.253 29.6507 164.831 29.6507 164.247V163.215C29.4329 163.555 29.1325 163.834 28.7493 164.051C28.3661 164.26 27.9176 164.365 27.4038 164.365C26.8029 164.365 26.2586 164.212 25.7709 163.908C25.2832 163.594 24.8957 163.154 24.6083 162.588C24.3296 162.013 24.1903 161.352 24.1903 160.603C24.1903 159.854 24.3296 159.196 24.6083 158.63C24.8957 158.064 25.2832 157.629 25.7709 157.324C26.2586 157.019 26.8029 156.867 27.4038 156.867ZM29.6507 160.616C29.6507 160.058 29.4939 159.619 29.1804 159.296C28.8756 158.974 28.5011 158.813 28.057 158.813C27.6128 158.813 27.234 158.974 26.9205 159.296C26.6157 159.61 26.4633 160.045 26.4633 160.603C26.4633 161.16 26.6157 161.604 26.9205 161.935C27.234 162.257 27.6128 162.418 28.057 162.418C28.5011 162.418 28.8756 162.257 29.1804 161.935C29.4939 161.613 29.6507 161.173 29.6507 160.616ZM36.296 164.365C35.5819 164.365 34.9374 164.212 34.3627 163.908C33.7966 163.603 33.3481 163.167 33.0172 162.601C32.6949 162.035 32.5338 161.373 32.5338 160.616C32.5338 159.867 32.6993 159.209 33.0302 158.643C33.3612 158.068 33.814 157.629 34.3888 157.324C34.9636 157.019 35.608 156.867 36.3221 156.867C37.0362 156.867 37.6807 157.019 38.2554 157.324C38.8302 157.629 39.2831 158.068 39.614 158.643C39.9449 159.209 40.1104 159.867 40.1104 160.616C40.1104 161.365 39.9406 162.026 39.6009 162.601C39.27 163.167 38.8128 163.603 38.2293 163.908C37.6545 164.212 37.0101 164.365 36.296 164.365ZM36.296 162.431C36.7227 162.431 37.0841 162.275 37.3802 161.961C37.685 161.648 37.8374 161.199 37.8374 160.616C37.8374 160.032 37.6894 159.584 37.3933 159.27C37.1059 158.957 36.7488 158.8 36.3221 158.8C35.8867 158.8 35.5253 158.957 35.2379 159.27C34.9505 159.575 34.8068 160.023 34.8068 160.616C34.8068 161.199 34.9461 161.648 35.2248 161.961C35.5122 162.275 35.8693 162.431 36.296 162.431ZM43.1765 162.196L41.7265 165.945H40.3027L41.0603 162.196H43.1765ZM47.7992 156.109C47.5293 156.109 47.3028 156.017 47.12 155.835C46.9371 155.652 46.8456 155.425 46.8456 155.155C46.8456 154.885 46.9371 154.659 47.12 154.476C47.3028 154.293 47.5293 154.202 47.7992 154.202C48.0605 154.202 48.2826 154.293 48.4655 154.476C48.6483 154.659 48.7398 154.885 48.7398 155.155C48.7398 155.425 48.6483 155.652 48.4655 155.835C48.2826 156.017 48.0605 156.109 47.7992 156.109ZM48.5308 157.063V164.26H47.0416V157.063H48.5308ZM53.595 156.945C54.161 156.945 54.6661 157.063 55.1103 157.298C55.5631 157.533 55.9158 157.881 56.1684 158.343C56.4209 158.804 56.5472 159.362 56.5472 160.015V164.26H55.0711V160.237C55.0711 159.592 54.91 159.1 54.5877 158.761C54.2655 158.412 53.8257 158.238 53.2684 158.238C52.711 158.238 52.2669 158.412 51.9359 158.761C51.6137 159.1 51.4526 159.592 51.4526 160.237V164.26H49.9634V157.063H51.4526V157.885C51.6965 157.589 52.0056 157.359 52.3801 157.193C52.7633 157.028 53.1682 156.945 53.595 156.945ZM60.5369 164.378C59.9708 164.378 59.4613 164.278 59.0085 164.077C58.5643 163.868 58.2116 163.59 57.9504 163.241C57.6891 162.884 57.5498 162.488 57.5323 162.053H59.0738C59.0999 162.357 59.2436 162.614 59.5049 162.823C59.7748 163.024 60.1101 163.124 60.5107 163.124C60.9287 163.124 61.251 163.045 61.4774 162.889C61.7125 162.723 61.8301 162.514 61.8301 162.262C61.8301 161.992 61.6995 161.791 61.4382 161.661C61.1856 161.53 60.7807 161.386 60.2233 161.23C59.6834 161.082 59.2436 160.938 58.904 160.799C58.5643 160.659 58.2682 160.446 58.0157 160.158C57.7718 159.871 57.6499 159.492 57.6499 159.022C57.6499 158.639 57.7631 158.29 57.9896 157.977C58.216 157.655 58.5382 157.402 58.9562 157.219C59.3829 157.036 59.8706 156.945 60.4193 156.945C61.2379 156.945 61.8954 157.154 62.3918 157.572C62.8969 157.981 63.1669 158.543 63.2017 159.257H61.7125C61.6864 158.935 61.5558 158.678 61.3206 158.486C61.0855 158.295 60.7676 158.199 60.367 158.199C59.9751 158.199 59.6747 158.273 59.4657 158.421C59.2567 158.569 59.1522 158.765 59.1522 159.009C59.1522 159.2 59.2218 159.362 59.3612 159.492C59.5005 159.623 59.6703 159.727 59.8706 159.806C60.0709 159.875 60.367 159.967 60.7589 160.08C61.2814 160.219 61.7082 160.363 62.0391 160.511C62.3787 160.65 62.6705 160.86 62.9143 161.138C63.1582 161.417 63.2844 161.787 63.2932 162.249C63.2932 162.658 63.1799 163.024 62.9535 163.346C62.7271 163.668 62.4049 163.921 61.9869 164.103C61.5775 164.286 61.0942 164.378 60.5369 164.378ZM63.8833 160.655C63.8833 159.915 64.0314 159.266 64.3275 158.708C64.6323 158.142 65.0503 157.707 65.5815 157.402C66.1128 157.097 66.7224 156.945 67.4104 156.945C68.2812 156.945 68.9997 157.154 69.5658 157.572C70.1406 157.981 70.5281 158.569 70.7284 159.335H69.1216C68.991 158.978 68.782 158.7 68.4946 158.499C68.2072 158.299 67.8458 158.199 67.4104 158.199C66.8008 158.199 66.3131 158.417 65.9473 158.852C65.5902 159.279 65.4117 159.88 65.4117 160.655C65.4117 161.43 65.5902 162.035 65.9473 162.471C66.3131 162.906 66.8008 163.124 67.4104 163.124C68.2725 163.124 68.843 162.745 69.1216 161.987H70.7284C70.5194 162.719 70.1275 163.302 69.5527 163.738C68.9779 164.164 68.2638 164.378 67.4104 164.378C66.7224 164.378 66.1128 164.225 65.5815 163.921C65.0503 163.607 64.6323 163.172 64.3275 162.614C64.0314 162.048 63.8833 161.395 63.8833 160.655ZM73.1791 158.108C73.3969 157.742 73.6842 157.459 74.0413 157.258C74.4071 157.049 74.8382 156.945 75.3345 156.945V158.486H74.9557C74.3722 158.486 73.9281 158.634 73.6233 158.931C73.3272 159.227 73.1791 159.74 73.1791 160.472V164.26H71.69V157.063H73.1791V158.108ZM82.7777 160.485C82.7777 160.755 82.7603 160.999 82.7255 161.217H77.2259C77.2695 161.791 77.4828 162.253 77.866 162.601C78.2492 162.95 78.7195 163.124 79.2768 163.124C80.078 163.124 80.6441 162.788 80.975 162.118H82.5818C82.3641 162.78 81.9678 163.324 81.3931 163.751C80.827 164.169 80.1216 164.378 79.2768 164.378C78.5889 164.378 77.9705 164.225 77.4219 163.921C76.8819 163.607 76.4552 163.172 76.1417 162.614C75.8369 162.048 75.6845 161.395 75.6845 160.655C75.6845 159.915 75.8325 159.266 76.1286 158.708C76.4334 158.142 76.8558 157.707 77.3958 157.402C77.9444 157.097 78.5714 156.945 79.2768 156.945C79.9561 156.945 80.5614 157.093 81.0926 157.389C81.6238 157.685 82.0375 158.103 82.3336 158.643C82.6297 159.174 82.7777 159.788 82.7777 160.485ZM81.2232 160.015C81.2145 159.466 81.0186 159.026 80.6354 158.695C80.2522 158.364 79.7776 158.199 79.2115 158.199C78.6977 158.199 78.2579 158.364 77.8922 158.695C77.5264 159.018 77.3087 159.457 77.239 160.015H81.2232ZM86.5032 162.928L88.541 157.063H90.1216L87.3784 164.26H85.6018L82.8716 157.063H84.4653L86.5032 162.928ZM90.2284 160.629C90.2284 159.906 90.3764 159.266 90.6725 158.708C90.9773 158.151 91.3866 157.72 91.9005 157.415C92.423 157.102 92.9978 156.945 93.6248 156.945C94.1908 156.945 94.6829 157.058 95.1009 157.285C95.5276 157.502 95.8673 157.777 96.1198 158.108V157.063H97.6221V164.26H96.1198V163.189C95.8673 163.529 95.5233 163.812 95.0878 164.038C94.6524 164.265 94.156 164.378 93.5987 164.378C92.9803 164.378 92.4143 164.221 91.9005 163.908C91.3866 163.585 90.9773 163.141 90.6725 162.575C90.3764 162 90.2284 161.352 90.2284 160.629ZM96.1198 160.655C96.1198 160.158 96.0153 159.727 95.8063 159.362C95.606 158.996 95.3404 158.717 95.0095 158.526C94.6785 158.334 94.3215 158.238 93.9383 158.238C93.5551 158.238 93.1981 158.334 92.8671 158.526C92.5362 158.708 92.2662 158.983 92.0572 159.349C91.8569 159.706 91.7568 160.132 91.7568 160.629C91.7568 161.125 91.8569 161.561 92.0572 161.935C92.2662 162.31 92.5362 162.597 92.8671 162.797C93.2068 162.989 93.5638 163.085 93.9383 163.085C94.3215 163.085 94.6785 162.989 95.0095 162.797C95.3404 162.606 95.606 162.327 95.8063 161.961C96.0153 161.587 96.1198 161.151 96.1198 160.655ZM104.581 158.904V160.158H99.2123V158.904H104.581ZM108.787 164.378C108.221 164.378 107.711 164.278 107.259 164.077C106.814 163.868 106.462 163.59 106.201 163.241C105.939 162.884 105.8 162.488 105.783 162.053H107.324C107.35 162.357 107.494 162.614 107.755 162.823C108.025 163.024 108.36 163.124 108.761 163.124C109.179 163.124 109.501 163.045 109.728 162.889C109.963 162.723 110.08 162.514 110.08 162.262C110.08 161.992 109.95 161.791 109.688 161.661C109.436 161.53 109.031 161.386 108.474 161.23C107.934 161.082 107.494 160.938 107.154 160.799C106.814 160.659 106.518 160.446 106.266 160.158C106.022 159.871 105.9 159.492 105.9 159.022C105.9 158.639 106.013 158.29 106.24 157.977C106.466 157.655 106.788 157.402 107.206 157.219C107.633 157.036 108.121 156.945 108.669 156.945C109.488 156.945 110.146 157.154 110.642 157.572C111.147 157.981 111.417 158.543 111.452 159.257H109.963C109.937 158.935 109.806 158.678 109.571 158.486C109.336 158.295 109.018 158.199 108.617 158.199C108.225 158.199 107.925 158.273 107.716 158.421C107.507 158.569 107.402 158.765 107.402 159.009C107.402 159.2 107.472 159.362 107.611 159.492C107.751 159.623 107.92 159.727 108.121 159.806C108.321 159.875 108.617 159.967 109.009 160.08C109.532 160.219 109.958 160.363 110.289 160.511C110.629 160.65 110.921 160.86 111.164 161.138C111.408 161.417 111.535 161.787 111.543 162.249C111.543 162.658 111.43 163.024 111.204 163.346C110.977 163.668 110.655 163.921 110.237 164.103C109.828 164.286 109.344 164.378 108.787 164.378ZM119.227 160.485C119.227 160.755 119.209 160.999 119.174 161.217H113.675C113.718 161.791 113.932 162.253 114.315 162.601C114.698 162.95 115.168 163.124 115.726 163.124C116.527 163.124 117.093 162.788 117.424 162.118H119.031C118.813 162.78 118.417 163.324 117.842 163.751C117.276 164.169 116.571 164.378 115.726 164.378C115.038 164.378 114.42 164.225 113.871 163.921C113.331 163.607 112.904 163.172 112.591 162.614C112.286 162.048 112.134 161.395 112.134 160.655C112.134 159.915 112.282 159.266 112.578 158.708C112.882 158.142 113.305 157.707 113.845 157.402C114.393 157.097 115.02 156.945 115.726 156.945C116.405 156.945 117.01 157.093 117.542 157.389C118.073 157.685 118.487 158.103 118.783 158.643C119.079 159.174 119.227 159.788 119.227 160.485ZM117.672 160.015C117.664 159.466 117.468 159.026 117.084 158.695C116.701 158.364 116.227 158.199 115.661 158.199C115.147 158.199 114.707 158.364 114.341 158.695C113.975 159.018 113.758 159.457 113.688 160.015H117.672ZM124.53 158.121C124.782 157.79 125.126 157.511 125.562 157.285C125.997 157.058 126.489 156.945 127.038 156.945C127.665 156.945 128.235 157.102 128.749 157.415C129.272 157.72 129.681 158.151 129.977 158.708C130.273 159.266 130.421 159.906 130.421 160.629C130.421 161.352 130.273 162 129.977 162.575C129.681 163.141 129.272 163.585 128.749 163.908C128.235 164.221 127.665 164.378 127.038 164.378C126.489 164.378 126.002 164.269 125.575 164.051C125.148 163.825 124.8 163.546 124.53 163.215V167.683H123.041V157.063H124.53V158.121ZM128.906 160.629C128.906 160.132 128.801 159.706 128.592 159.349C128.392 158.983 128.122 158.708 127.782 158.526C127.452 158.334 127.094 158.238 126.711 158.238C126.337 158.238 125.98 158.334 125.64 158.526C125.309 158.717 125.039 158.996 124.83 159.362C124.63 159.727 124.53 160.158 124.53 160.655C124.53 161.151 124.63 161.587 124.83 161.961C125.039 162.327 125.309 162.606 125.64 162.797C125.98 162.989 126.337 163.085 126.711 163.085C127.094 163.085 127.452 162.989 127.782 162.797C128.122 162.597 128.392 162.31 128.592 161.935C128.801 161.561 128.906 161.125 128.906 160.629ZM130.875 160.629C130.875 159.906 131.023 159.266 131.319 158.708C131.624 158.151 132.033 157.72 132.547 157.415C133.07 157.102 133.644 156.945 134.271 156.945C134.837 156.945 135.329 157.058 135.747 157.285C136.174 157.502 136.514 157.777 136.766 158.108V157.063H138.269V164.26H136.766V163.189C136.514 163.529 136.17 163.812 135.734 164.038C135.299 164.265 134.803 164.378 134.245 164.378C133.627 164.378 133.061 164.221 132.547 163.908C132.033 163.585 131.624 163.141 131.319 162.575C131.023 162 130.875 161.352 130.875 160.629ZM136.766 160.655C136.766 160.158 136.662 159.727 136.453 159.362C136.253 158.996 135.987 158.717 135.656 158.526C135.325 158.334 134.968 158.238 134.585 158.238C134.202 158.238 133.845 158.334 133.514 158.526C133.183 158.708 132.913 158.983 132.704 159.349C132.503 159.706 132.403 160.132 132.403 160.629C132.403 161.125 132.503 161.561 132.704 161.935C132.913 162.31 133.183 162.597 133.514 162.797C133.853 162.989 134.21 163.085 134.585 163.085C134.968 163.085 135.325 162.989 135.656 162.797C135.987 162.606 136.253 162.327 136.453 161.961C136.662 161.587 136.766 161.151 136.766 160.655ZM141.191 158.108C141.409 157.742 141.696 157.459 142.053 157.258C142.419 157.049 142.85 156.945 143.347 156.945V158.486H142.968C142.384 158.486 141.94 158.634 141.635 158.931C141.339 159.227 141.191 159.74 141.191 160.472V164.26H139.702V157.063H141.191V158.108ZM143.697 160.629C143.697 159.906 143.845 159.266 144.141 158.708C144.446 158.151 144.855 157.72 145.369 157.415C145.891 157.102 146.466 156.945 147.093 156.945C147.659 156.945 148.151 157.058 148.569 157.285C148.996 157.502 149.336 157.777 149.588 158.108V157.063H151.09V164.26H149.588V163.189C149.336 163.529 148.992 163.812 148.556 164.038C148.121 164.265 147.624 164.378 147.067 164.378C146.449 164.378 145.883 164.221 145.369 163.908C144.855 163.585 144.446 163.141 144.141 162.575C143.845 162 143.697 161.352 143.697 160.629ZM149.588 160.655C149.588 160.158 149.484 159.727 149.275 159.362C149.074 158.996 148.809 158.717 148.478 158.526C148.147 158.334 147.79 158.238 147.407 158.238C147.023 158.238 146.666 158.334 146.335 158.526C146.004 158.708 145.734 158.983 145.525 159.349C145.325 159.706 145.225 160.132 145.225 160.629C145.225 161.125 145.325 161.561 145.525 161.935C145.734 162.31 146.004 162.597 146.335 162.797C146.675 162.989 147.032 163.085 147.407 163.085C147.79 163.085 148.147 162.989 148.478 162.797C148.809 162.606 149.074 162.327 149.275 161.961C149.484 161.587 149.588 161.151 149.588 160.655ZM11.4689 174.121C11.7215 173.79 12.0655 173.511 12.5009 173.285C12.9363 173.058 13.4284 172.945 13.977 172.945C14.6041 172.945 15.1745 173.102 15.6883 173.415C16.2108 173.72 16.6201 174.151 16.9162 174.708C17.2123 175.266 17.3604 175.906 17.3604 176.629C17.3604 177.352 17.2123 178 16.9162 178.575C16.6201 179.141 16.2108 179.585 15.6883 179.908C15.1745 180.221 14.6041 180.378 13.977 180.378C13.4284 180.378 12.9407 180.269 12.514 180.051C12.0872 179.825 11.7389 179.546 11.4689 179.215V183.683H9.97973V173.063H11.4689V174.121ZM15.845 176.629C15.845 176.132 15.7405 175.706 15.5315 175.349C15.3312 174.983 15.0613 174.708 14.7216 174.526C14.3907 174.334 14.0336 174.238 13.6505 174.238C13.276 174.238 12.9189 174.334 12.5793 174.526C12.2483 174.717 11.9784 174.996 11.7694 175.362C11.5691 175.727 11.4689 176.158 11.4689 176.655C11.4689 177.151 11.5691 177.587 11.7694 177.961C11.9784 178.327 12.2483 178.606 12.5793 178.797C12.9189 178.989 13.276 179.085 13.6505 179.085C14.0336 179.085 14.3907 178.989 14.7216 178.797C15.0613 178.597 15.3312 178.31 15.5315 177.935C15.7405 177.561 15.845 177.125 15.845 176.629ZM17.8141 176.629C17.8141 175.906 17.9621 175.266 18.2582 174.708C18.563 174.151 18.9724 173.72 19.4862 173.415C20.0087 173.102 20.5835 172.945 21.2105 172.945C21.7766 172.945 22.2686 173.058 22.6866 173.285C23.1133 173.502 23.453 173.777 23.7055 174.108V173.063H25.2078V180.26H23.7055V179.189C23.453 179.529 23.109 179.812 22.6736 180.038C22.2381 180.265 21.7417 180.378 21.1844 180.378C20.5661 180.378 20 180.221 19.4862 179.908C18.9724 179.585 18.563 179.141 18.2582 178.575C17.9621 178 17.8141 177.352 17.8141 176.629ZM23.7055 176.655C23.7055 176.158 23.601 175.727 23.392 175.362C23.1917 174.996 22.9261 174.717 22.5952 174.526C22.2642 174.334 21.9072 174.238 21.524 174.238C21.1408 174.238 20.7838 174.334 20.4528 174.526C20.1219 174.708 19.8519 174.983 19.6429 175.349C19.4426 175.706 19.3425 176.132 19.3425 176.629C19.3425 177.125 19.4426 177.561 19.6429 177.935C19.8519 178.31 20.1219 178.597 20.4528 178.797C20.7925 178.989 21.1495 179.085 21.524 179.085C21.9072 179.085 22.2642 178.989 22.5952 178.797C22.9261 178.606 23.1917 178.327 23.392 177.961C23.601 177.587 23.7055 177.151 23.7055 176.655ZM28.1304 174.108C28.3482 173.742 28.6356 173.459 28.9926 173.258C29.3584 173.049 29.7895 172.945 30.2859 172.945V174.486H29.907C29.3235 174.486 28.8794 174.634 28.5746 174.931C28.2785 175.227 28.1304 175.74 28.1304 176.472V180.26H26.6413V173.063H28.1304V174.108ZM32.8696 174.277V178.262C32.8696 178.532 32.9305 178.728 33.0525 178.849C33.1831 178.963 33.4008 179.019 33.7056 179.019H34.62V180.26H33.4444C32.7738 180.26 32.26 180.103 31.9029 179.79C31.5459 179.476 31.3673 178.967 31.3673 178.262V174.277H30.5182V173.063H31.3673V171.273H32.8696V173.063H34.62V174.277H32.8696ZM36.2277 172.109C35.9577 172.109 35.7313 172.017 35.5484 171.835C35.3656 171.652 35.2741 171.425 35.2741 171.155C35.2741 170.885 35.3656 170.659 35.5484 170.476C35.7313 170.293 35.9577 170.202 36.2277 170.202C36.489 170.202 36.711 170.293 36.8939 170.476C37.0768 170.659 37.1683 170.885 37.1683 171.155C37.1683 171.425 37.0768 171.652 36.8939 171.835C36.711 172.017 36.489 172.109 36.2277 172.109ZM36.9592 173.063V180.26H35.4701V173.063H36.9592ZM37.8955 176.655C37.8955 175.915 38.0435 175.266 38.3396 174.708C38.6444 174.142 39.0625 173.707 39.5937 173.402C40.1249 173.097 40.7345 172.945 41.4225 172.945C42.2934 172.945 43.0119 173.154 43.5779 173.572C44.1527 173.981 44.5402 174.569 44.7405 175.335H43.1338C43.0032 174.978 42.7941 174.7 42.5068 174.499C42.2194 174.299 41.858 174.199 41.4225 174.199C40.8129 174.199 40.3252 174.417 39.9595 174.852C39.6024 175.279 39.4239 175.88 39.4239 176.655C39.4239 177.43 39.6024 178.035 39.9595 178.471C40.3252 178.906 40.8129 179.124 41.4225 179.124C42.2847 179.124 42.8551 178.745 43.1338 177.987H44.7405C44.5315 178.719 44.1396 179.302 43.5649 179.738C42.9901 180.164 42.276 180.378 41.4225 180.378C40.7345 180.378 40.1249 180.225 39.5937 179.921C39.0625 179.607 38.6444 179.172 38.3396 178.614C38.0435 178.048 37.8955 177.395 37.8955 176.655ZM46.4598 172.109C46.1898 172.109 45.9634 172.017 45.7805 171.835C45.5976 171.652 45.5062 171.425 45.5062 171.155C45.5062 170.885 45.5976 170.659 45.7805 170.476C45.9634 170.293 46.1898 170.202 46.4598 170.202C46.721 170.202 46.9431 170.293 47.126 170.476C47.3089 170.659 47.4003 170.885 47.4003 171.155C47.4003 171.425 47.3089 171.652 47.126 171.835C46.9431 172.017 46.721 172.109 46.4598 172.109ZM47.1913 173.063V180.26H45.7021V173.063H47.1913ZM50.1131 174.121C50.3657 173.79 50.7097 173.511 51.1451 173.285C51.5806 173.058 52.0726 172.945 52.6212 172.945C53.2483 172.945 53.8187 173.102 54.3325 173.415C54.855 173.72 55.2643 174.151 55.5604 174.708C55.8565 175.266 56.0046 175.906 56.0046 176.629C56.0046 177.352 55.8565 178 55.5604 178.575C55.2643 179.141 54.855 179.585 54.3325 179.908C53.8187 180.221 53.2483 180.378 52.6212 180.378C52.0726 180.378 51.5849 180.269 51.1582 180.051C50.7315 179.825 50.3831 179.546 50.1131 179.215V183.683H48.6239V173.063H50.1131V174.121ZM54.4893 176.629C54.4893 176.132 54.3848 175.706 54.1758 175.349C53.9755 174.983 53.7055 174.708 53.3658 174.526C53.0349 174.334 52.6779 174.238 52.2947 174.238C51.9202 174.238 51.5631 174.334 51.2235 174.526C50.8926 174.717 50.6226 174.996 50.4136 175.362C50.2133 175.727 50.1131 176.158 50.1131 176.655C50.1131 177.151 50.2133 177.587 50.4136 177.961C50.6226 178.327 50.8926 178.606 51.2235 178.797C51.5631 178.989 51.9202 179.085 52.2947 179.085C52.6779 179.085 53.0349 178.989 53.3658 178.797C53.7055 178.597 53.9755 178.31 54.1758 177.935C54.3848 177.561 54.4893 177.125 54.4893 176.629ZM56.4583 176.629C56.4583 175.906 56.6064 175.266 56.9025 174.708C57.2073 174.151 57.6166 173.72 58.1304 173.415C58.6529 173.102 59.2277 172.945 59.8547 172.945C60.4208 172.945 60.9128 173.058 61.3308 173.285C61.7576 173.502 62.0972 173.777 62.3498 174.108V173.063H63.852V180.26H62.3498V179.189C62.0972 179.529 61.7532 179.812 61.3178 180.038C60.8823 180.265 60.3859 180.378 59.8286 180.378C59.2103 180.378 58.6442 180.221 58.1304 179.908C57.6166 179.585 57.2073 179.141 56.9025 178.575C56.6064 178 56.4583 177.352 56.4583 176.629ZM62.3498 176.655C62.3498 176.158 62.2453 175.727 62.0362 175.362C61.8359 174.996 61.5703 174.717 61.2394 174.526C60.9085 174.334 60.5514 174.238 60.1682 174.238C59.785 174.238 59.428 174.334 59.0971 174.526C58.7661 174.708 58.4962 174.983 58.2871 175.349C58.0868 175.706 57.9867 176.132 57.9867 176.629C57.9867 177.125 58.0868 177.561 58.2871 177.935C58.4962 178.31 58.7661 178.597 59.0971 178.797C59.4367 178.989 59.7938 179.085 60.1682 179.085C60.5514 179.085 60.9085 178.989 61.2394 178.797C61.5703 178.606 61.8359 178.327 62.0362 177.961C62.2453 177.587 62.3498 177.151 62.3498 176.655ZM66.7747 174.108C66.9924 173.742 67.2798 173.459 67.6368 173.258C68.0026 173.049 68.4337 172.945 68.9301 172.945V174.486H68.5512C67.9678 174.486 67.5236 174.634 67.2188 174.931C66.9227 175.227 66.7747 175.74 66.7747 176.472V180.26H65.2855V173.063H66.7747V174.108ZM72.1508 176.629C72.1508 175.906 72.2989 175.266 72.595 174.708C72.8998 174.151 73.3091 173.72 73.8229 173.415C74.3454 173.102 74.9246 172.945 75.5603 172.945C76.0306 172.945 76.4921 173.049 76.945 173.258C77.4065 173.459 77.7723 173.729 78.0423 174.068V170.594H79.5445V180.26H78.0423V179.176C77.7984 179.524 77.4588 179.812 77.0234 180.038C76.5966 180.265 76.1046 180.378 75.5472 180.378C74.9202 180.378 74.3454 180.221 73.8229 179.908C73.3091 179.585 72.8998 179.141 72.595 178.575C72.2989 178 72.1508 177.352 72.1508 176.629ZM78.0423 176.655C78.0423 176.158 77.9378 175.727 77.7288 175.362C77.5285 174.996 77.2628 174.717 76.9319 174.526C76.601 174.334 76.2439 174.238 75.8607 174.238C75.4776 174.238 75.1205 174.334 74.7896 174.526C74.4586 174.708 74.1887 174.983 73.9797 175.349C73.7794 175.706 73.6792 176.132 73.6792 176.629C73.6792 177.125 73.7794 177.561 73.9797 177.935C74.1887 178.31 74.4586 178.597 74.7896 178.797C75.1292 178.989 75.4863 179.085 75.8607 179.085C76.2439 179.085 76.601 178.989 76.9319 178.797C77.2628 178.606 77.5285 178.327 77.7288 177.961C77.9378 177.587 78.0423 177.151 78.0423 176.655ZM84.1001 180.378C83.4208 180.378 82.8068 180.225 82.2582 179.921C81.7095 179.607 81.2784 179.172 80.9649 178.614C80.6514 178.048 80.4947 177.395 80.4947 176.655C80.4947 175.923 80.6558 175.275 80.978 174.708C81.3002 174.142 81.74 173.707 82.2974 173.402C82.8547 173.097 83.4774 172.945 84.1654 172.945C84.8534 172.945 85.476 173.097 86.0334 173.402C86.5908 173.707 87.0306 174.142 87.3528 174.708C87.675 175.275 87.8361 175.923 87.8361 176.655C87.8361 177.386 87.6706 178.035 87.3397 178.601C87.0088 179.167 86.5559 179.607 85.9812 179.921C85.4151 180.225 84.7881 180.378 84.1001 180.378ZM84.1001 179.085C84.4833 179.085 84.8403 178.993 85.1712 178.81C85.5109 178.627 85.7852 178.353 85.9942 177.987C86.2032 177.622 86.3077 177.177 86.3077 176.655C86.3077 176.132 86.2076 175.693 86.0073 175.335C85.807 174.97 85.5414 174.695 85.2104 174.513C84.8795 174.33 84.5224 174.238 84.1393 174.238C83.7561 174.238 83.399 174.33 83.0681 174.513C82.7459 174.695 82.489 174.97 82.2974 175.335C82.1058 175.693 82.01 176.132 82.01 176.655C82.01 177.43 82.2059 178.031 82.5978 178.458C82.9984 178.876 83.4992 179.085 84.1001 179.085ZM93.3939 174.277V178.262C93.3939 178.532 93.4549 178.728 93.5768 178.849C93.7074 178.963 93.9252 179.019 94.23 179.019H95.1444V180.26H93.9687C93.2981 180.26 92.7843 180.103 92.4273 179.79C92.0702 179.476 91.8917 178.967 91.8917 178.262V174.277H91.0426V173.063H91.8917V171.273H93.3939V173.063H95.1444V174.277H93.3939ZM99.1165 180.378C98.4372 180.378 97.8232 180.225 97.2746 179.921C96.7259 179.607 96.2948 179.172 95.9813 178.614C95.6678 178.048 95.5111 177.395 95.5111 176.655C95.5111 175.923 95.6722 175.275 95.9944 174.708C96.3166 174.142 96.7564 173.707 97.3138 173.402C97.8711 173.097 98.4938 172.945 99.1818 172.945C99.8698 172.945 100.492 173.097 101.05 173.402C101.607 173.707 102.047 174.142 102.369 174.708C102.691 175.275 102.853 175.923 102.853 176.655C102.853 177.386 102.687 178.035 102.356 178.601C102.025 179.167 101.572 179.607 100.998 179.921C100.431 180.225 99.8045 180.378 99.1165 180.378ZM99.1165 179.085C99.4996 179.085 99.8567 178.993 100.188 178.81C100.527 178.627 100.802 178.353 101.011 177.987C101.22 177.622 101.324 177.177 101.324 176.655C101.324 176.132 101.224 175.693 101.024 175.335C100.823 174.97 100.558 174.695 100.227 174.513C99.8959 174.33 99.5388 174.238 99.1557 174.238C98.7725 174.238 98.4154 174.33 98.0845 174.513C97.7623 174.695 97.5054 174.97 97.3138 175.335C97.1222 175.693 97.0264 176.132 97.0264 176.655C97.0264 177.43 97.2223 178.031 97.6142 178.458C98.0148 178.876 98.5156 179.085 99.1165 179.085ZM105.291 174.108C105.509 173.742 105.796 173.459 106.153 173.258C106.519 173.049 106.95 172.945 107.447 172.945V174.486H107.068C106.484 174.486 106.04 174.634 105.735 174.931C105.439 175.227 105.291 175.74 105.291 176.472V180.26H103.802V173.063H105.291V174.108ZM111.925 172.945C112.491 172.945 112.996 173.063 113.44 173.298C113.893 173.533 114.245 173.881 114.498 174.343C114.751 174.804 114.877 175.362 114.877 176.015V180.26H113.401V176.237C113.401 175.592 113.24 175.1 112.917 174.761C112.595 174.412 112.155 174.238 111.598 174.238C111.041 174.238 110.597 174.412 110.266 174.761C109.943 175.1 109.782 175.592 109.782 176.237V180.26H108.293V173.063H109.782V173.885C110.026 173.589 110.335 173.359 110.71 173.193C111.093 173.028 111.498 172.945 111.925 172.945ZM122.851 176.485C122.851 176.755 122.833 176.999 122.798 177.217H117.299C117.342 177.791 117.556 178.253 117.939 178.601C118.322 178.95 118.792 179.124 119.35 179.124C120.151 179.124 120.717 178.788 121.048 178.118H122.655C122.437 178.78 122.041 179.324 121.466 179.751C120.9 180.169 120.195 180.378 119.35 180.378C118.662 180.378 118.044 180.225 117.495 179.921C116.955 179.607 116.528 179.172 116.215 178.614C115.91 178.048 115.757 177.395 115.757 176.655C115.757 175.915 115.906 175.266 116.202 174.708C116.506 174.142 116.929 173.707 117.469 173.402C118.017 173.097 118.644 172.945 119.35 172.945C120.029 172.945 120.634 173.093 121.166 173.389C121.697 173.685 122.11 174.103 122.407 174.643C122.703 175.174 122.851 175.788 122.851 176.485ZM121.296 176.015C121.288 175.466 121.092 175.026 120.708 174.695C120.325 174.364 119.851 174.199 119.285 174.199C118.771 174.199 118.331 174.364 117.965 174.695C117.599 175.018 117.382 175.457 117.312 176.015H121.296ZM124.551 172.109C124.281 172.109 124.055 172.017 123.872 171.835C123.689 171.652 123.598 171.425 123.598 171.155C123.598 170.885 123.689 170.659 123.872 170.476C124.055 170.293 124.281 170.202 124.551 170.202C124.813 170.202 125.035 170.293 125.218 170.476C125.4 170.659 125.492 170.885 125.492 171.155C125.492 171.425 125.4 171.652 125.218 171.835C125.035 172.017 124.813 172.109 124.551 172.109ZM125.283 173.063V180.26H123.794V173.063H125.283ZM129.838 180.378C129.158 180.378 128.544 180.225 127.996 179.921C127.447 179.607 127.016 179.172 126.702 178.614C126.389 178.048 126.232 177.395 126.232 176.655C126.232 175.923 126.393 175.275 126.716 174.708C127.038 174.142 127.478 173.707 128.035 173.402C128.592 173.097 129.215 172.945 129.903 172.945C130.591 172.945 131.214 173.097 131.771 173.402C132.328 173.707 132.768 174.142 133.09 174.708C133.413 175.275 133.574 175.923 133.574 176.655C133.574 177.386 133.408 178.035 133.077 178.601C132.746 179.167 132.293 179.607 131.719 179.921C131.153 180.225 130.526 180.378 129.838 180.378ZM129.838 179.085C130.221 179.085 130.578 178.993 130.909 178.81C131.248 178.627 131.523 178.353 131.732 177.987C131.941 177.622 132.045 177.177 132.045 176.655C132.045 176.132 131.945 175.693 131.745 175.335C131.545 174.97 131.279 174.695 130.948 174.513C130.617 174.33 130.26 174.238 129.877 174.238C129.494 174.238 129.137 174.33 128.806 174.513C128.483 174.695 128.227 174.97 128.035 175.335C127.843 175.693 127.748 176.132 127.748 176.655C127.748 177.43 127.943 178.031 128.335 178.458C128.736 178.876 129.237 179.085 129.838 179.085ZM15.845 187.181V188.396H13.4284V196.26H11.9392V188.396H9.50946V187.181H15.845ZM23.4275 192.485C23.4275 192.755 23.4101 192.999 23.3753 193.217H17.8757C17.9193 193.791 18.1326 194.253 18.5158 194.601C18.899 194.95 19.3693 195.124 19.9266 195.124C20.7278 195.124 21.2939 194.788 21.6248 194.118H23.2316C23.0139 194.78 22.6176 195.324 22.0429 195.751C21.4768 196.169 20.7714 196.378 19.9266 196.378C19.2387 196.378 18.6203 196.225 18.0717 195.921C17.5317 195.607 17.105 195.172 16.7915 194.614C16.4867 194.048 16.3343 193.395 16.3343 192.655C16.3343 191.915 16.4823 191.266 16.7784 190.708C17.0832 190.142 17.5056 189.707 18.0456 189.402C18.5942 189.097 19.2212 188.945 19.9266 188.945C20.6059 188.945 21.2112 189.093 21.7424 189.389C22.2736 189.685 22.6873 190.103 22.9834 190.643C23.2795 191.174 23.4275 191.788 23.4275 192.485ZM21.873 192.015C21.8643 191.466 21.6684 191.026 21.2852 190.695C20.902 190.364 20.4274 190.199 19.8613 190.199C19.3475 190.199 18.9077 190.364 18.542 190.695C18.1762 191.018 17.9585 191.457 17.8888 192.015H21.873ZM33.0836 188.945C33.6497 188.945 34.1548 189.063 34.5989 189.298C35.0518 189.533 35.4045 189.881 35.657 190.343C35.9183 190.804 36.0489 191.362 36.0489 192.015V196.26H34.5728V192.237C34.5728 191.592 34.4117 191.1 34.0895 190.761C33.7672 190.412 33.3274 190.238 32.7701 190.238C32.2127 190.238 31.7686 190.412 31.4377 190.761C31.1154 191.1 30.9543 191.592 30.9543 192.237V196.26H29.4782V192.237C29.4782 191.592 29.3171 191.1 28.9949 190.761C28.6726 190.412 28.2328 190.238 27.6755 190.238C27.1181 190.238 26.674 190.412 26.3431 190.761C26.0208 191.1 25.8597 191.592 25.8597 192.237V196.26H24.3705V189.063H25.8597V189.885C26.1036 189.589 26.4127 189.359 26.7872 189.193C27.1617 189.028 27.5623 188.945 27.989 188.945C28.5638 188.945 29.0776 189.067 29.5304 189.311C29.9833 189.555 30.3316 189.907 30.5755 190.369C30.7932 189.933 31.1328 189.589 31.5944 189.337C32.056 189.076 32.5524 188.945 33.0836 188.945ZM38.9105 190.121C39.1631 189.79 39.5071 189.511 39.9425 189.285C40.378 189.058 40.87 188.945 41.4186 188.945C42.0457 188.945 42.6161 189.102 43.1299 189.415C43.6524 189.72 44.0617 190.151 44.3578 190.708C44.6539 191.266 44.802 191.906 44.802 192.629C44.802 193.352 44.6539 194 44.3578 194.575C44.0617 195.141 43.6524 195.585 43.1299 195.908C42.6161 196.221 42.0457 196.378 41.4186 196.378C40.87 196.378 40.3823 196.269 39.9556 196.051C39.5289 195.825 39.1805 195.546 38.9105 195.215V199.683H37.4213V189.063H38.9105V190.121ZM43.2867 192.629C43.2867 192.132 43.1822 191.706 42.9732 191.349C42.7729 190.983 42.5029 190.708 42.1632 190.526C41.8323 190.334 41.4753 190.238 41.0921 190.238C40.7176 190.238 40.3605 190.334 40.0209 190.526C39.69 190.717 39.42 190.996 39.211 191.362C39.0107 191.727 38.9105 192.158 38.9105 192.655C38.9105 193.151 39.0107 193.587 39.211 193.961C39.42 194.327 39.69 194.606 40.0209 194.797C40.3605 194.989 40.7176 195.085 41.0921 195.085C41.4753 195.085 41.8323 194.989 42.1632 194.797C42.5029 194.597 42.7729 194.31 42.9732 193.935C43.1822 193.561 43.2867 193.125 43.2867 192.629ZM48.8742 196.378C48.1949 196.378 47.5809 196.225 47.0323 195.921C46.4836 195.607 46.0526 195.172 45.7391 194.614C45.4255 194.048 45.2688 193.395 45.2688 192.655C45.2688 191.923 45.4299 191.275 45.7521 190.708C46.0743 190.142 46.5141 189.707 47.0715 189.402C47.6288 189.097 48.2515 188.945 48.9395 188.945C49.6275 188.945 50.2502 189.097 50.8075 189.402C51.3649 189.707 51.8047 190.142 52.1269 190.708C52.4491 191.275 52.6102 191.923 52.6102 192.655C52.6102 193.386 52.4448 194.035 52.1138 194.601C51.7829 195.167 51.33 195.607 50.7553 195.921C50.1892 196.225 49.5622 196.378 48.8742 196.378ZM48.8742 195.085C49.2574 195.085 49.6144 194.993 49.9454 194.81C50.285 194.627 50.5593 194.353 50.7683 193.987C50.9773 193.622 51.0818 193.177 51.0818 192.655C51.0818 192.132 50.9817 191.693 50.7814 191.335C50.5811 190.97 50.3155 190.695 49.9845 190.513C49.6536 190.33 49.2966 190.238 48.9134 190.238C48.5302 190.238 48.1731 190.33 47.8422 190.513C47.52 190.695 47.2631 190.97 47.0715 191.335C46.8799 191.693 46.7841 192.132 46.7841 192.655C46.7841 193.43 46.98 194.031 47.3719 194.458C47.7725 194.876 48.2733 195.085 48.8742 195.085ZM55.9343 192.629C55.9343 191.906 56.0823 191.266 56.3784 190.708C56.6832 190.151 57.0925 189.72 57.6063 189.415C58.1289 189.102 58.708 188.945 59.3437 188.945C59.814 188.945 60.2756 189.049 60.7284 189.258C61.19 189.459 61.5557 189.729 61.8257 190.068V186.594H63.328V196.26H61.8257V195.176C61.5819 195.524 61.2422 195.812 60.8068 196.038C60.3801 196.265 59.888 196.378 59.3307 196.378C58.7036 196.378 58.1289 196.221 57.6063 195.908C57.0925 195.585 56.6832 195.141 56.3784 194.575C56.0823 194 55.9343 193.352 55.9343 192.629ZM61.8257 192.655C61.8257 192.158 61.7212 191.727 61.5122 191.362C61.3119 190.996 61.0463 190.717 60.7153 190.526C60.3844 190.334 60.0274 190.238 59.6442 190.238C59.261 190.238 58.9039 190.334 58.573 190.526C58.2421 190.708 57.9721 190.983 57.7631 191.349C57.5628 191.706 57.4626 192.132 57.4626 192.629C57.4626 193.125 57.5628 193.561 57.7631 193.935C57.9721 194.31 58.2421 194.597 58.573 194.797C58.9126 194.989 59.2697 195.085 59.6442 195.085C60.0274 195.085 60.3844 194.989 60.7153 194.797C61.0463 194.606 61.3119 194.327 61.5122 193.961C61.7212 193.587 61.8257 193.151 61.8257 192.655ZM71.3583 192.485C71.3583 192.755 71.3409 192.999 71.306 193.217H65.8065C65.85 193.791 66.0634 194.253 66.4466 194.601C66.8297 194.95 67.3 195.124 67.8574 195.124C68.6586 195.124 69.2246 194.788 69.5556 194.118H71.1623C70.9446 194.78 70.5484 195.324 69.9736 195.751C69.4075 196.169 68.7021 196.378 67.8574 196.378C67.1694 196.378 66.5511 196.225 66.0024 195.921C65.4625 195.607 65.0358 195.172 64.7222 194.614C64.4174 194.048 64.265 193.395 64.265 192.655C64.265 191.915 64.4131 191.266 64.7092 190.708C65.014 190.142 65.4364 189.707 65.9763 189.402C66.5249 189.097 67.152 188.945 67.8574 188.945C68.5367 188.945 69.1419 189.093 69.6731 189.389C70.2044 189.685 70.618 190.103 70.9141 190.643C71.2102 191.174 71.3583 191.788 71.3583 192.485ZM69.8038 192.015C69.7951 191.466 69.5991 191.026 69.2159 190.695C68.8327 190.364 68.3581 190.199 67.7921 190.199C67.2782 190.199 66.8385 190.364 66.4727 190.695C66.1069 191.018 65.8892 191.457 65.8195 192.015H69.8038ZM80.5149 187.181V188.396H76.6613V191.074H79.6658V192.289H76.6613V196.26H75.1721V187.181H80.5149ZM87.8909 189.063V196.26H86.4017V195.411C86.1666 195.707 85.8574 195.942 85.4742 196.117C85.0998 196.282 84.6992 196.365 84.2724 196.365C83.7064 196.365 83.1969 196.247 82.7441 196.012C82.2999 195.777 81.9472 195.429 81.686 194.967C81.4334 194.505 81.3071 193.948 81.3071 193.295V189.063H82.7832V193.073C82.7832 193.717 82.9444 194.214 83.2666 194.562C83.5888 194.902 84.0286 195.072 84.586 195.072C85.1433 195.072 85.5831 194.902 85.9053 194.562C86.2363 194.214 86.4017 193.717 86.4017 193.073V189.063H87.8909ZM91.0706 190.277V194.262C91.0706 194.532 91.1316 194.728 91.2535 194.849C91.3842 194.963 91.6019 195.019 91.9067 195.019H92.8211V196.26H91.6454C90.9748 196.26 90.461 196.103 90.104 195.79C89.7469 195.476 89.5684 194.967 89.5684 194.262V190.277H88.7193V189.063H89.5684V187.273H91.0706V189.063H92.8211V190.277H91.0706ZM100.268 192.485C100.268 192.755 100.251 192.999 100.216 193.217H94.7162C94.7597 193.791 94.9731 194.253 95.3562 194.601C95.7394 194.95 96.2097 195.124 96.7671 195.124C97.5683 195.124 98.1343 194.788 98.4653 194.118H100.072C99.8543 194.78 99.458 195.324 98.8833 195.751C98.3172 196.169 97.6118 196.378 96.7671 196.378C96.0791 196.378 95.4607 196.225 94.9121 195.921C94.3722 195.607 93.9454 195.172 93.6319 194.614C93.3271 194.048 93.1747 193.395 93.1747 192.655C93.1747 191.915 93.3228 191.266 93.6189 190.708C93.9237 190.142 94.346 189.707 94.886 189.402C95.4346 189.097 96.0616 188.945 96.7671 188.945C97.4463 188.945 98.0516 189.093 98.5828 189.389C99.114 189.685 99.5277 190.103 99.8238 190.643C100.12 191.174 100.268 191.788 100.268 192.485ZM98.7134 192.015C98.7047 191.466 98.5088 191.026 98.1256 190.695C97.7424 190.364 97.2678 190.199 96.7017 190.199C96.1879 190.199 95.7481 190.364 95.3824 190.695C95.0166 191.018 94.7989 191.457 94.7292 192.015H98.7134ZM102.7 190.134C102.953 189.785 103.297 189.502 103.732 189.285C104.176 189.058 104.668 188.945 105.208 188.945C105.844 188.945 106.419 189.097 106.933 189.402C107.446 189.707 107.851 190.142 108.147 190.708C108.444 191.266 108.592 191.906 108.592 192.629C108.592 193.352 108.444 194 108.147 194.575C107.851 195.141 107.442 195.585 106.92 195.908C106.406 196.221 105.835 196.378 105.208 196.378C104.651 196.378 104.154 196.269 103.719 196.051C103.292 195.834 102.953 195.555 102.7 195.215V196.26H101.211V186.594H102.7V190.134ZM107.076 192.629C107.076 192.132 106.972 191.706 106.763 191.349C106.562 190.983 106.292 190.708 105.953 190.526C105.622 190.334 105.265 190.238 104.882 190.238C104.507 190.238 104.15 190.334 103.81 190.526C103.48 190.717 103.21 190.996 103.001 191.362C102.8 191.727 102.7 192.158 102.7 192.655C102.7 193.151 102.8 193.587 103.001 193.961C103.21 194.327 103.48 194.606 103.81 194.797C104.15 194.989 104.507 195.085 104.882 195.085C105.265 195.085 105.622 194.989 105.953 194.797C106.292 194.597 106.562 194.31 106.763 193.935C106.972 193.561 107.076 193.125 107.076 192.629ZM112.664 196.378C111.985 196.378 111.371 196.225 110.822 195.921C110.273 195.607 109.842 195.172 109.529 194.614C109.215 194.048 109.058 193.395 109.058 192.655C109.058 191.923 109.219 191.275 109.542 190.708C109.864 190.142 110.304 189.707 110.861 189.402C111.418 189.097 112.041 188.945 112.729 188.945C113.417 188.945 114.04 189.097 114.597 189.402C115.154 189.707 115.594 190.142 115.916 190.708C116.239 191.275 116.4 191.923 116.4 192.655C116.4 193.386 116.234 194.035 115.903 194.601C115.572 195.167 115.12 195.607 114.545 195.921C113.979 196.225 113.352 196.378 112.664 196.378ZM112.664 195.085C113.047 195.085 113.404 194.993 113.735 194.81C114.075 194.627 114.349 194.353 114.558 193.987C114.767 193.622 114.871 193.177 114.871 192.655C114.871 192.132 114.771 191.693 114.571 191.335C114.371 190.97 114.105 190.695 113.774 190.513C113.443 190.33 113.086 190.238 112.703 190.238C112.32 190.238 111.963 190.33 111.632 190.513C111.31 190.695 111.053 190.97 110.861 191.335C110.669 191.693 110.574 192.132 110.574 192.655C110.574 193.43 110.77 194.031 111.162 194.458C111.562 194.876 112.063 195.085 112.664 195.085ZM118.839 186.594V196.26H117.349V186.594H118.839ZM120.872 196.352C120.602 196.352 120.376 196.26 120.193 196.077C120.01 195.894 119.919 195.668 119.919 195.398C119.919 195.128 120.01 194.902 120.193 194.719C120.376 194.536 120.602 194.444 120.872 194.444C121.133 194.444 121.356 194.536 121.538 194.719C121.721 194.902 121.813 195.128 121.813 195.398C121.813 195.668 121.721 195.894 121.538 196.077C121.356 196.26 121.133 196.352 120.872 196.352Z" fill="#1D1D1D"/>
</svg>
