<svg width="1392" height="184" viewBox="0 0 1392 184" fill="none" xmlns="http://www.w3.org/2000/svg">
<path d="M206.174 175.604C159.173 169.579 123.018 155.519 125.026 144.27C127.035 133.022 166.403 129.005 213.405 135.031C240.32 138.646 264.021 144.672 278.483 151.501V138.245V124.184V53.4819C256.79 46.6527 231.08 42.6355 203.763 42.6355C123.821 42.6355 59.1445 76.3799 59.1445 117.757C59.1445 133.424 68.3841 147.886 84.0512 159.536C106.547 174.399 136.676 183.639 169.617 183.639C186.489 183.639 202.157 181.228 217.02 176.81C213.003 176.408 209.789 176.006 206.174 175.604Z" fill="#FF5C00"/>
<path d="M57.0224 67.7638C72.4341 48.8402 75.7235 26.0034 64.3693 16.7564C53.0152 7.50935 31.3171 15.3537 15.9054 34.2773C0.493636 53.2009 -2.79561 76.0377 8.55855 85.2848C19.9127 94.5318 41.6107 86.6874 57.0224 67.7638Z" fill="#FF5C00"/>
<path d="M584.006 148.093H562.353L559.504 140.115C547.538 147.523 533.292 150.942 517.338 150.942C504.232 150.942 492.266 148.663 482.009 143.534C471.183 138.976 463.205 132.138 456.937 123.591C450.669 115.044 447.82 105.927 447.82 95.6701C447.82 85.4134 450.669 75.7266 456.937 67.1794C463.205 58.6322 471.752 52.3643 482.009 47.236C492.836 42.6775 504.232 39.8284 517.338 39.8284C528.734 39.8284 539.56 41.5379 548.677 44.9567C557.794 48.3756 565.772 52.9341 572.039 59.2021C578.307 65.47 582.296 73.4474 584.006 81.9946H547.538C545.828 76.2965 541.839 72.3077 536.141 70.0285C530.443 67.7492 524.175 66.0398 517.338 66.0398C511.639 66.0398 505.941 67.1795 501.383 69.4587C496.824 71.738 492.835 75.1568 489.986 79.1455C487.137 83.704 485.998 88.2625 485.998 93.9606C485.998 99.6587 487.137 104.787 489.986 109.346C492.835 113.904 496.824 116.753 501.383 119.032C505.941 121.312 511.639 122.451 517.338 122.451C523.036 122.451 528.734 121.312 533.292 119.032C538.421 116.753 542.409 113.904 545.258 109.346H517.907V90.5418H584.006V103.078V148.093Z" fill="#1D1D1D"/>
<path d="M622.753 84.2731C630.161 75.7259 642.127 71.1674 658.651 69.458V93.9599H639.848C634.15 93.9599 629.591 96.2392 627.312 100.798C624.463 105.356 623.323 111.054 623.323 117.892V148.092H590.844V71.1674H620.474L622.753 84.2731Z" fill="#1D1D1D"/>
<path d="M752.671 74.5873C763.497 79.1458 768.625 87.1231 768.625 98.5194V148.093H737.855L735.576 137.837V137.267C733.297 141.255 728.169 144.674 720.761 146.384C713.354 148.093 704.806 149.233 695.689 149.233C688.282 149.233 681.444 147.523 674.037 144.674C666.629 141.255 663.21 134.987 663.21 124.731C663.21 108.776 673.467 100.799 694.55 100.799C707.655 100.799 717.342 100.799 722.471 100.229C727.599 100.229 731.018 99.6591 732.727 99.0892C734.437 98.5194 735.576 96.81 735.576 95.1006V93.3911C735.576 90.542 733.297 88.2628 729.308 86.5534C725.32 84.8439 720.761 84.2741 715.633 84.2741C710.504 84.2741 705.946 85.4137 701.957 87.1231C697.969 88.8326 696.259 91.6816 696.259 95.6703H663.78C663.78 88.2628 666.629 82.5646 672.327 78.5759C678.025 74.0174 684.863 71.1684 692.84 69.459C700.818 67.7496 708.225 67.1797 716.203 67.1797C729.878 67.7495 742.414 70.0288 752.671 74.5873ZM730.448 124.161C733.867 121.312 736.146 117.323 736.146 112.195V110.485C732.727 112.195 727.029 112.765 719.052 112.765C711.074 112.765 705.376 113.335 701.957 114.474C698.538 115.614 696.829 117.893 696.829 120.742C696.829 123.591 698.538 125.87 701.387 127.01C704.237 128.15 708.225 129.289 714.493 129.289C721.331 128.72 727.029 127.58 730.448 124.161Z" fill="#1D1D1D"/>
<path d="M868.341 79.7146C874.609 87.1221 878.028 99.0882 878.028 116.183V148.092H845.549V116.752C845.549 111.054 844.979 105.926 844.409 101.937C843.839 97.9486 842.13 95.0996 839.851 92.2505C837.571 89.9713 833.583 88.2617 827.885 88.2617C822.187 88.2617 818.198 89.4014 815.349 91.6807C812.5 93.9599 810.79 97.3788 810.22 100.798C809.651 104.786 809.081 109.345 809.081 115.613V146.952H776.602V70.0278H809.081V79.7146C816.488 71.7372 827.315 67.7485 841.56 67.7485C852.956 68.3183 862.073 72.307 868.341 79.7146Z" fill="#1D1D1D"/>
<path d="M957.232 43.2478H989.711V147.524H960.081L958.372 138.407C950.394 146.384 937.858 149.803 920.764 149.233C913.356 149.233 907.088 147.524 901.39 143.535C895.692 140.116 891.134 134.988 888.285 128.72C884.866 122.452 883.156 115.614 883.156 107.637V107.067V106.497C883.156 99.6593 884.866 93.3913 888.285 87.1234C891.134 80.8554 895.692 76.297 901.39 72.3083C907.088 68.3196 913.356 66.6102 920.764 66.6102C937.288 66.6102 949.255 70.029 957.232 77.4366V43.2478ZM947.545 127.58C950.394 125.871 953.243 123.022 954.953 119.603C956.662 116.184 957.802 112.765 957.802 109.346V108.776C957.802 101.939 956.092 96.8102 952.104 92.8215C948.115 88.8328 943.556 87.1234 937.858 87.1234C931.021 87.1234 925.892 89.4027 922.473 93.3914C919.054 97.3801 916.775 102.508 916.775 108.206C916.775 114.474 918.485 120.173 922.473 124.161C925.892 128.15 931.021 130.429 937.858 130.429C940.707 130.429 944.126 129.29 947.545 127.58Z" fill="#1D1D1D"/>
<path d="M1103.1 112.765H1027.89C1028.46 118.463 1030.74 123.591 1034.73 127.58C1038.71 131.569 1043.84 133.278 1050.11 133.278C1055.24 133.278 1060.37 132.138 1064.36 129.289C1068.35 126.44 1070.62 122.452 1070.62 117.323H1103.1C1103.1 128.15 1098.55 136.697 1088.86 142.395C1079.74 148.093 1066.64 150.942 1049.54 150.942C1039.28 150.942 1030.17 149.233 1021.62 145.814C1013.07 142.395 1006.81 137.267 1001.68 130.999C996.549 124.731 994.27 117.323 994.27 109.346C994.27 100.799 996.549 93.9609 1001.68 87.1231C1006.81 80.2854 1013.07 75.7269 1021.62 72.3081C1030.17 68.8892 1039.28 67.1797 1049.54 67.1797C1060.37 67.1797 1069.48 68.8892 1077.46 72.3081C1085.44 75.7269 1091.71 80.2854 1096.27 86.5534C1100.82 92.8213 1103.1 100.229 1103.1 108.206V108.776V112.765ZM1035.87 88.2627C1032.45 91.1118 1030.17 94.5307 1029.03 99.0892H1070.05C1068.92 94.5307 1067.21 90.542 1063.79 88.2627C1060.94 85.4137 1056.38 84.2741 1050.11 84.2741C1043.84 84.2741 1039.28 85.9835 1035.87 88.2627Z" fill="#1D1D1D"/>
<path d="M395.968 75.7269C403.945 79.1458 410.783 84.2742 415.342 90.5421C419.9 96.81 422.18 104.218 422.18 112.195C422.18 120.172 419.9 127.01 415.342 133.278C410.783 139.546 404.515 144.674 395.968 148.093C387.991 151.512 378.874 153.222 368.617 153.222C358.93 153.222 349.813 151.512 341.266 147.523C332.719 143.535 325.881 138.976 320.753 132.708C315.625 126.44 312.775 119.033 312.775 111.625C312.775 103.648 315.625 96.81 320.753 90.5421C325.881 84.2742 332.719 79.1458 341.266 75.7269C349.813 72.3081 358.93 70.0288 369.187 70.0288C378.874 70.5986 387.991 72.3081 395.968 75.7269ZM378.874 130.999C382.293 129.289 384.572 127.01 386.851 123.591C388.561 120.172 389.7 116.184 389.7 112.195C389.7 107.637 388.561 103.648 386.851 100.799C385.142 97.3799 382.293 95.1006 378.874 93.3912C375.455 91.6817 372.036 91.1119 368.617 91.1119C365.198 91.1119 361.21 91.6817 357.791 93.3912C354.372 95.1006 351.523 97.3799 349.244 100.799C346.964 104.218 345.825 107.637 345.825 112.195C345.825 116.754 346.964 120.742 349.244 123.591C351.523 127.01 354.372 129.289 357.791 130.999C361.21 132.708 365.198 133.278 368.617 133.278C372.036 133.848 376.025 132.708 378.874 130.999Z" fill="#1D1D1D"/>
<path d="M1137.29 158.92L1149.26 152.083V86.5541H1164.08V161.769L1136.72 176.015V158.92H1137.29ZM1156.67 57.4937C1162.37 57.4937 1166.35 61.4823 1166.35 67.1805C1166.35 72.8786 1161.8 76.8673 1156.67 76.8673C1150.97 76.8673 1146.98 72.8786 1146.98 67.1805C1146.98 61.4823 1151.54 57.4937 1156.67 57.4937Z" fill="#FF5C00"/>
<path d="M1176.04 117.323C1176.04 98.5195 1190.29 85.4138 1209.09 85.4138C1227.89 85.4138 1242.14 98.5195 1242.14 117.323C1242.14 136.127 1227.89 149.233 1209.09 149.233C1190.29 149.233 1176.04 136.127 1176.04 117.323ZM1209.09 135.557C1219.35 135.557 1227.32 128.15 1227.32 117.323C1227.32 107.067 1219.35 99.0894 1209.09 99.0894C1198.83 99.0894 1190.86 107.067 1190.86 117.323C1190.86 127.58 1198.83 135.557 1209.09 135.557Z" fill="#FF5C00"/>
<path d="M1299.12 146.384V140.686C1295.7 145.245 1288.3 148.664 1279.75 148.664C1263.22 148.664 1249.55 136.697 1249.55 117.324C1249.55 97.9502 1263.22 85.9841 1279.75 85.9841C1288.3 85.9841 1295.7 89.9728 1299.12 94.5313V87.1237H1313.94V145.814C1313.94 162.339 1303.11 177.154 1281.46 177.154C1266.64 177.154 1255.82 168.607 1251.83 158.35L1264.36 151.513C1267.21 158.35 1273.48 162.339 1281.46 162.339C1293.42 162.339 1299.12 154.932 1299.12 146.384ZM1282.03 134.418C1292.28 134.418 1299.12 126.441 1299.12 116.754C1299.12 106.497 1292.28 99.0898 1282.03 99.0898C1271.77 99.0898 1264.93 106.497 1264.93 116.754C1264.93 127.011 1271.77 134.418 1282.03 134.418Z" fill="#FF5C00"/>
<path d="M1325.9 117.323C1325.9 98.5195 1340.15 85.4138 1358.95 85.4138C1377.76 85.4138 1392 98.5195 1392 117.323C1392 136.127 1377.76 149.233 1358.95 149.233C1340.15 149.233 1325.9 136.127 1325.9 117.323ZM1358.95 135.557C1369.21 135.557 1377.19 128.15 1377.19 117.323C1377.19 107.067 1369.21 99.0894 1358.95 99.0894C1348.69 99.0894 1340.72 107.067 1340.72 117.323C1340.72 127.58 1348.69 135.557 1358.95 135.557Z" fill="#FF5C00"/>
</svg>
