<svg width="41" height="40" viewBox="0 0 41 40" fill="none" xmlns="http://www.w3.org/2000/svg">
<path opacity="0.4" d="M27.6031 3.3335H13.6365C7.56979 3.3335 3.95312 6.95016 3.95312 13.0168V26.9668C3.95312 33.0502 7.56979 36.6668 13.6365 36.6668H27.5865C33.6531 36.6668 37.2698 33.0502 37.2698 26.9835V13.0168C37.2865 6.95016 33.6698 3.3335 27.6031 3.3335Z" fill="white"/>
<path d="M20.6195 26.4665C24.1909 26.4665 27.0862 23.5713 27.0862 19.9999C27.0862 16.4284 24.1909 13.5332 20.6195 13.5332C17.0481 13.5332 14.1528 16.4284 14.1528 19.9999C14.1528 23.5713 17.0481 26.4665 20.6195 26.4665Z" fill="white"/>
<path d="M28.9528 12.4998C28.5028 12.4998 28.0861 12.3332 27.7695 12.0165C27.6195 11.8498 27.5028 11.6665 27.4195 11.4665C27.3361 11.2665 27.2861 11.0498 27.2861 10.8332C27.2861 10.6165 27.3361 10.3998 27.4195 10.1998C27.5028 9.98317 27.6195 9.81651 27.7695 9.64984C28.1528 9.26651 28.7361 9.08317 29.2695 9.19984C29.3861 9.21651 29.4861 9.24984 29.5861 9.29984C29.6861 9.33317 29.7861 9.38317 29.8861 9.44984C29.9695 9.49984 30.0528 9.58317 30.1361 9.64984C30.2861 9.81651 30.4028 9.98317 30.4861 10.1998C30.5695 10.3998 30.6195 10.6165 30.6195 10.8332C30.6195 11.0498 30.5695 11.2665 30.4861 11.4665C30.4028 11.6665 30.2861 11.8498 30.1361 12.0165C29.9695 12.1665 29.7861 12.2832 29.5861 12.3665C29.3861 12.4498 29.1695 12.4998 28.9528 12.4998Z" fill="white"/>
</svg>
