<svg width="72" height="65" viewBox="0 0 72 65" fill="none" xmlns="http://www.w3.org/2000/svg">
<path d="M25.1795 0L19.0715 10.6358H6.11628L0 0H25.1795Z" fill="white"/>
<path d="M37.408 0L12.501 43.3524H24.7294L43.5284 10.6358H65.499L71.6194 0H37.408Z" fill="white"/>
<path d="M59.1555 21.6782L53.0475 32.314H37.1807V21.6782H59.1555Z" fill="white"/>
<path d="M0.909756 59.3462V58.8959H4.05413V59.3462H2.73579V63.0884H2.2281V59.3462H0.909756ZM4.83766 63.0884V58.8959H7.3679V59.3462H5.34535V60.7629H7.23689V61.2132H5.34535V62.638H7.40066V63.0884H4.83766ZM8.28296 58.8959H8.88891L10.3137 62.376H10.3628L11.7876 58.8959H12.3936V63.0884H11.9186V59.9031H11.8777L10.5675 63.0884H10.109L8.79884 59.9031H8.7579V63.0884H8.28296V58.8959ZM13.4115 63.0884V58.8959H14.8281C15.157 58.8959 15.4259 58.9552 15.6347 59.074C15.8448 59.1913 16.0004 59.3503 16.1014 59.551C16.2024 59.7516 16.2529 59.9754 16.2529 60.2224C16.2529 60.4694 16.2024 60.6939 16.1014 60.8959C16.0018 61.0979 15.8476 61.2589 15.6388 61.379C15.43 61.4978 15.1625 61.5571 14.8363 61.5571H13.8209V61.1068H14.8199C15.0451 61.1068 15.2259 61.0679 15.3624 60.9901C15.4989 60.9123 15.5978 60.8072 15.6592 60.6748C15.722 60.5411 15.7534 60.3903 15.7534 60.2224C15.7534 60.0545 15.722 59.9044 15.6592 59.772C15.5978 59.6397 15.4982 59.5359 15.3604 59.4609C15.2225 59.3845 15.0396 59.3462 14.8117 59.3462H13.9192V63.0884H13.4115ZM20.6082 60.9921C20.6082 61.4343 20.5283 61.8164 20.3686 62.1385C20.209 62.4606 19.9899 62.709 19.7115 62.8837C19.4331 63.0584 19.1151 63.1457 18.7576 63.1457C18.4 63.1457 18.082 63.0584 17.8036 62.8837C17.5252 62.709 17.3062 62.4606 17.1465 62.1385C16.9868 61.8164 16.907 61.4343 16.907 60.9921C16.907 60.55 16.9868 60.1678 17.1465 59.8457C17.3062 59.5237 17.5252 59.2753 17.8036 59.1006C18.082 58.9259 18.4 58.8386 18.7576 58.8386C19.1151 58.8386 19.4331 58.9259 19.7115 59.1006C19.9899 59.2753 20.209 59.5237 20.3686 59.8457C20.5283 60.1678 20.6082 60.55 20.6082 60.9921ZM20.1168 60.9921C20.1168 60.6291 20.0561 60.3227 19.9347 60.073C19.8146 59.8232 19.6515 59.6342 19.4454 59.5059C19.2407 59.3776 19.0114 59.3135 18.7576 59.3135C18.5037 59.3135 18.2738 59.3776 18.0677 59.5059C17.863 59.6342 17.6999 59.8232 17.5784 60.073C17.4583 60.3227 17.3983 60.6291 17.3983 60.9921C17.3983 61.3552 17.4583 61.6615 17.5784 61.9113C17.6999 62.161 17.863 62.3501 18.0677 62.4783C18.2738 62.6066 18.5037 62.6708 18.7576 62.6708C19.0114 62.6708 19.2407 62.6066 19.4454 62.4783C19.6515 62.3501 19.8146 62.161 19.9347 61.9113C20.0561 61.6615 20.1168 61.3552 20.1168 60.9921ZM24.3769 63.0884H23.0831V58.8959H24.4342C24.8409 58.8959 25.1889 58.9798 25.4782 59.1477C25.7676 59.3142 25.9893 59.5537 26.1436 59.8662C26.2978 60.1774 26.3749 60.55 26.3749 60.9839C26.3749 61.4207 26.2971 61.7966 26.1415 62.1119C25.9859 62.4258 25.7594 62.6674 25.4619 62.8366C25.1644 63.0044 24.8027 63.0884 24.3769 63.0884ZM23.5908 62.638H24.3441C24.6908 62.638 24.9781 62.5711 25.206 62.4374C25.4339 62.3037 25.6038 62.1133 25.7157 61.8662C25.8276 61.6192 25.8836 61.3251 25.8836 60.9839C25.8836 60.6455 25.8283 60.3541 25.7178 60.1098C25.6072 59.8642 25.4421 59.6758 25.2224 59.5448C25.0026 59.4124 24.729 59.3462 24.4015 59.3462H23.5908V62.638ZM27.2265 63.0884V58.8959H29.7567V59.3462H27.7342V60.7629H29.6257V61.2132H27.7342V62.638H29.7895V63.0884H27.2265Z" fill="white"/>
<path d="M30.6718 63.0884V58.8959H33.1856V59.3462H31.1795V60.7629H32.9973V61.2132H31.1795V63.0884H30.6718ZM36.8065 58.8959H37.3142V61.6718C37.3142 61.9584 37.2466 62.2143 37.1115 62.4394C36.9778 62.6633 36.7887 62.84 36.5445 62.9696C36.3002 63.0979 36.0136 63.1621 35.6847 63.1621C35.3558 63.1621 35.0692 63.0979 34.8249 62.9696C34.5806 62.84 34.3909 62.6633 34.2558 62.4394C34.122 62.2143 34.0552 61.9584 34.0552 61.6718V58.8959H34.5628V61.6308C34.5628 61.8355 34.6079 62.0177 34.698 62.1774C34.788 62.3357 34.9163 62.4606 35.0828 62.552C35.2507 62.6421 35.4513 62.6871 35.6847 62.6871C35.918 62.6871 36.1187 62.6421 36.2865 62.552C36.4544 62.4606 36.5827 62.3357 36.6714 62.1774C36.7615 62.0177 36.8065 61.8355 36.8065 61.6308V58.8959ZM38.0987 59.3462V58.8959H41.2431V59.3462H39.9248V63.0884H39.4171V59.3462H38.0987ZM42.0266 63.0884V58.8959H44.5569V59.3462H42.5343V60.7629H44.4259V61.2132H42.5343V62.638H44.5896V63.0884H42.0266ZM45.4719 63.0884V58.8959H46.9377C47.2297 58.8959 47.4706 58.9464 47.6603 59.0474C47.85 59.147 47.9913 59.2814 48.0841 59.4506C48.1769 59.6185 48.2233 59.8048 48.2233 60.0095C48.2233 60.1897 48.1912 60.3384 48.1271 60.4558C48.0643 60.5732 47.981 60.666 47.8773 60.7342C47.775 60.8024 47.6637 60.8529 47.5436 60.8857V60.9266C47.6719 60.9348 47.8009 60.9798 47.9305 61.0617C48.0602 61.1436 48.1687 61.261 48.256 61.4138C48.3434 61.5667 48.387 61.7537 48.387 61.9747C48.387 62.1849 48.3393 62.3739 48.2437 62.5418C48.1482 62.7097 47.9974 62.8427 47.7913 62.941C47.5853 63.0392 47.3171 63.0884 46.9868 63.0884H45.4719ZM45.9796 62.638H46.9868C47.3184 62.638 47.5539 62.5739 47.6931 62.4456C47.8336 62.3159 47.9039 62.159 47.9039 61.9747C47.9039 61.8328 47.8678 61.7018 47.7954 61.5817C47.7231 61.4602 47.6201 61.3633 47.4863 61.291C47.3526 61.2173 47.1943 61.1805 47.0114 61.1805H45.9796V62.638ZM45.9796 60.7383H46.9213C47.0742 60.7383 47.212 60.7083 47.3348 60.6482C47.459 60.5882 47.5573 60.5036 47.6296 60.3944C47.7033 60.2852 47.7401 60.1569 47.7401 60.0095C47.7401 59.8253 47.676 59.669 47.5477 59.5407C47.4194 59.4111 47.2161 59.3462 46.9377 59.3462H45.9796V60.7383ZM52.7587 60.9921C52.7587 61.4343 52.6788 61.8164 52.5191 62.1385C52.3595 62.4606 52.1404 62.709 51.862 62.8837C51.5836 63.0584 51.2656 63.1457 50.9081 63.1457C50.5505 63.1457 50.2325 63.0584 49.9541 62.8837C49.6757 62.709 49.4567 62.4606 49.297 62.1385C49.1373 61.8164 49.0575 61.4343 49.0575 60.9921C49.0575 60.55 49.1373 60.1678 49.297 59.8457C49.4567 59.5237 49.6757 59.2753 49.9541 59.1006C50.2325 58.9259 50.5505 58.8386 50.9081 58.8386C51.2656 58.8386 51.5836 58.9259 51.862 59.1006C52.1404 59.2753 52.3595 59.5237 52.5191 59.8457C52.6788 60.1678 52.7587 60.55 52.7587 60.9921ZM52.2674 60.9921C52.2674 60.6291 52.2066 60.3227 52.0852 60.073C51.9651 59.8232 51.802 59.6342 51.5959 59.5059C51.3912 59.3776 51.1619 59.3135 50.9081 59.3135C50.6542 59.3135 50.4243 59.3776 50.2182 59.5059C50.0135 59.6342 49.8504 59.8232 49.7289 60.073C49.6088 60.3227 49.5488 60.6291 49.5488 60.9921C49.5488 61.3552 49.6088 61.6615 49.7289 61.9113C49.8504 62.161 50.0135 62.3501 50.2182 62.4783C50.4243 62.6066 50.6542 62.6708 50.9081 62.6708C51.1619 62.6708 51.3912 62.6066 51.5959 62.4783C51.802 62.3501 51.9651 62.161 52.0852 61.9113C52.2066 61.6615 52.2674 61.3552 52.2674 60.9921ZM53.6123 63.0884V58.8959H54.12V62.638H56.0688V63.0884H53.6123Z" fill="#25CA71"/>
</svg>
