<svg width="292" height="63" viewBox="0 0 292 63" fill="none" xmlns="http://www.w3.org/2000/svg">
<g clip-path="url(#clip0_1_1388)">
<path d="M138.911 17.6569C140.138 17.8966 141.082 18.3361 141.703 18.9353C142.336 19.5346 142.646 20.3868 142.646 21.5054V21.5853C142.646 22.7705 142.323 23.6893 141.676 24.3418C141.028 24.9943 140.138 25.4471 138.992 25.7134C137.846 25.9664 136.403 26.0862 134.676 26.0996H133.759L122.432 26.0729V10H135.701C137.401 10.0133 138.763 10.3595 139.774 11.0387C140.785 11.7178 141.298 12.6766 141.298 13.9283V14.0082C141.298 14.9537 141.096 15.7128 140.705 16.312C140.3 16.9245 139.707 17.364 138.911 17.6569ZM136.821 14.6474C136.821 14.1148 136.699 13.7286 136.443 13.5022C136.2 13.2492 135.863 13.1027 135.459 13.0495C135.068 12.9962 134.488 12.9562 133.746 12.9562H126.774V16.3519L132.06 16.3919H133.759C134.555 16.3919 135.135 16.3653 135.499 16.3253C135.863 16.2854 136.187 16.1389 136.443 15.8859C136.686 15.6462 136.821 15.2334 136.821 14.6474ZM134.461 22.8903C135.351 22.8903 136.025 22.8637 136.47 22.7971C136.915 22.7305 137.266 22.5574 137.522 22.2777C137.792 21.9981 137.913 21.5587 137.913 20.9461C137.913 20.3336 137.778 19.9207 137.522 19.6677C137.252 19.3881 136.902 19.2283 136.47 19.1617C136.025 19.1084 135.364 19.0818 134.461 19.0818H126.76V22.837C129.943 22.837 132.209 22.8504 133.557 22.877L134.461 22.8903Z" fill="#F0F0F0"/>
<path d="M148.27 26.0862H143.982V10H148.27V26.0862Z" fill="#F0F0F0"/>
<path d="M157.939 13.7417C159.477 13.7417 160.866 14.0213 162.093 14.5673C163.32 15.1133 164.291 15.8856 164.979 16.8711C165.68 17.8432 166.031 18.9351 166.031 20.1469C166.031 21.3587 165.68 22.4373 164.979 23.4227C164.291 24.3948 163.334 25.1539 162.093 25.6999C160.866 26.2458 159.477 26.5255 157.939 26.5255C156.402 26.5255 155.067 26.2458 153.786 25.6999C152.491 25.1406 151.466 24.3682 150.684 23.3961C149.915 22.4107 149.538 21.3187 149.538 20.1336C149.538 18.9484 149.915 17.8432 150.684 16.8711C151.466 15.8856 152.491 15.1133 153.786 14.5673C155.067 14.0213 156.456 13.7417 157.939 13.7417ZM157.939 23.7956C158.991 23.7956 159.895 23.4893 160.65 22.8635C161.392 22.2376 161.769 21.3321 161.769 20.1469C161.769 18.9617 161.392 18.0296 160.65 17.4037C159.895 16.7778 159.005 16.4716 157.939 16.4716C157.265 16.4716 156.604 16.6047 155.984 16.8844C155.364 17.1507 154.865 17.5502 154.46 18.0962C154.069 18.6421 153.867 19.3213 153.867 20.1336C153.867 20.9459 154.069 21.5984 154.46 22.1577C154.851 22.7036 155.364 23.1165 155.984 23.3961C156.604 23.6758 157.265 23.7956 157.939 23.7956Z" fill="#F0F0F0"/>
<path d="M166.813 20.2138C166.813 19.002 167.177 17.9101 167.892 16.938C168.606 15.9525 169.591 15.1802 170.845 14.6342C172.086 14.0882 173.475 13.8086 174.985 13.8086C177.156 13.8086 178.896 14.2747 180.204 15.2201C181.526 16.1523 182.389 17.404 182.807 18.9754H178.491C178.316 18.2696 177.911 17.6837 177.278 17.2442C176.657 16.7782 175.902 16.5518 175.012 16.5518C173.839 16.5518 172.908 16.898 172.22 17.5771C171.533 18.243 171.182 19.1218 171.182 20.2271C171.182 20.8796 171.33 21.4922 171.627 22.0515C171.924 22.5974 172.342 23.0502 172.908 23.3964C173.475 23.7293 174.149 23.9024 174.931 23.9024C175.862 23.9024 176.63 23.6761 177.264 23.2233C177.911 22.7572 178.316 22.1846 178.478 21.4922H182.793C182.645 22.4243 182.213 23.2766 181.499 24.0756C180.784 24.8612 179.853 25.4738 178.707 25.9399C177.574 26.4059 176.347 26.6323 175.012 26.6323C173.529 26.6323 172.167 26.3527 170.912 25.8067C169.672 25.2474 168.674 24.475 167.946 23.503C167.177 22.5175 166.813 21.4123 166.813 20.2138Z" fill="#F0F0F0"/>
<path d="M192.395 19.5479L199.057 26.0862H193.946L188.053 20.4401V26.0862H183.764V10H188.053V18.6956L193.096 14.2346H198.288L192.395 19.5479Z" fill="#F0F0F0"/>
<path d="M197.627 20.2138C197.627 19.002 197.992 17.9101 198.706 16.938C199.421 15.9525 200.405 15.1802 201.66 14.6342C202.9 14.0882 204.289 13.8086 205.8 13.8086C207.971 13.8086 209.711 14.2747 211.019 15.2201C212.34 16.1523 213.203 17.404 213.621 18.9754H209.306C209.131 18.2696 208.726 17.6837 208.092 17.2442C207.472 16.7782 206.717 16.5518 205.827 16.5518C204.653 16.5518 203.723 16.898 203.035 17.5771C202.347 18.243 201.997 19.1218 201.997 20.2271C201.997 20.8796 202.145 21.4922 202.442 22.0515C202.739 22.5974 203.157 23.0502 203.723 23.3964C204.289 23.7293 204.964 23.9024 205.746 23.9024C206.676 23.9024 207.445 23.6761 208.079 23.2233C208.726 22.7572 209.131 22.1846 209.293 21.4922H213.608C213.46 22.4243 213.028 23.2766 212.313 24.0756C211.599 24.8612 210.668 25.4738 209.522 25.9399C208.389 26.4059 207.162 26.6323 205.827 26.6323C204.343 26.6323 202.981 26.3527 201.741 25.8067C200.5 25.2474 199.502 24.475 198.774 23.503C197.992 22.5175 197.627 21.4123 197.627 20.2138Z" fill="#F0F0F0"/>
<path d="M224.1 13.8485C225.732 13.8485 227.067 14.4211 228.105 15.5796C229.157 16.7381 229.696 18.6024 229.696 21.1858V26.0729H225.408V21.2524C225.408 20.3202 225.34 19.5479 225.206 18.9087C225.084 18.2695 224.801 17.7368 224.343 17.2974C223.884 16.858 223.196 16.6449 222.279 16.6449C221.349 16.6449 220.58 16.8713 220.095 17.324C219.623 17.7768 219.326 18.3228 219.191 18.9753C219.056 19.6145 218.989 20.3868 218.989 21.3057V26.0862H214.7V10H218.989V15.6994C220.108 14.461 221.807 13.8485 224.1 13.8485Z" fill="#F0F0F0"/>
<path d="M238.826 13.7153C240.849 13.7153 242.656 14.0616 244.261 14.754C245.866 15.4465 246.661 16.6716 246.661 18.4293V26.073H242.656L242.305 24.2753V24.1687C241.968 24.8345 241.186 25.3539 239.972 25.7401C238.772 26.1129 237.451 26.2994 236.035 26.2994C234.888 26.2994 233.729 26.073 232.555 25.6069C231.382 25.1275 230.789 24.1021 230.789 22.5441C230.789 20.9861 231.288 20.0673 232.286 19.5879C233.297 19.1085 234.389 18.8688 235.536 18.8688C237.774 18.8688 239.339 18.8555 240.202 18.8288C241.065 18.7889 241.631 18.709 241.901 18.5891C242.184 18.4693 242.332 18.2562 242.346 17.9633V17.7236C242.332 17.2175 241.968 16.8314 241.24 16.5517C240.539 16.2588 239.716 16.1123 238.799 16.1123C237.801 16.1123 236.952 16.2721 236.25 16.6183C235.563 16.9379 235.212 17.4439 235.212 18.1231H230.924C230.924 17.0045 231.355 16.1256 232.205 15.4731C233.068 14.8206 234.093 14.3678 235.279 14.1281C236.48 13.8485 237.666 13.7153 238.826 13.7153ZM242.319 20.1738C241.618 20.4934 240.539 20.6532 239.082 20.6532C238.098 20.6532 237.329 20.6931 236.776 20.7597C236.237 20.8263 235.832 20.9595 235.563 21.1459C235.306 21.319 235.185 21.5853 235.172 21.9316C235.212 22.411 235.468 22.7705 235.913 23.0235C236.385 23.2632 237.167 23.3964 238.273 23.3964C239.73 23.3964 240.755 23.0901 241.375 22.4642C242.009 21.8384 242.319 21.0926 242.319 20.2004V20.1738Z" fill="#F0F0F0"/>
<path d="M252.393 10H248.104V12.9562H252.393V10ZM252.393 26.0862H248.104V13.5954H252.393V26.0862Z" fill="#F0F0F0"/>
<path d="M263.302 13.8486C265.029 13.8486 266.391 14.4079 267.348 15.5398C268.319 16.6717 268.805 18.5493 268.805 21.186V26.0731H264.516V21.2526C264.516 20.3204 264.449 19.5481 264.314 18.9089C264.193 18.2697 263.909 17.737 263.451 17.2976C262.992 16.8581 262.305 16.6451 261.388 16.6451C260.471 16.6451 259.688 16.8581 259.203 17.2976C258.731 17.7104 258.434 18.2564 258.299 18.9089C258.164 19.5481 258.097 20.3471 258.097 21.3058V26.0864H253.809V14.2481H258.097V15.7662C259.243 14.4878 260.983 13.8486 263.302 13.8486Z" fill="#F0F0F0"/>
<path d="M133.625 38.4174C135.162 38.4174 136.497 38.5106 137.63 38.697C138.763 38.8835 139.693 39.2963 140.448 39.9088C141.217 40.5347 141.595 41.4535 141.595 42.6653C141.595 44.9025 140.61 46.4073 138.628 47.1796C136.645 47.9653 134.42 48.3515 131.966 48.3515C129.498 48.3515 127.273 47.952 125.169 47.153C123.052 46.3407 122 44.8093 122 42.5455L126.733 42.5055C126.733 43.3045 127.044 43.8905 127.664 44.2899C128.298 44.6761 128.972 44.9291 129.714 45.0223C130.469 45.1156 131.265 45.1555 132.128 45.1555C133.449 45.1555 134.582 44.9691 135.54 44.5962C136.497 44.2234 136.983 43.6108 136.996 42.7719V42.7452C136.996 42.1194 136.524 41.7199 135.567 41.5467C134.623 41.3603 133.49 41.2671 132.155 41.2671H130.793C129.026 41.2671 127.543 41.1739 126.329 41.0008C125.115 40.8143 124.09 40.3882 123.254 39.7357C122.432 39.0699 122.027 38.0712 122.027 36.7395C122.027 33.1041 125.344 31.2798 131.993 31.2798C134.353 31.2798 136.551 31.6793 138.574 32.4783C140.61 33.2772 141.635 34.8086 141.635 37.0857H136.942C136.942 36.2734 136.47 35.6609 135.513 35.2348C134.555 34.8086 133.395 34.5689 132.033 34.5157C130.55 34.5157 129.296 34.6888 128.244 35.035C127.219 35.3813 126.706 35.9272 126.706 36.6596C126.706 37.8182 128.406 38.4041 131.818 38.4041L133.625 38.4174Z" fill="#F0F0F0"/>
<path d="M158.789 42.2126C158.762 43.238 158.506 44.2234 158.02 45.1422C157.535 46.0744 156.847 46.8201 155.97 47.406C155.094 47.9653 154.082 48.2583 152.95 48.2583C150.428 48.2583 148.513 47.6723 147.232 46.5005V52.0002H142.943V36.0338H146.8L147.11 37.6184C148.405 36.3401 150.347 35.7275 152.963 35.7675C154.096 35.7675 155.094 36.0471 155.957 36.5931C156.833 37.139 157.521 37.8981 158.02 38.8569C158.519 39.8156 158.775 40.881 158.789 42.0794V42.2126ZM150.738 45.6482C151.52 45.6482 152.181 45.4751 152.72 45.1289C153.273 44.7827 153.691 44.3432 153.974 43.8106C154.271 43.2646 154.42 42.692 154.433 42.1194C154.406 41.0541 154.082 40.1486 153.462 39.4295C152.842 38.7104 151.938 38.3375 150.738 38.3375C150.064 38.3375 149.457 38.4973 148.917 38.8436C148.391 39.1765 147.973 39.6159 147.69 40.1752C147.394 40.7212 147.245 41.3071 147.245 41.933V41.9729C147.245 43.0649 147.569 43.9571 148.216 44.6495C148.85 45.3153 149.686 45.6482 150.738 45.6482Z" fill="#F0F0F0"/>
<path d="M168.107 35.5278C169.645 35.5278 171.034 35.8075 172.261 36.3534C173.488 36.8994 174.459 37.6718 175.147 38.6572C175.848 39.6293 176.199 40.7212 176.199 41.933C176.199 43.1448 175.848 44.2235 175.147 45.2089C174.459 46.181 173.502 46.94 172.261 47.486C171.034 48.032 169.645 48.3116 168.107 48.3116C166.57 48.3116 165.235 48.032 163.954 47.486C162.659 46.9267 161.634 46.1543 160.852 45.1822C160.083 44.1968 159.706 43.1049 159.706 41.9197C159.706 40.7346 160.083 39.6293 160.852 38.6572C161.634 37.6718 162.659 36.8994 163.954 36.3534C165.235 35.8075 166.624 35.5278 168.107 35.5278ZM168.107 45.5817C169.159 45.5817 170.063 45.2755 170.818 44.6496C171.573 44.0237 171.937 43.1182 171.937 41.933C171.937 40.7479 171.56 39.8157 170.818 39.1898C170.063 38.564 169.173 38.2577 168.107 38.2577C167.433 38.2577 166.786 38.3909 166.152 38.6705C165.532 38.9368 165.033 39.3363 164.628 39.8823C164.237 40.4283 164.035 41.1074 164.035 41.9197C164.035 42.732 164.237 43.3845 164.628 43.9438C165.019 44.4898 165.532 44.9026 166.152 45.1822C166.772 45.4619 167.433 45.5817 168.107 45.5817Z" fill="#F0F0F0"/>
<path d="M181.553 38.0043C182.699 36.7792 184.493 36.0468 186.947 35.8071V39.2028H184.196C183.184 39.2028 182.497 39.5491 182.133 40.2415C181.782 40.934 181.607 41.8794 181.607 43.0646V47.8718H177.318V36.0335H181.148L181.553 38.0043Z" fill="#F0F0F0"/>
<path d="M194.849 36.0204H197.142V39.0699H194.849V47.8721H190.561V39.0699H188.161V36.0204H190.561V33.4504L194.849 31.4263V36.0204Z" fill="#F0F0F0"/>
<path d="M205.867 40.9207C206.285 40.9207 206.595 40.9074 206.811 40.8941L207.971 40.8675C209.643 40.8675 211.005 41.0938 212.044 41.5466C213.082 41.986 213.608 42.8516 213.608 44.1699C213.608 45.8744 212.839 47.0063 211.315 47.5656C209.792 48.0983 208.011 48.3646 205.989 48.3646C203.966 48.3646 202.199 48.0716 200.554 47.4724C198.909 46.8598 198.086 45.7013 198.086 43.9968L202.415 44.0235C202.415 44.7425 202.766 45.2486 203.467 45.5282C204.168 45.7945 205.004 45.9144 205.975 45.9144C207.162 45.9144 208.025 45.7812 208.578 45.5282C209.117 45.2619 209.387 44.8624 209.387 44.3164C209.387 43.7704 209.077 43.4375 208.443 43.2911C207.823 43.1313 207.256 43.0514 206.73 43.0514H205.759C204.397 43.0514 203.17 42.9848 202.105 42.8516C201.039 42.7051 200.095 42.3722 199.286 41.8529C198.477 41.3202 198.073 40.5079 198.073 39.4426C198.073 37.8313 198.868 36.7793 200.446 36.2866C202.024 35.7939 203.858 35.5542 205.921 35.5542C207.984 35.5542 209.657 35.8472 211.221 36.4464C212.785 37.0456 213.581 38.1909 213.581 39.8954L209.306 39.8687C209.306 39.1097 208.901 38.617 208.092 38.364C207.283 38.111 206.555 37.9911 205.908 37.9911C203.561 37.9911 202.388 38.4572 202.388 39.376C202.442 40.3748 203.575 40.8808 205.867 40.9207Z" fill="#F0F0F0"/>
<path d="M279.93 13.1025C280.065 12.7829 280.537 12.7829 280.672 13.1025L282.061 16.3916C282.115 16.5248 282.25 16.618 282.398 16.6313L285.999 16.911C286.349 16.9376 286.498 17.3771 286.228 17.6034L283.49 19.9205C283.383 20.0137 283.329 20.1602 283.369 20.3067L284.205 23.769C284.286 24.1152 283.909 24.3815 283.612 24.1951L280.524 22.3308C280.402 22.2509 280.24 22.2509 280.106 22.3308L277.031 24.1951C276.734 24.3815 276.357 24.1152 276.438 23.769L277.274 20.3067C277.301 20.1602 277.26 20.0137 277.139 19.9205L274.401 17.6034C274.131 17.3771 274.28 16.9376 274.63 16.911L278.231 16.6313C278.379 16.618 278.514 16.5248 278.568 16.3916L279.93 13.1025Z" fill="#F0F0F0"/>
<path d="M224.976 31.7324H285.527C289.101 31.7324 292 34.5955 292 38.1243V45.3285C292 48.8573 289.101 51.7204 285.527 51.7204H224.976C221.403 51.7204 218.503 48.8573 218.503 45.3285V38.1243C218.503 34.5955 221.403 31.7324 224.976 31.7324Z" fill="#FFE86E"/>
<path d="M224.882 45.5015L226.365 37.9778H231.503L231.247 39.3227H227.593L227.269 40.974H230.586L230.317 42.279H226.999L226.622 44.1566H230.276L230.02 45.5015H224.882ZM234.052 45.5948C232.137 45.5948 230.937 44.4362 231.342 42.3722L231.598 41.0805C232.002 39.0297 233.337 37.8579 235.347 37.8579C237.248 37.8579 238.422 38.9099 238.125 40.7476H236.655C236.803 39.7888 236.291 39.2561 235.185 39.2561C234.079 39.2561 233.297 39.882 233.068 41.0805L232.812 42.3722C232.582 43.5707 233.054 44.2498 234.201 44.2498C235.279 44.2498 236.008 43.7171 236.237 42.7983H237.707C237.329 44.5827 236.102 45.5948 234.052 45.5948ZM240.93 45.5948C239.015 45.5948 237.869 44.4362 238.273 42.3722L238.529 41.0805C238.934 39.0297 240.188 37.8579 242.332 37.8579C244.247 37.8579 245.394 39.0164 244.989 41.0805L244.733 42.3722C244.342 44.4362 243.074 45.5948 240.93 45.5948ZM239.757 42.3855C239.514 43.6106 240.067 44.2498 241.146 44.2498C242.225 44.2498 243.034 43.6106 243.276 42.3855L243.533 41.0938C243.775 39.8687 243.222 39.2694 242.13 39.2694C241.038 39.2694 240.256 39.8554 240.013 41.0938L239.757 42.3855ZM247.754 45.5948C245.893 45.5948 244.827 44.6093 245.083 43.0779H246.553C246.459 43.8237 246.931 44.2498 247.861 44.2498C248.859 44.2498 249.534 43.8237 249.534 43.2111C249.534 42.8249 249.224 42.5986 248.752 42.4654L247.511 42.1192C246.621 41.8662 245.92 41.3335 245.92 40.4013C245.92 39.0031 247.039 37.8712 248.967 37.8712C250.707 37.8712 251.759 38.9365 251.503 40.2682H250.046C250.087 39.6823 249.696 39.2162 248.859 39.2162C247.942 39.2162 247.443 39.6423 247.443 40.1617C247.443 40.5079 247.7 40.6677 248.226 40.8142L249.52 41.187C250.599 41.4933 251.085 42.1325 251.085 42.8915C251.058 44.4229 249.871 45.5948 247.754 45.5948ZM253.229 45.5015L253.903 42.0526H253.242L252.123 37.9644H253.633L254.618 41.7863L257.099 37.9644H258.771L256.047 42.0526H255.386L254.712 45.5015H253.229ZM260.484 45.5948C258.623 45.5948 257.558 44.6093 257.814 43.0779H259.284C259.189 43.8237 259.661 44.2498 260.592 44.2498C261.603 44.2498 262.264 43.8237 262.264 43.2111C262.264 42.8249 261.954 42.5986 261.482 42.4654L260.241 42.1192C259.351 41.8662 258.65 41.3335 258.65 40.4013C258.65 39.0031 259.756 37.8712 261.698 37.8712C263.437 37.8712 264.489 38.9365 264.233 40.2682H262.777C262.817 39.6823 262.426 39.2162 261.59 39.2162C260.673 39.2162 260.174 39.6423 260.174 40.1617C260.174 40.5079 260.43 40.6677 260.943 40.8142L262.237 41.187C263.316 41.4933 263.802 42.1325 263.802 42.8915C263.788 44.4229 262.601 45.5948 260.484 45.5948ZM266.081 45.5015L267.308 39.3094H265.096L265.352 37.9644H271.273L271.016 39.3094H268.791L267.564 45.5015H266.081ZM270.814 45.5015L272.297 37.9778H277.422L277.166 39.3227H273.511L273.188 40.974H276.505L276.249 42.279H272.931L272.554 44.1566H276.208L275.939 45.5015H270.814ZM279.742 45.5015L279.944 38.2441L278.514 45.5015H277.098L278.582 37.9778H281.306L281.185 45.2352L283.922 37.9778H286.646L285.163 45.5015H283.747L285.176 38.2441L282.52 45.5015H279.742Z" fill="#202020"/>
</g>
<g clip-path="url(#clip1_1_1388)">
<path d="M25.6688 0.0683594L19.5608 10.7042H6.60553L0.489258 0.0683594H25.6688Z" fill="#FF630C"/>
<path d="M37.8972 0.0683594L12.9902 43.4208H25.2186L44.0176 10.7042H65.9883L72.1087 0.0683594H37.8972Z" fill="#FF630C"/>
<path d="M59.6447 21.7466L53.5367 32.3824H37.6699V21.7466H59.6447Z" fill="#FF630C"/>
<path d="M1.39901 59.4146V58.9642H4.54339V59.4146H3.22504V63.1567H2.71736V59.4146H1.39901ZM5.32692 63.1567V58.9642H7.85716V59.4146H5.83461V60.8312H7.72615V61.2816H5.83461V62.7064H7.88991V63.1567H5.32692ZM8.77222 58.9642H9.37817L10.803 62.4443H10.8521L12.2769 58.9642H12.8828V63.1567H12.4079V59.9714H12.367L11.0568 63.1567H10.5983L9.2881 59.9714H9.24715V63.1567H8.77222V58.9642ZM13.9008 63.1567V58.9642H15.3174C15.6463 58.9642 15.9151 59.0236 16.1239 59.1423C16.3341 59.2597 16.4897 59.4187 16.5907 59.6193C16.6917 59.8199 16.7422 60.0438 16.7422 60.2908C16.7422 60.5378 16.6917 60.7623 16.5907 60.9643C16.4911 61.1663 16.3368 61.3273 16.128 61.4474C15.9192 61.5661 15.6517 61.6255 15.3256 61.6255H14.3102V61.1751H15.3092C15.5344 61.1751 15.7152 61.1362 15.8517 61.0584C15.9881 60.9807 16.0871 60.8756 16.1485 60.7432C16.2113 60.6094 16.2427 60.4586 16.2427 60.2908C16.2427 60.1229 16.2113 59.9728 16.1485 59.8404C16.0871 59.708 15.9875 59.6043 15.8496 59.5292C15.7118 59.4528 15.5289 59.4146 15.301 59.4146H14.4085V63.1567H13.9008ZM21.0974 61.0605C21.0974 61.5027 21.0176 61.8848 20.8579 62.2069C20.6982 62.529 20.4792 62.7773 20.2008 62.952C19.9224 63.1267 19.6044 63.2141 19.2468 63.2141C18.8893 63.2141 18.5713 63.1267 18.2929 62.952C18.0145 62.7773 17.7954 62.529 17.6357 62.2069C17.4761 61.8848 17.3962 61.5027 17.3962 61.0605C17.3962 60.6183 17.4761 60.2362 17.6357 59.9141C17.7954 59.592 18.0145 59.3436 18.2929 59.169C18.5713 58.9943 18.8893 58.9069 19.2468 58.9069C19.6044 58.9069 19.9224 58.9943 20.2008 59.169C20.4792 59.3436 20.6982 59.592 20.8579 59.9141C21.0176 60.2362 21.0974 60.6183 21.0974 61.0605ZM20.6061 61.0605C20.6061 60.6975 20.5454 60.3911 20.4239 60.1413C20.3038 59.8916 20.1407 59.7026 19.9346 59.5743C19.7299 59.446 19.5007 59.3819 19.2468 59.3819C18.993 59.3819 18.763 59.446 18.5569 59.5743C18.3522 59.7026 18.1891 59.8916 18.0677 60.1413C17.9476 60.3911 17.8875 60.6975 17.8875 61.0605C17.8875 61.4235 17.9476 61.7299 18.0677 61.9796C18.1891 62.2294 18.3522 62.4184 18.5569 62.5467C18.763 62.675 18.993 62.7391 19.2468 62.7391C19.5007 62.7391 19.7299 62.675 19.9346 62.5467C20.1407 62.4184 20.3038 62.2294 20.4239 61.9796C20.5454 61.7299 20.6061 61.4235 20.6061 61.0605ZM24.8662 63.1567H23.5724V58.9642H24.9235C25.3302 58.9642 25.6782 59.0482 25.9675 59.216C26.2568 59.3825 26.4786 59.622 26.6328 59.9346C26.787 60.2457 26.8641 60.6183 26.8641 61.0523C26.8641 61.489 26.7864 61.865 26.6308 62.1803C26.4752 62.4942 26.2486 62.7357 25.9511 62.9049C25.6536 63.0728 25.292 63.1567 24.8662 63.1567ZM24.0801 62.7064H24.8334C25.18 62.7064 25.4673 62.6395 25.6952 62.5058C25.9232 62.372 26.0931 62.1816 26.205 61.9346C26.3169 61.6876 26.3728 61.3935 26.3728 61.0523C26.3728 60.7138 26.3176 60.4225 26.207 60.1782C26.0965 59.9325 25.9313 59.7442 25.7116 59.6132C25.4919 59.4808 25.2183 59.4146 24.8907 59.4146H24.0801V62.7064ZM27.7157 63.1567V58.9642H30.246V59.4146H28.2234V60.8312H30.115V61.2816H28.2234V62.7064H30.2787V63.1567H27.7157ZM32.7824 63.1567V58.9642H35.2962V59.4146H33.29V60.8312H35.1079V61.2816H33.29V63.1567H32.7824ZM38.9171 58.9642H39.4248V61.7401C39.4248 62.0267 39.3572 62.2826 39.2221 62.5078C39.0883 62.7316 38.8993 62.9084 38.655 63.038C38.4107 63.1663 38.1241 63.2304 37.7952 63.2304C37.4663 63.2304 37.1797 63.1663 36.9355 63.038C36.6912 62.9084 36.5015 62.7316 36.3664 62.5078C36.2326 62.2826 36.1657 62.0267 36.1657 61.7401V58.9642H36.6734V61.6992C36.6734 61.9039 36.7185 62.0861 36.8085 62.2458C36.8986 62.4041 37.0269 62.529 37.1934 62.6204C37.3613 62.7105 37.5619 62.7555 37.7952 62.7555C38.0286 62.7555 38.2292 62.7105 38.3971 62.6204C38.565 62.529 38.6932 62.4041 38.782 62.2458C38.872 62.0861 38.9171 61.9039 38.9171 61.6992V58.9642ZM40.2093 59.4146V58.9642H43.3537V59.4146H42.0353V63.1567H41.5277V59.4146H40.2093ZM44.1372 63.1567V58.9642H46.6675V59.4146H44.6449V60.8312H46.5364V61.2816H44.6449V62.7064H46.7002V63.1567H44.1372ZM47.5825 63.1567V58.9642H49.0483C49.3403 58.9642 49.5812 59.0147 49.7709 59.1157C49.9606 59.2154 50.1018 59.3498 50.1946 59.519C50.2874 59.6869 50.3338 59.8732 50.3338 60.0779C50.3338 60.258 50.3018 60.4068 50.2376 60.5241C50.1749 60.6415 50.0916 60.7343 49.9879 60.8026C49.8855 60.8708 49.7743 60.9213 49.6542 60.954V60.995C49.7825 61.0032 49.9115 61.0482 50.0411 61.1301C50.1708 61.212 50.2793 61.3293 50.3666 61.4822C50.4539 61.635 50.4976 61.822 50.4976 62.0431C50.4976 62.2533 50.4498 62.4423 50.3543 62.6102C50.2588 62.778 50.108 62.9111 49.9019 63.0093C49.6958 63.1076 49.4277 63.1567 49.0974 63.1567H47.5825ZM48.0902 62.7064H49.0974C49.429 62.7064 49.6644 62.6422 49.8036 62.5139C49.9442 62.3843 50.0145 62.2273 50.0145 62.0431C50.0145 61.9012 49.9783 61.7702 49.906 61.6501C49.8337 61.5286 49.7306 61.4317 49.5969 61.3594C49.4631 61.2857 49.3048 61.2488 49.122 61.2488H48.0902V62.7064ZM48.0902 60.8066H49.0319C49.1847 60.8066 49.3226 60.7766 49.4454 60.7166C49.5696 60.6565 49.6678 60.5719 49.7402 60.4627C49.8139 60.3536 49.8507 60.2253 49.8507 60.0779C49.8507 59.8936 49.7866 59.7374 49.6583 59.6091C49.53 59.4794 49.3267 59.4146 49.0483 59.4146H48.0902V60.8066ZM54.8692 61.0605C54.8692 61.5027 54.7894 61.8848 54.6297 62.2069C54.47 62.529 54.251 62.7773 53.9726 62.952C53.6942 63.1267 53.3762 63.2141 53.0186 63.2141C52.6611 63.2141 52.3431 63.1267 52.0647 62.952C51.7863 62.7773 51.5672 62.529 51.4076 62.2069C51.2479 61.8848 51.168 61.5027 51.168 61.0605C51.168 60.6183 51.2479 60.2362 51.4076 59.9141C51.5672 59.592 51.7863 59.3436 52.0647 59.169C52.3431 58.9943 52.6611 58.9069 53.0186 58.9069C53.3762 58.9069 53.6942 58.9943 53.9726 59.169C54.251 59.3436 54.47 59.592 54.6297 59.9141C54.7894 60.2362 54.8692 60.6183 54.8692 61.0605ZM54.3779 61.0605C54.3779 60.6975 54.3172 60.3911 54.1957 60.1413C54.0756 59.8916 53.9126 59.7026 53.7065 59.5743C53.5018 59.446 53.2725 59.3819 53.0186 59.3819C52.7648 59.3819 52.5348 59.446 52.3288 59.5743C52.1241 59.7026 51.961 59.8916 51.8395 60.1413C51.7194 60.3911 51.6594 60.6975 51.6594 61.0605C51.6594 61.4235 51.7194 61.7299 51.8395 61.9796C51.961 62.2294 52.1241 62.4184 52.3288 62.5467C52.5348 62.675 52.7648 62.7391 53.0186 62.7391C53.2725 62.7391 53.5018 62.675 53.7065 62.5467C53.9126 62.4184 54.0756 62.2294 54.1957 61.9796C54.3172 61.7299 54.3779 61.4235 54.3779 61.0605ZM55.7229 63.1567V58.9642H56.2306V62.7064H58.1794V63.1567H55.7229Z" fill="#FF630C"/>
</g>
<line x1="97.5" y1="6" x2="97.5" y2="56" stroke="white"/>
<defs>
<clipPath id="clip0_1_1388">
<rect width="170" height="42" fill="white" transform="translate(122 10)"/>
</clipPath>
<clipPath id="clip1_1_1388">
<rect width="71.7721" height="63" fill="white"/>
</clipPath>
</defs>
</svg>
