<svg width="180" height="39" viewBox="0 0 180 39" fill="none" xmlns="http://www.w3.org/2000/svg">
<g clip-path="url(#clip0_483_1488)">
<path d="M85.6302 10.8845C86.3867 11.0322 86.9687 11.3031 87.3511 11.6725C87.7418 12.0419 87.933 12.5673 87.933 13.2568V13.306C87.933 14.0366 87.7335 14.603 87.3344 15.0053C86.9354 15.4075 86.3867 15.6866 85.6801 15.8508C84.9735 16.0067 84.084 16.0806 83.0199 16.0888H82.4547L75.4717 16.0724V6.16443H83.6517C84.6992 6.17264 85.5388 6.38606 86.1623 6.80471C86.7858 7.22336 87.1017 7.81439 87.1017 8.58601V8.63527C87.1017 9.21809 86.977 9.68599 86.7359 10.0554C86.4865 10.433 86.1207 10.7039 85.6302 10.8845ZM84.3417 9.02929C84.3417 8.70094 84.2669 8.46288 84.109 8.32333C83.9593 8.16736 83.7515 8.07707 83.5021 8.04424C83.261 8.0114 82.9036 7.98677 82.4463 7.98677H78.1485V10.08L81.4072 10.1046H82.4547C82.9451 10.1046 83.3026 10.0882 83.527 10.0636C83.7515 10.039 83.951 9.94867 84.109 9.7927C84.2586 9.64494 84.3417 9.39047 84.3417 9.02929ZM82.8869 14.1105C83.4356 14.1105 83.8513 14.0941 84.1256 14.053C84.3999 14.012 84.6161 13.9053 84.774 13.7329C84.9403 13.5605 85.0151 13.2896 85.0151 12.912C85.0151 12.5344 84.9319 12.28 84.774 12.124C84.6077 11.9516 84.3916 11.8531 84.1256 11.8121C83.8513 11.7792 83.4439 11.7628 82.8869 11.7628H78.1402V14.0777C80.1021 14.0777 81.4987 14.0859 82.33 14.1023L82.8869 14.1105Z" fill="#F0F0F0"/>
<path d="M91.3994 16.0806H88.7559V6.16443H91.3994V16.0806Z" fill="#F0F0F0"/>
<path d="M97.3597 8.47113C98.3074 8.47113 99.1636 8.64351 99.9201 8.98007C100.677 9.31663 101.275 9.79274 101.699 10.4002C102.131 10.9994 102.348 11.6725 102.348 12.4195C102.348 13.1665 102.131 13.8314 101.699 14.4389C101.275 15.0381 100.685 15.506 99.9201 15.8426C99.1636 16.1792 98.3074 16.3515 97.3597 16.3515C96.412 16.3515 95.589 16.1792 94.7993 15.8426C94.0012 15.4978 93.3694 15.0217 92.8873 14.4225C92.4134 13.815 92.1807 13.1419 92.1807 12.4113C92.1807 11.6808 92.4134 10.9994 92.8873 10.4002C93.3694 9.79274 94.0012 9.31663 94.7993 8.98007C95.589 8.64351 96.4453 8.47113 97.3597 8.47113ZM97.3597 14.6687C98.0081 14.6687 98.5651 14.4799 99.0306 14.0941C99.4879 13.7083 99.7206 13.1501 99.7206 12.4195C99.7206 11.689 99.4879 11.1144 99.0306 10.7285C98.5651 10.3427 98.0164 10.1539 97.3597 10.1539C96.944 10.1539 96.5367 10.236 96.1543 10.4084C95.7719 10.5726 95.4643 10.8188 95.2149 11.1554C94.9739 11.4919 94.8492 11.9106 94.8492 12.4113C94.8492 12.9121 94.9739 13.3143 95.2149 13.6591C95.456 13.9956 95.7719 14.2501 96.1543 14.4225C96.5367 14.5949 96.944 14.6687 97.3597 14.6687Z" fill="#F0F0F0"/>
<path d="M102.83 12.4606C102.83 11.7136 103.055 11.0405 103.495 10.4413C103.936 9.83382 104.543 9.3577 105.316 9.02115C106.08 8.68459 106.937 8.51221 107.868 8.51221C109.206 8.51221 110.279 8.79951 111.085 9.38233C111.9 9.95695 112.432 10.7286 112.689 11.6972H110.029C109.921 11.2621 109.672 10.901 109.281 10.6301C108.899 10.3428 108.433 10.2032 107.884 10.2032C107.161 10.2032 106.588 10.4166 106.164 10.8353C105.74 11.2457 105.524 11.7875 105.524 12.4688C105.524 12.8711 105.615 13.2487 105.798 13.5934C105.981 13.93 106.238 14.2091 106.588 14.4225C106.937 14.6277 107.352 14.7344 107.835 14.7344C108.408 14.7344 108.882 14.5949 109.273 14.3158C109.672 14.0285 109.921 13.6755 110.021 13.2487H112.681C112.59 13.8233 112.324 14.3486 111.883 14.8412C111.442 15.3255 110.869 15.7031 110.162 15.9904C109.464 16.2777 108.707 16.4172 107.884 16.4172C106.97 16.4172 106.13 16.2449 105.357 15.9083C104.592 15.5635 103.977 15.0874 103.528 14.4882C103.055 13.8807 102.83 13.1994 102.83 12.4606Z" fill="#F0F0F0"/>
<path d="M118.6 12.0501L122.706 16.0806H119.556L115.923 12.6001V16.0806H113.279V6.16443H115.923V11.5247L119.032 8.77481H122.232L118.6 12.0501Z" fill="#F0F0F0"/>
<path d="M121.825 12.4606C121.825 11.7136 122.05 11.0405 122.49 10.4413C122.931 9.83382 123.538 9.3577 124.311 9.02115C125.076 8.68459 125.932 8.51221 126.863 8.51221C128.201 8.51221 129.274 8.79951 130.08 9.38233C130.895 9.95695 131.427 10.7286 131.684 11.6972H129.024C128.916 11.2621 128.667 10.901 128.276 10.6301C127.894 10.3428 127.428 10.2032 126.88 10.2032C126.156 10.2032 125.583 10.4166 125.159 10.8353C124.735 11.2457 124.519 11.7875 124.519 12.4688C124.519 12.8711 124.61 13.2487 124.793 13.5934C124.976 13.93 125.234 14.2091 125.583 14.4225C125.932 14.6277 126.348 14.7344 126.83 14.7344C127.403 14.7344 127.877 14.5949 128.268 14.3158C128.667 14.0285 128.916 13.6755 129.016 13.2487H131.676C131.585 13.8233 131.319 14.3486 130.878 14.8412C130.438 15.3255 129.864 15.7031 129.157 15.9904C128.459 16.2777 127.703 16.4172 126.88 16.4172C125.965 16.4172 125.125 16.2449 124.361 15.9083C123.596 15.5635 122.981 15.0874 122.532 14.4882C122.05 13.8807 121.825 13.1994 121.825 12.4606Z" fill="#F0F0F0"/>
<path d="M138.144 8.53676C139.15 8.53676 139.973 8.88974 140.613 9.6039C141.261 10.3181 141.594 11.4673 141.594 13.0598V16.0724H138.95V13.1008C138.95 12.5262 138.909 12.0501 138.825 11.6561C138.751 11.2621 138.576 10.9337 138.293 10.6628C138.011 10.3919 137.587 10.2606 137.022 10.2606C136.448 10.2606 135.974 10.4001 135.675 10.6792C135.384 10.9583 135.201 11.2949 135.118 11.6971C135.035 12.0912 134.993 12.5673 134.993 13.1337V16.0806H132.35V6.16443H134.993V9.67778C135.683 8.91436 136.731 8.53676 138.144 8.53676Z" fill="#F0F0F0"/>
<path d="M147.222 8.45471C148.469 8.45471 149.583 8.66814 150.572 9.09499C151.562 9.52185 152.052 10.2771 152.052 11.3606V16.0724H149.583L149.367 14.9643V14.8986C149.159 15.309 148.677 15.6292 147.929 15.8672C147.189 16.0971 146.374 16.212 145.501 16.212C144.795 16.212 144.08 16.0724 143.357 15.7851C142.633 15.4896 142.268 14.8575 142.268 13.8971C142.268 12.9367 142.575 12.3703 143.19 12.0748C143.814 11.7793 144.487 11.6315 145.194 11.6315C146.574 11.6315 147.538 11.6233 148.07 11.6069C148.602 11.5822 148.951 11.533 149.118 11.4591C149.292 11.3852 149.384 11.2539 149.392 11.0733V10.9255C149.384 10.6136 149.159 10.3756 148.71 10.2032C148.278 10.0226 147.771 9.93229 147.206 9.93229C146.59 9.93229 146.067 10.0308 145.634 10.2442C145.21 10.4412 144.994 10.7532 144.994 11.1718H142.351C142.351 10.4823 142.617 9.9405 143.14 9.53827C143.672 9.13604 144.304 8.85694 145.036 8.70918C145.776 8.5368 146.507 8.45471 147.222 8.45471ZM149.375 12.436C148.943 12.633 148.278 12.7315 147.38 12.7315C146.773 12.7315 146.299 12.7561 145.959 12.7971C145.626 12.8382 145.377 12.9203 145.21 13.0352C145.052 13.1419 144.978 13.3061 144.969 13.5195C144.994 13.815 145.152 14.0367 145.427 14.1926C145.718 14.3404 146.2 14.4225 146.881 14.4225C147.779 14.4225 148.411 14.2337 148.793 13.8479C149.184 13.4621 149.375 13.0024 149.375 12.4524V12.436Z" fill="#F0F0F0"/>
<path d="M155.585 6.16443H152.941V7.98677H155.585V6.16443ZM155.585 16.0806H152.941V8.38079H155.585V16.0806Z" fill="#F0F0F0"/>
<path d="M162.309 8.53674C163.374 8.53674 164.213 8.88151 164.803 9.57926C165.402 10.277 165.701 11.4344 165.701 13.0598V16.0724H163.058V13.1008C163.058 12.5262 163.016 12.0501 162.933 11.6561C162.858 11.2621 162.684 10.9337 162.401 10.6628C162.118 10.3919 161.694 10.2606 161.129 10.2606C160.564 10.2606 160.082 10.3919 159.782 10.6628C159.491 10.9173 159.308 11.2538 159.225 11.6561C159.142 12.0501 159.101 12.5426 159.101 13.1336V16.0806H156.457V8.78301H159.101V9.7188C159.807 8.93076 160.88 8.53674 162.309 8.53674Z" fill="#F0F0F0"/>
<path d="M82.3709 23.6819C83.3186 23.6819 84.1416 23.7393 84.8399 23.8543C85.5382 23.9692 86.1118 24.2237 86.5774 24.6013C87.0512 24.9871 87.284 25.5535 87.284 26.3005C87.284 27.6795 86.6771 28.6071 85.4551 29.0832C84.2331 29.5676 82.8614 29.8056 81.3484 29.8056C79.8271 29.8056 78.4555 29.5594 77.1586 29.0668C75.8535 28.5661 75.2051 27.6221 75.2051 26.2266L78.123 26.202C78.123 26.6945 78.3142 27.0557 78.6966 27.3019C79.0873 27.54 79.5029 27.696 79.9602 27.7534C80.4257 27.8109 80.9162 27.8355 81.4482 27.8355C82.2629 27.8355 82.9612 27.7206 83.5514 27.4907C84.1416 27.2609 84.4409 26.8833 84.4492 26.3661V26.3497C84.4492 25.9639 84.1583 25.7176 83.568 25.6109C82.9861 25.496 82.2878 25.4385 81.4648 25.4385H80.6252C79.5362 25.4385 78.6217 25.3811 77.8736 25.2744C77.1254 25.1595 76.4936 24.8968 75.9782 24.4945C75.4711 24.0841 75.2217 23.4684 75.2217 22.6476C75.2217 20.4066 77.2667 19.282 81.3651 19.282C82.8198 19.282 84.1749 19.5282 85.4218 20.0208C86.6771 20.5133 87.3089 21.4573 87.3089 22.861H84.416C84.416 22.3603 84.125 21.9827 83.5348 21.72C82.9445 21.4573 82.2296 21.3095 81.39 21.2767C80.4756 21.2767 79.7024 21.3834 79.054 21.5969C78.4222 21.8103 78.1063 22.1468 78.1063 22.5983C78.1063 23.3125 79.1538 23.6737 81.257 23.6737L82.3709 23.6819Z" fill="#F0F0F0"/>
<path d="M97.8841 26.0214C97.8674 26.6535 97.7095 27.2609 97.4102 27.8273C97.111 28.4019 96.687 28.8616 96.1466 29.2228C95.6063 29.5676 94.9828 29.7482 94.2845 29.7482C92.73 29.7482 91.5495 29.387 90.7598 28.6646V32.0548H88.1162V22.2125H90.4938L90.685 23.1894C91.483 22.4013 92.6801 22.0237 94.2928 22.0484C94.9911 22.0484 95.6063 22.2208 96.1383 22.5573C96.6787 22.8939 97.1026 23.3618 97.4102 23.9528C97.7178 24.5438 97.8758 25.2005 97.8841 25.9393V26.0214ZM92.9212 28.1393C93.4033 28.1393 93.8107 28.0325 94.1432 27.8191C94.484 27.6057 94.7417 27.3348 94.9163 27.0065C95.0992 26.6699 95.1906 26.3169 95.1989 25.9639C95.1823 25.3072 94.9828 24.7491 94.6004 24.3058C94.218 23.8625 93.661 23.6327 92.9212 23.6327C92.5055 23.6327 92.1314 23.7312 91.7989 23.9446C91.4747 24.1498 91.217 24.4207 91.0424 24.7655C90.8595 25.102 90.7681 25.4632 90.7681 25.849V25.8737C90.7681 26.5468 90.9676 27.0968 91.3666 27.5236C91.7573 27.934 92.2727 28.1393 92.9212 28.1393Z" fill="#F0F0F0"/>
<path d="M103.628 21.9006C104.576 21.9006 105.432 22.073 106.189 22.4096C106.945 22.7461 107.544 23.2222 107.968 23.8297C108.4 24.4289 108.616 25.102 108.616 25.849C108.616 26.596 108.4 27.2609 107.968 27.8684C107.544 28.4676 106.953 28.9355 106.189 29.2721C105.432 29.6087 104.576 29.781 103.628 29.781C102.681 29.781 101.858 29.6087 101.068 29.2721C100.27 28.9273 99.638 28.4512 99.1558 27.852C98.682 27.2445 98.4492 26.5714 98.4492 25.8408C98.4492 25.1103 98.682 24.4289 99.1558 23.8297C99.638 23.2222 100.27 22.7461 101.068 22.4096C101.858 22.073 102.714 21.9006 103.628 21.9006ZM103.628 28.0982C104.277 28.0982 104.834 27.9094 105.299 27.5236C105.765 27.1378 105.989 26.5796 105.989 25.849C105.989 25.1185 105.756 24.5439 105.299 24.158C104.834 23.7722 104.285 23.5834 103.628 23.5834C103.213 23.5834 102.814 23.6655 102.423 23.8379C102.04 24.0021 101.733 24.2483 101.483 24.5849C101.242 24.9215 101.118 25.3401 101.118 25.8408C101.118 26.3416 101.242 26.7438 101.483 27.0886C101.725 27.4251 102.04 27.6796 102.423 27.852C102.805 28.0244 103.213 28.0982 103.628 28.0982Z" fill="#F0F0F0"/>
<path d="M111.916 23.4274C112.623 22.6722 113.728 22.2207 115.241 22.0729V24.1662H113.545C112.922 24.1662 112.498 24.3796 112.273 24.8065C112.057 25.2333 111.949 25.8161 111.949 26.5467V29.5101H109.306V22.2125H111.667L111.916 23.4274Z" fill="#F0F0F0"/>
<path d="M120.113 22.2043H121.526V24.0841H120.113V29.5101H117.469V24.0841H115.989V22.2043H117.469V20.62L120.113 19.3723V22.2043Z" fill="#F0F0F0"/>
<path d="M126.905 25.2252C127.162 25.2252 127.353 25.217 127.486 25.2088L128.201 25.1923C129.232 25.1923 130.072 25.3319 130.712 25.611C131.352 25.8819 131.676 26.4155 131.676 27.2281C131.676 28.2788 131.202 28.9766 130.263 29.3214C129.324 29.6497 128.226 29.8139 126.979 29.8139C125.732 29.8139 124.643 29.6333 123.629 29.2639C122.615 28.8863 122.108 28.1721 122.108 27.1214L124.776 27.1378C124.776 27.5811 124.993 27.893 125.425 28.0654C125.857 28.2296 126.373 28.3035 126.971 28.3035C127.703 28.3035 128.235 28.2214 128.575 28.0654C128.908 27.9012 129.074 27.655 129.074 27.3184C129.074 26.9819 128.883 26.7766 128.492 26.6863C128.11 26.5878 127.761 26.5386 127.437 26.5386H126.838C125.998 26.5386 125.242 26.4975 124.585 26.4155C123.928 26.3252 123.347 26.1199 122.848 25.7998C122.349 25.4714 122.1 24.9707 122.1 24.314C122.1 23.3208 122.59 22.6723 123.563 22.3685C124.535 22.0648 125.666 21.9171 126.938 21.9171C128.21 21.9171 129.241 22.0977 130.205 22.467C131.169 22.8364 131.66 23.5424 131.66 24.5931L129.024 24.5767C129.024 24.1088 128.775 23.8051 128.276 23.6491C127.777 23.4931 127.329 23.4193 126.929 23.4193C125.483 23.4193 124.76 23.7066 124.76 24.273C124.793 24.8886 125.491 25.2006 126.905 25.2252Z" fill="#F0F0F0"/>
<path d="M172.56 8.07708C172.643 7.88007 172.934 7.88007 173.018 8.07708L173.874 10.1046C173.907 10.1867 173.99 10.2442 174.082 10.2524L176.301 10.4248C176.517 10.4412 176.609 10.7121 176.443 10.8516L174.755 12.28C174.688 12.3374 174.655 12.4277 174.68 12.518L175.196 14.6523C175.245 14.8657 175.013 15.0299 174.83 14.915L172.926 13.7658C172.851 13.7165 172.752 13.7165 172.668 13.7658L170.773 14.915C170.59 15.0299 170.357 14.8657 170.407 14.6523L170.923 12.518C170.939 12.4277 170.914 12.3374 170.84 12.28L169.152 10.8516C168.986 10.7121 169.077 10.4412 169.293 10.4248L171.513 10.2524C171.604 10.2442 171.687 10.1867 171.721 10.1046L172.56 8.07708Z" fill="#F0F0F0"/>
<path d="M138.684 19.5612H176.009C178.212 19.5612 180 21.326 180 23.5014V27.9423C180 30.1176 178.212 31.8825 176.009 31.8825H138.684C136.481 31.8825 134.693 30.1176 134.693 27.9423V23.5014C134.693 21.326 136.481 19.5612 138.684 19.5612Z" fill="#FFE86E"/>
<path d="M138.626 28.049L139.54 23.411H142.708L142.55 24.2401H140.297L140.097 25.258H142.142L141.976 26.0625H139.931L139.698 27.2199H141.951L141.793 28.049H138.626ZM144.279 28.1064C143.098 28.1064 142.359 27.3923 142.608 26.1199L142.766 25.3237C143.015 24.0595 143.838 23.3372 145.077 23.3372C146.249 23.3372 146.972 23.9856 146.789 25.1185H145.883C145.975 24.5274 145.659 24.1991 144.977 24.1991C144.295 24.1991 143.813 24.5849 143.672 25.3237L143.514 26.1199C143.373 26.8587 143.664 27.2774 144.37 27.2774C145.035 27.2774 145.484 26.949 145.626 26.3826H146.532C146.299 27.4826 145.542 28.1064 144.279 28.1064ZM148.519 28.1064C147.338 28.1064 146.631 27.3923 146.881 26.1199L147.039 25.3237C147.288 24.0595 148.061 23.3372 149.383 23.3372C150.564 23.3372 151.27 24.0513 151.021 25.3237L150.863 26.1199C150.622 27.3923 149.84 28.1064 148.519 28.1064ZM147.795 26.1281C147.646 26.8833 147.986 27.2774 148.652 27.2774C149.317 27.2774 149.815 26.8833 149.965 26.1281L150.123 25.3319C150.273 24.5767 149.932 24.2073 149.258 24.2073C148.585 24.2073 148.103 24.5685 147.953 25.3319L147.795 26.1281ZM152.725 28.1064C151.578 28.1064 150.921 27.499 151.079 26.555H151.985C151.927 27.0147 152.218 27.2774 152.791 27.2774C153.407 27.2774 153.822 27.0147 153.822 26.6371C153.822 26.399 153.631 26.2595 153.34 26.1774L152.575 25.964C152.027 25.808 151.594 25.4796 151.594 24.905C151.594 24.0431 152.284 23.3454 153.473 23.3454C154.546 23.3454 155.194 24.0021 155.036 24.8229H154.138C154.163 24.4618 153.922 24.1744 153.407 24.1744C152.841 24.1744 152.534 24.4371 152.534 24.7573C152.534 24.9707 152.692 25.0692 153.016 25.1595L153.814 25.3893C154.479 25.5781 154.778 25.9722 154.778 26.4401C154.762 27.3841 154.03 28.1064 152.725 28.1064ZM156.1 28.049L156.516 25.9229H156.108L155.418 23.4028H156.349L156.956 25.7587L158.486 23.4028H159.517L157.837 25.9229H157.43L157.014 28.049H156.1ZM160.572 28.1064C159.425 28.1064 158.769 27.499 158.926 26.555H159.833C159.774 27.0147 160.065 27.2774 160.639 27.2774C161.262 27.2774 161.67 27.0147 161.67 26.6371C161.67 26.399 161.479 26.2595 161.188 26.1774L160.423 25.964C159.874 25.808 159.442 25.4796 159.442 24.905C159.442 24.0431 160.124 23.3454 161.321 23.3454C162.393 23.3454 163.041 24.0021 162.884 24.8229H161.986C162.011 24.4618 161.77 24.1744 161.254 24.1744C160.689 24.1744 160.381 24.4371 160.381 24.7573C160.381 24.9707 160.539 25.0692 160.855 25.1595L161.653 25.3893C162.318 25.5781 162.617 25.9722 162.617 26.4401C162.609 27.3841 161.878 28.1064 160.572 28.1064ZM164.022 28.049L164.779 24.2319H163.416L163.573 23.4028H167.223L167.065 24.2319H165.693L164.937 28.049H164.022ZM166.94 28.049L167.855 23.411H171.014L170.856 24.2401H168.603L168.403 25.258H170.448L170.29 26.0625H168.245L168.013 27.2199H170.266L170.099 28.049H166.94ZM172.444 28.049L172.568 23.5752L171.687 28.049H170.814L171.729 23.411H173.408L173.333 27.8848L175.021 23.411H176.7L175.785 28.049H174.913L175.794 23.5752L174.156 28.049H172.444Z" fill="#202020"/>
</g>
<g clip-path="url(#clip1_483_1488)">
<path d="M15.8234 0.0421143L12.0582 6.59844H4.07207L0.301758 0.0421143H15.8234Z" fill="white"/>
<path d="M23.3614 0.0419922L8.00781 26.7661H15.5459L27.1343 6.59831H40.6778L44.4507 0.0419922H23.3614Z" fill="white"/>
<path d="M36.7668 13.4053L33.0016 19.9617H23.2207V13.4053H36.7668Z" fill="white"/>
<path d="M0.863028 35.9265V35.6489H2.80134V35.9265H1.98866V38.2333H1.67571V35.9265H0.863028ZM3.28434 38.2333V35.6489H4.84408V35.9265H3.5973V36.7998H4.76331V37.0774H3.5973V37.9557H4.86427V38.2333H3.28434ZM5.40816 35.6489H5.78169L6.65998 37.7942H6.69027L7.56857 35.6489H7.9421V38.2333H7.64933V36.2698H7.62409L6.81646 38.2333H6.53379L5.72616 36.2698H5.70092V38.2333H5.40816V35.6489ZM8.56959 38.2333V35.6489H9.44284C9.64559 35.6489 9.81132 35.6855 9.94003 35.7587C10.0696 35.8311 10.1655 35.9291 10.2278 36.0527C10.29 36.1764 10.3211 36.3144 10.3211 36.4666C10.3211 36.6189 10.29 36.7573 10.2278 36.8818C10.1663 37.0063 10.0713 37.1056 9.94256 37.1796C9.81384 37.2528 9.64895 37.2894 9.44789 37.2894H8.82197V37.0118H9.43779C9.5766 37.0118 9.68807 36.9878 9.7722 36.9399C9.85633 36.8919 9.91732 36.8271 9.95518 36.7455C9.99388 36.6631 10.0132 36.5701 10.0132 36.4666C10.0132 36.3632 9.99388 36.2706 9.95518 36.189C9.91732 36.1074 9.85591 36.0435 9.77094 35.9972C9.68597 35.9501 9.57324 35.9265 9.43274 35.9265H8.88254V38.2333H8.56959ZM13.0059 36.9411C13.0059 37.2137 12.9567 37.4493 12.8582 37.6478C12.7598 37.8463 12.6248 37.9995 12.4532 38.1071C12.2815 38.2148 12.0855 38.2687 11.8651 38.2687C11.6447 38.2687 11.4487 38.2148 11.277 38.1071C11.1054 37.9995 10.9704 37.8463 10.872 37.6478C10.7735 37.4493 10.7243 37.2137 10.7243 36.9411C10.7243 36.6686 10.7735 36.433 10.872 36.2345C10.9704 36.0359 11.1054 35.8828 11.277 35.7751C11.4487 35.6674 11.6447 35.6136 11.8651 35.6136C12.0855 35.6136 12.2815 35.6674 12.4532 35.7751C12.6248 35.8828 12.7598 36.0359 12.8582 36.2345C12.9567 36.433 13.0059 36.6686 13.0059 36.9411ZM12.703 36.9411C12.703 36.7173 12.6656 36.5285 12.5907 36.3745C12.5167 36.2206 12.4161 36.1041 12.2891 36.025C12.1629 35.9459 12.0216 35.9064 11.8651 35.9064C11.7086 35.9064 11.5669 35.9459 11.4398 36.025C11.3136 36.1041 11.2131 36.2206 11.1382 36.3745C11.0642 36.5285 11.0272 36.7173 11.0272 36.9411C11.0272 37.1649 11.0642 37.3538 11.1382 37.5077C11.2131 37.6617 11.3136 37.7782 11.4398 37.8573C11.5669 37.9364 11.7086 37.9759 11.8651 37.9759C12.0216 37.9759 12.1629 37.9364 12.2891 37.8573C12.4161 37.7782 12.5167 37.6617 12.5907 37.5077C12.6656 37.3538 12.703 37.1649 12.703 36.9411ZM15.3291 38.2333H14.5315V35.6489H15.3644C15.6151 35.6489 15.8296 35.7007 16.008 35.8041C16.1863 35.9068 16.323 36.0544 16.4181 36.2471C16.5132 36.4389 16.5607 36.6686 16.5607 36.9361C16.5607 37.2053 16.5128 37.4371 16.4169 37.6314C16.3209 37.8249 16.1813 37.9738 15.9979 38.0781C15.8145 38.1816 15.5916 38.2333 15.3291 38.2333ZM14.8445 37.9557H15.3089C15.5226 37.9557 15.6997 37.9145 15.8402 37.832C15.9806 37.7496 16.0854 37.6322 16.1544 37.48C16.2234 37.3277 16.2578 37.1464 16.2578 36.9361C16.2578 36.7274 16.2238 36.5478 16.1556 36.3972C16.0875 36.2458 15.9857 36.1297 15.8502 36.0489C15.7148 35.9673 15.5461 35.9265 15.3442 35.9265H14.8445V37.9557ZM17.0857 38.2333V35.6489H18.6454V35.9265H17.3986V36.7998H18.5646V37.0774H17.3986V37.9557H18.6656V38.2333H17.0857Z" fill="white"/>
<path d="M19.2095 38.2333V35.6489H20.7591V35.9265H19.5224V36.7998H20.643V37.0774H19.5224V38.2333H19.2095ZM22.9912 35.6489H23.3041V37.3601C23.3041 37.5368 23.2625 37.6945 23.1792 37.8333C23.0967 37.9713 22.9802 38.0802 22.8296 38.1601C22.679 38.2392 22.5024 38.2788 22.2996 38.2788C22.0969 38.2788 21.9202 38.2392 21.7696 38.1601C21.619 38.0802 21.5021 37.9713 21.4188 37.8333C21.3363 37.6945 21.2951 37.5368 21.2951 37.3601V35.6489H21.6081V37.3348C21.6081 37.461 21.6358 37.5734 21.6914 37.6718C21.7469 37.7694 21.826 37.8463 21.9286 37.9027C22.0321 37.9582 22.1558 37.986 22.2996 37.986C22.4435 37.986 22.5671 37.9582 22.6706 37.9027C22.7741 37.8463 22.8532 37.7694 22.9079 37.6718C22.9634 37.5734 22.9912 37.461 22.9912 37.3348V35.6489ZM23.7877 35.9265V35.6489H25.7261V35.9265H24.9134V38.2333H24.6004V35.9265H23.7877ZM26.2091 38.2333V35.6489H27.7688V35.9265H26.522V36.7998H27.688V37.0774H26.522V37.9557H27.789V38.2333H26.2091ZM28.3329 38.2333V35.6489H29.2364C29.4164 35.6489 29.5649 35.68 29.6819 35.7423C29.7988 35.8037 29.8859 35.8866 29.9431 35.9909C30.0003 36.0944 30.0289 36.2092 30.0289 36.3354C30.0289 36.4465 30.0091 36.5382 29.9696 36.6105C29.9309 36.6829 29.8796 36.7401 29.8156 36.7821C29.7525 36.8242 29.684 36.8553 29.6099 36.8755V36.9007C29.689 36.9058 29.7685 36.9336 29.8484 36.984C29.9284 37.0345 29.9952 37.1069 30.0491 37.2011C30.1029 37.2953 30.1298 37.4106 30.1298 37.5469C30.1298 37.6764 30.1004 37.7929 30.0415 37.8964C29.9826 37.9999 29.8897 38.0819 29.7626 38.1425C29.6356 38.2031 29.4703 38.2333 29.2667 38.2333H28.3329ZM28.6458 37.9557H29.2667C29.4711 37.9557 29.6162 37.9162 29.7021 37.8371C29.7887 37.7572 29.832 37.6604 29.832 37.5469C29.832 37.4594 29.8097 37.3786 29.7651 37.3046C29.7206 37.2297 29.657 37.17 29.5746 37.1254C29.4922 37.0799 29.3946 37.0572 29.2818 37.0572H28.6458V37.9557ZM28.6458 36.7847H29.2263C29.3205 36.7847 29.4055 36.7661 29.4812 36.7291C29.5578 36.6921 29.6183 36.64 29.6629 36.5726C29.7084 36.5053 29.7311 36.4263 29.7311 36.3354C29.7311 36.2218 29.6915 36.1255 29.6125 36.0464C29.5334 35.9665 29.408 35.9265 29.2364 35.9265H28.6458V36.7847ZM32.8247 36.9411C32.8247 37.2137 32.7755 37.4493 32.677 37.6478C32.5786 37.8463 32.4436 37.9995 32.272 38.1071C32.1003 38.2148 31.9043 38.2687 31.6839 38.2687C31.4635 38.2687 31.2675 38.2148 31.0958 38.1071C30.9242 37.9995 30.7892 37.8463 30.6908 37.6478C30.5923 37.4493 30.5431 37.2137 30.5431 36.9411C30.5431 36.6686 30.5923 36.433 30.6908 36.2345C30.7892 36.0359 30.9242 35.8828 31.0958 35.7751C31.2675 35.6674 31.4635 35.6136 31.6839 35.6136C31.9043 35.6136 32.1003 35.6674 32.272 35.7751C32.4436 35.8828 32.5786 36.0359 32.677 36.2345C32.7755 36.433 32.8247 36.6686 32.8247 36.9411ZM32.5218 36.9411C32.5218 36.7173 32.4844 36.5285 32.4095 36.3745C32.3355 36.2206 32.2349 36.1041 32.1079 36.025C31.9817 35.9459 31.8404 35.9064 31.6839 35.9064C31.5274 35.9064 31.3857 35.9459 31.2586 36.025C31.1324 36.1041 31.0319 36.2206 30.957 36.3745C30.883 36.5285 30.846 36.7173 30.846 36.9411C30.846 37.1649 30.883 37.3538 30.957 37.5077C31.0319 37.6617 31.1324 37.7782 31.2586 37.8573C31.3857 37.9364 31.5274 37.9759 31.6839 37.9759C31.8404 37.9759 31.9817 37.9364 32.1079 37.8573C32.2349 37.7782 32.3355 37.6617 32.4095 37.5077C32.4844 37.3538 32.5218 37.1649 32.5218 36.9411ZM33.3509 38.2333V35.6489H33.6639V37.9557H34.8652V38.2333H33.3509Z" fill="#25CA71"/>
</g>
<line x1="60.1031" y1="3.69861" x2="60.1031" y2="34.5205" stroke="white" stroke-width="0.616438"/>
<defs>
<clipPath id="clip0_483_1488">
<rect width="104.795" height="25.8904" fill="white" transform="translate(75.2051 6.16437)"/>
</clipPath>
<clipPath id="clip1_483_1488">
<rect width="44.2431" height="38.8356" fill="white"/>
</clipPath>
</defs>
</svg>
