<svg width="292" height="63" viewBox="0 0 292 63" fill="none" xmlns="http://www.w3.org/2000/svg">
<g clip-path="url(#clip0_483_1429)">
<path d="M138.911 17.6569C140.138 17.8966 141.082 18.3361 141.703 18.9353C142.336 19.5346 142.647 20.3868 142.647 21.5054V21.5853C142.647 22.7705 142.323 23.6893 141.676 24.3418C141.028 24.9943 140.138 25.4471 138.992 25.7134C137.846 25.9664 136.403 26.0862 134.677 26.0996H133.76L122.432 26.0729V10H135.702C137.401 10.0133 138.763 10.3595 139.774 11.0387C140.786 11.7178 141.298 12.6766 141.298 13.9283V14.0082C141.298 14.9537 141.096 15.7128 140.705 16.312C140.3 16.9245 139.707 17.364 138.911 17.6569ZM136.821 14.6474C136.821 14.1148 136.699 13.7286 136.443 13.5022C136.2 13.2492 135.863 13.1027 135.459 13.0495C135.068 12.9962 134.488 12.9562 133.746 12.9562H126.774V16.3519L132.06 16.3919H133.76C134.555 16.3919 135.135 16.3653 135.499 16.3253C135.863 16.2854 136.187 16.1389 136.443 15.8859C136.686 15.6462 136.821 15.2334 136.821 14.6474ZM134.461 22.8903C135.351 22.8903 136.025 22.8637 136.47 22.7971C136.915 22.7305 137.266 22.5574 137.522 22.2777C137.792 21.9981 137.913 21.5587 137.913 20.9461C137.913 20.3336 137.778 19.9207 137.522 19.6677C137.252 19.3881 136.902 19.2283 136.47 19.1617C136.025 19.1084 135.364 19.0818 134.461 19.0818H126.761V22.837C129.943 22.837 132.209 22.8504 133.557 22.877L134.461 22.8903Z" fill="#F0F0F0"/>
<path d="M148.27 26.0862H143.981V10H148.27V26.0862Z" fill="#F0F0F0"/>
<path d="M157.939 13.7419C159.477 13.7419 160.866 14.0216 162.093 14.5676C163.32 15.1135 164.291 15.8859 164.979 16.8713C165.68 17.8434 166.031 18.9353 166.031 20.1471C166.031 21.3589 165.68 22.4376 164.979 23.423C164.291 24.3951 163.333 25.1541 162.093 25.7001C160.866 26.2461 159.477 26.5257 157.939 26.5257C156.402 26.5257 155.067 26.2461 153.786 25.7001C152.491 25.1408 151.466 24.3685 150.684 23.3964C149.915 22.4109 149.538 21.319 149.538 20.1338C149.538 18.9487 149.915 17.8434 150.684 16.8713C151.466 15.8859 152.491 15.1135 153.786 14.5676C155.067 14.0216 156.456 13.7419 157.939 13.7419ZM157.939 23.7958C158.991 23.7958 159.895 23.4896 160.65 22.8637C161.391 22.2378 161.769 21.3323 161.769 20.1471C161.769 18.962 161.391 18.0298 160.65 17.404C159.895 16.7781 159.005 16.4718 157.939 16.4718C157.265 16.4718 156.604 16.605 155.984 16.8846C155.363 17.1509 154.864 17.5504 154.46 18.0964C154.069 18.6424 153.866 19.3215 153.866 20.1338C153.866 20.9461 154.069 21.5986 154.46 22.1579C154.851 22.7039 155.363 23.1167 155.984 23.3964C156.604 23.676 157.265 23.7958 157.939 23.7958Z" fill="#F0F0F0"/>
<path d="M166.813 20.2137C166.813 19.0019 167.177 17.91 167.892 16.9379C168.607 15.9525 169.591 15.1801 170.845 14.6341C172.086 14.0882 173.475 13.8085 174.985 13.8085C177.156 13.8085 178.896 14.2746 180.204 15.2201C181.526 16.1522 182.389 17.404 182.807 18.9753H178.492C178.316 18.2695 177.912 17.6836 177.278 17.2442C176.658 16.7781 175.902 16.5517 175.012 16.5517C173.839 16.5517 172.909 16.8979 172.221 17.5771C171.533 18.2429 171.182 19.1218 171.182 20.227C171.182 20.8795 171.331 21.4921 171.627 22.0514C171.924 22.5974 172.342 23.0501 172.908 23.3964C173.475 23.7293 174.149 23.9024 174.931 23.9024C175.862 23.9024 176.631 23.676 177.264 23.2232C177.912 22.7572 178.316 22.1846 178.478 21.4921H182.793C182.645 22.4243 182.214 23.2765 181.499 24.0755C180.784 24.8612 179.854 25.4737 178.707 25.9398C177.575 26.4059 176.347 26.6323 175.012 26.6323C173.529 26.6323 172.167 26.3526 170.913 25.8066C169.672 25.2473 168.674 24.475 167.946 23.5029C167.177 22.5175 166.813 21.4122 166.813 20.2137Z" fill="#F0F0F0"/>
<path d="M192.395 19.5479L199.057 26.0862H193.946L188.053 20.4401V26.0862H183.764V10H188.053V18.6956L193.096 14.2346H198.288L192.395 19.5479Z" fill="#F0F0F0"/>
<path d="M197.627 20.2137C197.627 19.0019 197.992 17.91 198.706 16.9379C199.421 15.9525 200.405 15.1801 201.66 14.6341C202.9 14.0882 204.289 13.8085 205.8 13.8085C207.971 13.8085 209.711 14.2746 211.019 15.2201C212.34 16.1522 213.203 17.404 213.621 18.9753H209.306C209.131 18.2695 208.726 17.6836 208.092 17.2442C207.472 16.7781 206.717 16.5517 205.827 16.5517C204.653 16.5517 203.723 16.8979 203.035 17.5771C202.347 18.2429 201.997 19.1218 201.997 20.227C201.997 20.8795 202.145 21.4921 202.442 22.0514C202.739 22.5974 203.157 23.0501 203.723 23.3964C204.289 23.7293 204.964 23.9024 205.746 23.9024C206.676 23.9024 207.445 23.676 208.079 23.2232C208.726 22.7572 209.131 22.1846 209.293 21.4921H213.608C213.46 22.4243 213.028 23.2765 212.313 24.0755C211.599 24.8612 210.668 25.4737 209.522 25.9398C208.389 26.4059 207.162 26.6323 205.827 26.6323C204.343 26.6323 202.981 26.3526 201.741 25.8066C200.5 25.2473 199.502 24.475 198.774 23.5029C197.992 22.5175 197.627 21.4122 197.627 20.2137Z" fill="#F0F0F0"/>
<path d="M224.1 13.8485C225.731 13.8485 227.067 14.4211 228.105 15.5796C229.157 16.7381 229.696 18.6024 229.696 21.1858V26.0729H225.408V21.2524C225.408 20.3202 225.34 19.5479 225.206 18.9087C225.084 18.2695 224.801 17.7368 224.342 17.2974C223.884 16.858 223.196 16.6449 222.279 16.6449C221.349 16.6449 220.58 16.8713 220.094 17.324C219.622 17.7768 219.326 18.3228 219.191 18.9753C219.056 19.6145 218.989 20.3868 218.989 21.3057V26.0862H214.7V10H218.989V15.6994C220.108 14.461 221.807 13.8485 224.1 13.8485Z" fill="#F0F0F0"/>
<path d="M238.826 13.7153C240.849 13.7153 242.656 14.0615 244.261 14.754C245.866 15.4464 246.661 16.6715 246.661 18.4293V26.0729H242.656L242.305 24.2752V24.1687C241.968 24.8345 241.186 25.3538 239.972 25.74C238.772 26.1129 237.45 26.2993 236.034 26.2993C234.888 26.2993 233.728 26.0729 232.555 25.6068C231.382 25.1274 230.789 24.1021 230.789 22.5441C230.789 20.986 231.288 20.0672 232.285 19.5878C233.297 19.1084 234.389 18.8687 235.536 18.8687C237.774 18.8687 239.338 18.8554 240.202 18.8288C241.065 18.7888 241.631 18.7089 241.901 18.5891C242.184 18.4692 242.332 18.2562 242.346 17.9632V17.7235C242.332 17.2175 241.968 16.8313 241.24 16.5517C240.539 16.2587 239.716 16.1122 238.799 16.1122C237.801 16.1122 236.952 16.272 236.25 16.6183C235.562 16.9378 235.212 17.4439 235.212 18.123H230.923C230.923 17.0044 231.355 16.1255 232.205 15.473C233.068 14.8205 234.093 14.3678 235.279 14.1281C236.48 13.8484 237.666 13.7153 238.826 13.7153ZM242.319 20.1737C241.618 20.4933 240.539 20.6531 239.082 20.6531C238.098 20.6531 237.329 20.6931 236.776 20.7597C236.237 20.8262 235.832 20.9594 235.562 21.1458C235.306 21.319 235.185 21.5853 235.171 21.9315C235.212 22.4109 235.468 22.7704 235.913 23.0234C236.385 23.2631 237.167 23.3963 238.273 23.3963C239.73 23.3963 240.754 23.09 241.375 22.4642C242.009 21.8383 242.319 21.0926 242.319 20.2004V20.1737Z" fill="#F0F0F0"/>
<path d="M252.393 10H248.104V12.9562H252.393V10ZM252.393 26.0862H248.104V13.5954H252.393V26.0862Z" fill="#F0F0F0"/>
<path d="M263.302 13.8484C265.029 13.8484 266.391 14.4077 267.348 15.5396C268.319 16.6715 268.805 18.5491 268.805 21.1858V26.0729H264.516V21.2524C264.516 20.3202 264.449 19.5479 264.314 18.9087C264.193 18.2695 263.909 17.7368 263.451 17.2974C262.992 16.858 262.305 16.6449 261.388 16.6449C260.471 16.6449 259.688 16.858 259.203 17.2974C258.731 17.7102 258.434 18.2562 258.299 18.9087C258.164 19.5479 258.097 20.3469 258.097 21.3056V26.0862H253.809V14.2479H258.097V15.766C259.243 14.4876 260.983 13.8484 263.302 13.8484Z" fill="#F0F0F0"/>
<path d="M133.625 38.4173C135.162 38.4173 136.497 38.5105 137.63 38.6969C138.763 38.8834 139.693 39.2962 140.448 39.9087C141.217 40.5346 141.595 41.4534 141.595 42.6652C141.595 44.9024 140.61 46.4071 138.628 47.1795C136.645 47.9652 134.42 48.3513 131.966 48.3513C129.498 48.3513 127.273 47.9518 125.169 47.1529C123.052 46.3406 122 44.8092 122 42.5454L126.733 42.5054C126.733 43.3044 127.044 43.8903 127.664 44.2898C128.298 44.676 128.972 44.929 129.714 45.0222C130.469 45.1154 131.265 45.1554 132.128 45.1554C133.449 45.1554 134.582 44.969 135.54 44.5961C136.497 44.2232 136.983 43.6107 136.996 42.7717V42.7451C136.996 42.1192 136.524 41.7197 135.567 41.5466C134.623 41.3602 133.49 41.267 132.155 41.267H130.793C129.026 41.267 127.543 41.1738 126.329 41.0007C125.115 40.8142 124.09 40.3881 123.254 39.7356C122.432 39.0698 122.027 38.071 122.027 36.7394C122.027 33.104 125.344 31.2797 131.993 31.2797C134.353 31.2797 136.551 31.6792 138.574 32.4781C140.61 33.2771 141.635 34.8085 141.635 37.0856H136.942C136.942 36.2733 136.47 35.6608 135.513 35.2347C134.555 34.8085 133.395 34.5688 132.033 34.5156C130.55 34.5156 129.296 34.6887 128.244 35.0349C127.219 35.3811 126.706 35.9271 126.706 36.6595C126.706 37.818 128.406 38.404 131.818 38.404L133.625 38.4173Z" fill="#F0F0F0"/>
<path d="M158.789 42.2124C158.762 43.2378 158.506 44.2232 158.02 45.142C157.535 46.0742 156.847 46.8199 155.97 47.4058C155.094 47.9651 154.082 48.2581 152.95 48.2581C150.428 48.2581 148.513 47.6722 147.232 46.5003V52H142.943V36.0336H146.8L147.11 37.6182C148.405 36.3399 150.347 35.7273 152.963 35.7673C154.096 35.7673 155.094 36.0469 155.957 36.5929C156.834 37.1389 157.521 37.8979 158.02 38.8567C158.519 39.8155 158.776 40.8808 158.789 42.0792V42.2124ZM150.738 45.6481C151.52 45.6481 152.181 45.4749 152.72 45.1287C153.273 44.7825 153.691 44.343 153.975 43.8104C154.271 43.2644 154.42 42.6918 154.433 42.1192C154.406 41.0539 154.082 40.1484 153.462 39.4293C152.842 38.7102 151.938 38.3373 150.738 38.3373C150.064 38.3373 149.457 38.4971 148.918 38.8434C148.392 39.1763 147.974 39.6157 147.69 40.175C147.394 40.721 147.245 41.3069 147.245 41.9328V41.9727C147.245 43.0647 147.569 43.9569 148.216 44.6493C148.85 45.3151 149.686 45.6481 150.738 45.6481Z" fill="#F0F0F0"/>
<path d="M168.107 35.5276C169.644 35.5276 171.033 35.8072 172.261 36.3532C173.488 36.8992 174.459 37.6715 175.147 38.6569C175.848 39.629 176.199 40.721 176.199 41.9328C176.199 43.1446 175.848 44.2232 175.147 45.2086C174.459 46.1807 173.501 46.9398 172.261 47.4857C171.033 48.0317 169.644 48.3114 168.107 48.3114C166.57 48.3114 165.235 48.0317 163.954 47.4857C162.659 46.9265 161.634 46.1541 160.852 45.182C160.083 44.1966 159.706 43.1046 159.706 41.9195C159.706 40.7343 160.083 39.629 160.852 38.6569C161.634 37.6715 162.659 36.8992 163.954 36.3532C165.235 35.8072 166.624 35.5276 168.107 35.5276ZM168.107 45.5815C169.159 45.5815 170.063 45.2752 170.818 44.6493C171.573 44.0235 171.937 43.1179 171.937 41.9328C171.937 40.7476 171.559 39.8155 170.818 39.1896C170.063 38.5637 169.172 38.2575 168.107 38.2575C167.433 38.2575 166.786 38.3906 166.152 38.6703C165.531 38.9366 165.032 39.3361 164.628 39.8821C164.237 40.428 164.034 41.1072 164.034 41.9195C164.034 42.7318 164.237 43.3843 164.628 43.9436C165.019 44.4895 165.531 44.9024 166.152 45.182C166.772 45.4616 167.433 45.5815 168.107 45.5815Z" fill="#F0F0F0"/>
<path d="M181.553 38.0045C182.699 36.7794 184.493 36.0469 186.947 35.8073V39.2029H184.196C183.185 39.2029 182.497 39.5492 182.133 40.2416C181.782 40.9341 181.607 41.8795 181.607 43.0647V47.8719H177.318V36.0336H181.148L181.553 38.0045Z" fill="#F0F0F0"/>
<path d="M194.85 36.0203H197.142V39.0698H194.85V47.8719H190.561V39.0698H188.161V36.0203H190.561V33.4502L194.85 31.4261V36.0203Z" fill="#F0F0F0"/>
<path d="M205.867 40.9207C206.285 40.9207 206.595 40.9074 206.811 40.8941L207.971 40.8675C209.643 40.8675 211.005 41.0938 212.043 41.5466C213.082 41.986 213.608 42.8516 213.608 44.1699C213.608 45.8744 212.839 47.0063 211.315 47.5656C209.791 48.0983 208.011 48.3646 205.988 48.3646C203.965 48.3646 202.199 48.0716 200.554 47.4724C198.908 46.8598 198.086 45.7013 198.086 43.9968L202.415 44.0235C202.415 44.7425 202.765 45.2486 203.467 45.5282C204.168 45.7945 205.004 45.9144 205.975 45.9144C207.162 45.9144 208.025 45.7812 208.578 45.5282C209.117 45.2619 209.387 44.8624 209.387 44.3164C209.387 43.7704 209.077 43.4375 208.443 43.2911C207.822 43.1313 207.256 43.0514 206.73 43.0514H205.759C204.397 43.0514 203.17 42.9848 202.104 42.8516C201.039 42.7051 200.095 42.3722 199.286 41.8529C198.477 41.3202 198.072 40.5079 198.072 39.4426C198.072 37.8313 198.868 36.7793 200.446 36.2866C202.024 35.7939 203.858 35.5542 205.921 35.5542C207.984 35.5542 209.656 35.8472 211.221 36.4464C212.785 37.0456 213.581 38.1909 213.581 39.8954L209.306 39.8687C209.306 39.1097 208.901 38.617 208.092 38.364C207.283 38.111 206.555 37.9911 205.907 37.9911C203.561 37.9911 202.388 38.4572 202.388 39.376C202.442 40.3748 203.574 40.8808 205.867 40.9207Z" fill="#F0F0F0"/>
<path d="M279.93 13.1027C280.065 12.7831 280.537 12.7831 280.672 13.1027L282.061 16.3919C282.115 16.5251 282.25 16.6183 282.398 16.6316L285.999 16.9112C286.349 16.9379 286.498 17.3773 286.228 17.6037L283.49 19.9207C283.382 20.014 283.329 20.1604 283.369 20.3069L284.205 23.7692C284.286 24.1154 283.908 24.3818 283.612 24.1953L280.524 22.331C280.402 22.2511 280.24 22.2511 280.105 22.331L277.031 24.1953C276.734 24.3818 276.356 24.1154 276.437 23.7692L277.273 20.3069C277.3 20.1604 277.26 20.014 277.139 19.9207L274.401 17.6037C274.131 17.3773 274.28 16.9379 274.63 16.9112L278.231 16.6316C278.379 16.6183 278.514 16.5251 278.568 16.3919L279.93 13.1027Z" fill="#F0F0F0"/>
<path d="M224.977 31.7324H285.527C289.101 31.7324 292 34.5955 292 38.1243V45.3285C292 48.8573 289.101 51.7204 285.527 51.7204H224.977C221.403 51.7204 218.503 48.8573 218.503 45.3285V38.1243C218.503 34.5955 221.403 31.7324 224.977 31.7324Z" fill="#FFE86E"/>
<path d="M224.882 45.5016L226.365 37.9778H231.503L231.247 39.3228H227.592L227.269 40.974H230.586L230.317 42.279H226.999L226.621 44.1566H230.276L230.02 45.5016H224.882ZM234.052 45.5948C232.137 45.5948 230.937 44.4363 231.341 42.3722L231.598 41.0805C232.002 39.0298 233.337 37.858 235.347 37.858C237.248 37.858 238.421 38.91 238.125 40.7476H236.655C236.803 39.7888 236.291 39.2562 235.185 39.2562C234.079 39.2562 233.297 39.8821 233.068 41.0805L232.811 42.3722C232.582 43.5707 233.054 44.2499 234.2 44.2499C235.279 44.2499 236.008 43.7172 236.237 42.7984H237.707C237.329 44.5828 236.102 45.5948 234.052 45.5948ZM240.93 45.5948C239.015 45.5948 237.869 44.4363 238.273 42.3722L238.529 41.0805C238.934 39.0298 240.188 37.858 242.332 37.858C244.247 37.858 245.394 39.0165 244.989 41.0805L244.733 42.3722C244.342 44.4363 243.074 45.5948 240.93 45.5948ZM239.757 42.3856C239.514 43.6107 240.067 44.2499 241.146 44.2499C242.224 44.2499 243.034 43.6107 243.276 42.3856L243.532 41.0939C243.775 39.8688 243.222 39.2695 242.13 39.2695C241.038 39.2695 240.255 39.8554 240.013 41.0939L239.757 42.3856ZM247.753 45.5948C245.892 45.5948 244.827 44.6094 245.083 43.078H246.553C246.459 43.8237 246.931 44.2499 247.861 44.2499C248.859 44.2499 249.534 43.8237 249.534 43.2112C249.534 42.825 249.223 42.5986 248.751 42.4655L247.511 42.1192C246.621 41.8662 245.919 41.3336 245.919 40.4014C245.919 39.0032 247.039 37.8713 248.967 37.8713C250.707 37.8713 251.759 38.9366 251.502 40.2682H250.046C250.087 39.6823 249.695 39.2162 248.859 39.2162C247.942 39.2162 247.443 39.6424 247.443 40.1617C247.443 40.5079 247.7 40.6677 248.225 40.8142L249.52 41.1871C250.599 41.4934 251.084 42.1326 251.084 42.8916C251.057 44.423 249.871 45.5948 247.753 45.5948ZM253.229 45.5016L253.903 42.0526H253.242L252.123 37.9645H253.633L254.618 41.7863L257.099 37.9645H258.771L256.047 42.0526H255.386L254.712 45.5016H253.229ZM260.484 45.5948C258.623 45.5948 257.558 44.6094 257.814 43.078H259.284C259.189 43.8237 259.661 44.2499 260.592 44.2499C261.603 44.2499 262.264 43.8237 262.264 43.2112C262.264 42.825 261.954 42.5986 261.482 42.4655L260.241 42.1192C259.351 41.8662 258.65 41.3336 258.65 40.4014C258.65 39.0032 259.756 37.8713 261.698 37.8713C263.437 37.8713 264.489 38.9366 264.233 40.2682H262.776C262.817 39.6823 262.426 39.2162 261.59 39.2162C260.673 39.2162 260.174 39.6424 260.174 40.1617C260.174 40.5079 260.43 40.6677 260.942 40.8142L262.237 41.1871C263.316 41.4934 263.801 42.1326 263.801 42.8916C263.788 44.423 262.601 45.5948 260.484 45.5948ZM266.08 45.5016L267.308 39.3095H265.096L265.352 37.9645H271.272L271.016 39.3095H268.791L267.564 45.5016H266.08ZM270.814 45.5016L272.297 37.9778H277.422L277.166 39.3228H273.511L273.187 40.974H276.505L276.249 42.279H272.931L272.554 44.1566H276.208L275.938 45.5016H270.814ZM279.741 45.5016L279.944 38.2442L278.514 45.5016H277.098L278.582 37.9778H281.306L281.184 45.2353L283.922 37.9778H286.646L285.163 45.5016H283.747L285.176 38.2442L282.519 45.5016H279.741Z" fill="#202020"/>
</g>
<g clip-path="url(#clip1_483_1429)">
<path d="M25.6688 0.0686035L19.5608 10.7044H6.60553L0.489258 0.0686035H25.6688Z" fill="white"/>
<path d="M37.8972 0.0686035L12.9902 43.421H25.2186L44.0176 10.7044H65.9883L72.1087 0.0686035H37.8972Z" fill="white"/>
<path d="M59.6447 21.7469L53.5367 32.3828H37.6699V21.7469H59.6447Z" fill="white"/>
<path d="M1.39901 59.4147V58.9643H4.54339V59.4147H3.22504V63.1568H2.71736V59.4147H1.39901ZM5.32692 63.1568V58.9643H7.85716V59.4147H5.83461V60.8313H7.72615V61.2816H5.83461V62.7064H7.88991V63.1568H5.32692ZM8.77222 58.9643H9.37817L10.803 62.4444H10.8521L12.2769 58.9643H12.8828V63.1568H12.4079V59.9715H12.367L11.0568 63.1568H10.5983L9.2881 59.9715H9.24715V63.1568H8.77222V58.9643ZM13.9008 63.1568V58.9643H15.3174C15.6463 58.9643 15.9151 59.0237 16.1239 59.1424C16.3341 59.2598 16.4897 59.4188 16.5907 59.6194C16.6917 59.82 16.7422 60.0438 16.7422 60.2908C16.7422 60.5379 16.6917 60.7624 16.5907 60.9643C16.4911 61.1663 16.3368 61.3274 16.128 61.4475C15.9192 61.5662 15.6517 61.6256 15.3256 61.6256H14.3102V61.1752H15.3092C15.5344 61.1752 15.7152 61.1363 15.8517 61.0585C15.9881 60.9807 16.0871 60.8756 16.1485 60.7432C16.2113 60.6095 16.2427 60.4587 16.2427 60.2908C16.2427 60.123 16.2113 59.9728 16.1485 59.8405C16.0871 59.7081 15.9875 59.6044 15.8496 59.5293C15.7118 59.4529 15.5289 59.4147 15.301 59.4147H14.4085V63.1568H13.9008ZM21.0974 61.0605C21.0974 61.5027 21.0176 61.8849 20.8579 62.2069C20.6982 62.529 20.4792 62.7774 20.2008 62.9521C19.9224 63.1268 19.6044 63.2141 19.2468 63.2141C18.8893 63.2141 18.5713 63.1268 18.2929 62.9521C18.0145 62.7774 17.7954 62.529 17.6357 62.2069C17.4761 61.8849 17.3962 61.5027 17.3962 61.0605C17.3962 60.6184 17.4761 60.2362 17.6357 59.9142C17.7954 59.5921 18.0145 59.3437 18.2929 59.169C18.5713 58.9943 18.8893 58.907 19.2468 58.907C19.6044 58.907 19.9224 58.9943 20.2008 59.169C20.4792 59.3437 20.6982 59.5921 20.8579 59.9142C21.0176 60.2362 21.0974 60.6184 21.0974 61.0605ZM20.6061 61.0605C20.6061 60.6975 20.5454 60.3911 20.4239 60.1414C20.3038 59.8916 20.1407 59.7026 19.9346 59.5743C19.7299 59.4461 19.5007 59.3819 19.2468 59.3819C18.993 59.3819 18.763 59.4461 18.5569 59.5743C18.3522 59.7026 18.1891 59.8916 18.0677 60.1414C17.9476 60.3911 17.8875 60.6975 17.8875 61.0605C17.8875 61.4236 17.9476 61.73 18.0677 61.9797C18.1891 62.2295 18.3522 62.4185 18.5569 62.5468C18.763 62.675 18.993 62.7392 19.2468 62.7392C19.5007 62.7392 19.7299 62.675 19.9346 62.5468C20.1407 62.4185 20.3038 62.2295 20.4239 61.9797C20.5454 61.73 20.6061 61.4236 20.6061 61.0605ZM24.8662 63.1568H23.5724V58.9643H24.9235C25.3302 58.9643 25.6782 59.0482 25.9675 59.2161C26.2568 59.3826 26.4786 59.6221 26.6328 59.9346C26.787 60.2458 26.8641 60.6184 26.8641 61.0524C26.8641 61.4891 26.7864 61.8651 26.6308 62.1803C26.4752 62.4942 26.2486 62.7358 25.9511 62.905C25.6536 63.0729 25.292 63.1568 24.8662 63.1568ZM24.0801 62.7064H24.8334C25.18 62.7064 25.4673 62.6396 25.6952 62.5058C25.9232 62.3721 26.0931 62.1817 26.205 61.9347C26.3169 61.6877 26.3728 61.3935 26.3728 61.0524C26.3728 60.7139 26.3176 60.4225 26.207 60.1782C26.0965 59.9326 25.9313 59.7443 25.7116 59.6132C25.4919 59.4809 25.2183 59.4147 24.8907 59.4147H24.0801V62.7064ZM27.7157 63.1568V58.9643H30.246V59.4147H28.2234V60.8313H30.115V61.2816H28.2234V62.7064H30.2787V63.1568H27.7157Z" fill="white"/>
<path d="M31.161 63.1568V58.9643H33.6749V59.4147H31.6687V60.8313H33.4866V61.2816H31.6687V63.1568H31.161ZM37.2957 58.9643H37.8034V61.7402C37.8034 62.0268 37.7359 62.2827 37.6008 62.5079C37.467 62.7317 37.278 62.9084 37.0337 63.0381C36.7894 63.1664 36.5028 63.2305 36.1739 63.2305C35.845 63.2305 35.5584 63.1664 35.3141 63.0381C35.0698 62.9084 34.8801 62.7317 34.745 62.5079C34.6113 62.2827 34.5444 62.0268 34.5444 61.7402V58.9643H35.0521V61.6993C35.0521 61.904 35.0971 62.0862 35.1872 62.2458C35.2773 62.4041 35.4056 62.529 35.5721 62.6205C35.7399 62.7105 35.9406 62.7556 36.1739 62.7556C36.4073 62.7556 36.6079 62.7105 36.7758 62.6205C36.9436 62.529 37.0719 62.4041 37.1606 62.2458C37.2507 62.0862 37.2957 61.904 37.2957 61.6993V58.9643ZM38.588 59.4147V58.9643H41.7324V59.4147H40.414V63.1568H39.9063V59.4147H38.588ZM42.5159 63.1568V58.9643H45.0461V59.4147H43.0236V60.8313H44.9151V61.2816H43.0236V62.7064H45.0789V63.1568H42.5159ZM45.9612 63.1568V58.9643H47.4269C47.719 58.9643 47.9599 59.0148 48.1496 59.1158C48.3393 59.2154 48.4805 59.3498 48.5733 59.5191C48.6661 59.6869 48.7125 59.8732 48.7125 60.0779C48.7125 60.2581 48.6805 60.4068 48.6163 60.5242C48.5535 60.6416 48.4703 60.7344 48.3666 60.8026C48.2642 60.8709 48.153 60.9213 48.0329 60.9541V60.995C48.1612 61.0032 48.2901 61.0483 48.4198 61.1302C48.5494 61.212 48.6579 61.3294 48.7453 61.4823C48.8326 61.6351 48.8763 61.8221 48.8763 62.0432C48.8763 62.2533 48.8285 62.4424 48.733 62.6102C48.6375 62.7781 48.4867 62.9111 48.2806 63.0094C48.0745 63.1077 47.8063 63.1568 47.4761 63.1568H45.9612ZM46.4689 62.7064H47.4761C47.8077 62.7064 48.0431 62.6423 48.1823 62.514C48.3229 62.3844 48.3932 62.2274 48.3932 62.0432C48.3932 61.9012 48.357 61.7702 48.2847 61.6501C48.2123 61.5287 48.1093 61.4318 47.9756 61.3594C47.8418 61.2857 47.6835 61.2489 47.5006 61.2489H46.4689V62.7064ZM46.4689 60.8067H47.4106C47.5634 60.8067 47.7013 60.7767 47.8241 60.7166C47.9483 60.6566 48.0465 60.572 48.1189 60.4628C48.1926 60.3536 48.2294 60.2253 48.2294 60.0779C48.2294 59.8937 48.1653 59.7374 48.037 59.6091C47.9087 59.4795 47.7053 59.4147 47.4269 59.4147H46.4689V60.8067ZM53.2479 61.0605C53.2479 61.5027 53.1681 61.8849 53.0084 62.2069C52.8487 62.529 52.6297 62.7774 52.3513 62.9521C52.0729 63.1268 51.7549 63.2141 51.3973 63.2141C51.0398 63.2141 50.7218 63.1268 50.4434 62.9521C50.165 62.7774 49.9459 62.529 49.7862 62.2069C49.6266 61.8849 49.5467 61.5027 49.5467 61.0605C49.5467 60.6184 49.6266 60.2362 49.7862 59.9142C49.9459 59.5921 50.165 59.3437 50.4434 59.169C50.7218 58.9943 51.0398 58.907 51.3973 58.907C51.7549 58.907 52.0729 58.9943 52.3513 59.169C52.6297 59.3437 52.8487 59.5921 53.0084 59.9142C53.1681 60.2362 53.2479 60.6184 53.2479 61.0605ZM52.7566 61.0605C52.7566 60.6975 52.6959 60.3911 52.5744 60.1414C52.4543 59.8916 52.2912 59.7026 52.0852 59.5743C51.8804 59.4461 51.6512 59.3819 51.3973 59.3819C51.1435 59.3819 50.9135 59.4461 50.7074 59.5743C50.5027 59.7026 50.3396 59.8916 50.2182 60.1414C50.0981 60.3911 50.038 60.6975 50.038 61.0605C50.038 61.4236 50.0981 61.73 50.2182 61.9797C50.3396 62.2295 50.5027 62.4185 50.7074 62.5468C50.9135 62.675 51.1435 62.7392 51.3973 62.7392C51.6512 62.7392 51.8804 62.675 52.0852 62.5468C52.2912 62.4185 52.4543 62.2295 52.5744 61.9797C52.6959 61.73 52.7566 61.4236 52.7566 61.0605ZM54.1016 63.1568V58.9643H54.6093V62.7064H56.5581V63.1568H54.1016Z" fill="#25CA71"/>
</g>
<line x1="97.5" y1="6" x2="97.5" y2="56" stroke="white"/>
<defs>
<clipPath id="clip0_483_1429">
<rect width="170" height="42" fill="white" transform="translate(122 10)"/>
</clipPath>
<clipPath id="clip1_483_1429">
<rect width="71.7721" height="63" fill="white"/>
</clipPath>
</defs>
</svg>
