<svg width="56" height="56" viewBox="0 0 56 56" fill="none" xmlns="http://www.w3.org/2000/svg">
<circle cx="28" cy="28" r="28" fill="#29CB73"/>
<path d="M18.6668 32C17.4135 32 16.2535 32.44 15.3335 33.1733C14.1068 34.1467 13.3335 35.6533 13.3335 37.3333C13.3335 38.3333 13.6135 39.28 14.1068 40.08C15.0268 41.6267 16.7202 42.6667 18.6668 42.6667C20.0135 42.6667 21.2402 42.1733 22.1735 41.3333C22.5868 40.9867 22.9468 40.56 23.2268 40.08C23.7202 39.28 24.0002 38.3333 24.0002 37.3333C24.0002 34.3867 21.6135 32 18.6668 32ZM21.4268 36.76L18.5868 39.3866C18.4002 39.56 18.1468 39.6533 17.9068 39.6533C17.6535 39.6533 17.4002 39.56 17.2002 39.36L15.8802 38.04C15.4935 37.6534 15.4935 37.0133 15.8802 36.6266C16.2668 36.24 16.9068 36.24 17.2935 36.6266L17.9335 37.2667L20.0668 35.2933C20.4668 34.92 21.1068 34.9467 21.4802 35.3467C21.8535 35.7467 21.8268 36.3867 21.4268 36.76Z" fill="white"/>
<path opacity="0.55" d="M37.9735 29.2667H40.6668V27.3467C40.6668 24.5867 38.4135 22.3333 35.6535 22.3333H20.3468C17.5868 22.3333 15.3335 24.5867 15.3335 27.3467V33.1733C16.2535 32.44 17.4135 32 18.6668 32C21.6135 32 24.0002 34.3867 24.0002 37.3333C24.0002 38.3333 23.7202 39.28 23.2268 40.08C22.9468 40.56 22.5868 40.9867 22.1735 41.3333H35.6535C38.4135 41.3333 40.6668 39.08 40.6668 36.32V34.7333H38.1335C36.6935 34.7333 35.3735 33.68 35.2535 32.24C35.1735 31.4 35.4935 30.6133 36.0535 30.0666C36.5468 29.56 37.2268 29.2667 37.9735 29.2667Z" fill="white"/>
<path d="M31.8002 17.2667V22.3333H20.3468C17.5868 22.3333 15.3335 24.5867 15.3335 27.3467V22.4533C15.3335 20.8667 16.3068 19.4533 17.7868 18.8933L28.3735 14.8933C30.0268 14.28 31.8002 15.4933 31.8002 17.2667Z" fill="white"/>
<path d="M42.08 30.6266V33.3734C42.08 34.1067 41.4934 34.7066 40.7467 34.7333H38.1334C36.6934 34.7333 35.3734 33.68 35.2534 32.24C35.1734 31.4 35.4934 30.6133 36.0534 30.0666C36.5467 29.56 37.2267 29.2667 37.9734 29.2667H40.7467C41.4934 29.2933 42.08 29.8933 42.08 30.6266Z" fill="white"/>
<path d="M30.6668 29H21.3335C20.7868 29 20.3335 28.5467 20.3335 28C20.3335 27.4533 20.7868 27 21.3335 27H30.6668C31.2135 27 31.6668 27.4533 31.6668 28C31.6668 28.5467 31.2135 29 30.6668 29Z" fill="white"/>
</svg>
