<svg width="56" height="56" viewBox="0 0 56 56" fill="none" xmlns="http://www.w3.org/2000/svg">
<circle cx="28" cy="28" r="28" fill="#FF630C"/>
<path d="M18.6666 32C17.4133 32 16.2533 32.44 15.3333 33.1733C14.1066 34.1467 13.3333 35.6533 13.3333 37.3333C13.3333 38.3333 13.6133 39.28 14.1066 40.08C15.0266 41.6267 16.7199 42.6667 18.6666 42.6667C20.0133 42.6667 21.2399 42.1733 22.1733 41.3333C22.5866 40.9867 22.9466 40.56 23.2266 40.08C23.7199 39.28 23.9999 38.3333 23.9999 37.3333C23.9999 34.3867 21.6133 32 18.6666 32ZM21.4266 36.76L18.5866 39.3866C18.3999 39.56 18.1466 39.6533 17.9066 39.6533C17.6532 39.6533 17.3999 39.56 17.1999 39.36L15.8799 38.04C15.4933 37.6534 15.4933 37.0133 15.8799 36.6266C16.2666 36.24 16.9066 36.24 17.2933 36.6266L17.9332 37.2667L20.0666 35.2933C20.4666 34.92 21.1066 34.9467 21.4799 35.3467C21.8533 35.7467 21.8266 36.3867 21.4266 36.76Z" fill="white"/>
<path opacity="0.55" d="M37.9732 29.2667H40.6666V27.3467C40.6666 24.5867 38.4133 22.3333 35.6533 22.3333H20.3466C17.5866 22.3333 15.3333 24.5867 15.3333 27.3467V33.1733C16.2533 32.44 17.4133 32 18.6666 32C21.6133 32 23.9999 34.3867 23.9999 37.3333C23.9999 38.3333 23.7199 39.28 23.2266 40.08C22.9466 40.56 22.5866 40.9867 22.1733 41.3333H35.6533C38.4133 41.3333 40.6666 39.08 40.6666 36.32V34.7333H38.1333C36.6933 34.7333 35.3733 33.68 35.2533 32.24C35.1733 31.4 35.4932 30.6133 36.0532 30.0667C36.5466 29.56 37.2266 29.2667 37.9732 29.2667Z" fill="white"/>
<path d="M31.7999 17.2667V22.3333H20.3466C17.5866 22.3333 15.3333 24.5867 15.3333 27.3467V22.4534C15.3333 20.8667 16.3066 19.4533 17.7866 18.8933L28.3733 14.8933C30.0266 14.28 31.7999 15.4933 31.7999 17.2667Z" fill="white"/>
<path d="M42.08 30.6266V33.3734C42.08 34.1067 41.4934 34.7067 40.7467 34.7333H38.1334C36.6934 34.7333 35.3734 33.68 35.2534 32.24C35.1734 31.4 35.4934 30.6133 36.0534 30.0667C36.5467 29.56 37.2267 29.2667 37.9734 29.2667H40.7467C41.4934 29.2934 42.08 29.8933 42.08 30.6266Z" fill="white"/>
<path d="M30.6666 29H21.3333C20.7866 29 20.3333 28.5467 20.3333 28C20.3333 27.4533 20.7866 27 21.3333 27H30.6666C31.2133 27 31.6666 27.4533 31.6666 28C31.6666 28.5467 31.2133 29 30.6666 29Z" fill="white"/>
</svg>
