<svg width="32" height="32" viewBox="0 0 32 32" fill="none" xmlns="http://www.w3.org/2000/svg">
<path d="M20.52 6.94663L22.3999 10.7066C22.6533 11.2266 23.3333 11.72 23.9066 11.8266L27.3066 12.3866C29.4799 12.7466 29.9866 14.32 28.4266 15.8933L25.7733 18.5466C25.3333 18.9866 25.08 19.8533 25.2266 20.48L25.9866 23.76C26.5866 26.3466 25.1999 27.36 22.9199 26L19.7333 24.1066C19.1599 23.76 18.1999 23.76 17.6266 24.1066L14.4399 26C12.1599 27.3466 10.7733 26.3466 11.3733 23.76L12.1333 20.48C12.2799 19.8666 12.0266 19 11.5866 18.5466L8.93328 15.8933C7.37328 14.3333 7.87995 12.76 10.0533 12.3866L13.4533 11.8266C14.0266 11.7333 14.7066 11.2266 14.9599 10.7066L16.8399 6.94663C17.8399 4.90663 19.4933 4.90663 20.52 6.94663Z" fill="white"/>
<path opacity="0.4" d="M10.6665 7.66663H2.6665C2.11984 7.66663 1.6665 7.21329 1.6665 6.66663C1.6665 6.11996 2.11984 5.66663 2.6665 5.66663H10.6665C11.2132 5.66663 11.6665 6.11996 11.6665 6.66663C11.6665 7.21329 11.2132 7.66663 10.6665 7.66663Z" fill="white"/>
<path opacity="0.4" d="M6.6665 26.3334H2.6665C2.11984 26.3334 1.6665 25.88 1.6665 25.3334C1.6665 24.7867 2.11984 24.3334 2.6665 24.3334H6.6665C7.21317 24.3334 7.6665 24.7867 7.6665 25.3334C7.6665 25.88 7.21317 26.3334 6.6665 26.3334Z" fill="white"/>
<path opacity="0.4" d="M3.99984 17H2.6665C2.11984 17 1.6665 16.5467 1.6665 16C1.6665 15.4533 2.11984 15 2.6665 15H3.99984C4.5465 15 4.99984 15.4533 4.99984 16C4.99984 16.5467 4.5465 17 3.99984 17Z" fill="white"/>
</svg>
