<svg width="32" height="32" viewBox="0 0 32 32" fill="none" xmlns="http://www.w3.org/2000/svg">
<path d="M15.9324 19.3866C11.3324 19.3866 7.45117 20.1383 7.45117 23.0393C7.45117 25.9414 11.3575 26.6667 15.9324 26.6667C20.5324 26.6667 24.4137 25.915 24.4137 23.014C24.4137 20.1118 20.5073 19.3866 15.9324 19.3866Z" fill="white"/>
<path opacity="0.4" d="M15.9322 16.6227C19.047 16.6227 21.5446 14.1108 21.5446 10.9781C21.5446 7.84412 19.047 5.33337 15.9322 5.33337C12.8174 5.33337 10.3198 7.84412 10.3198 10.9781C10.3198 14.1108 12.8174 16.6227 15.9322 16.6227Z" fill="white"/>
<path opacity="0.4" d="M28.1176 12.2924C28.9234 9.12247 26.5608 6.27551 23.5522 6.27551C23.2251 6.27551 22.9123 6.31153 22.6067 6.37277C22.5661 6.38238 22.5207 6.40279 22.4968 6.43881C22.4694 6.48444 22.4897 6.54568 22.5195 6.5853C23.4233 7.86049 23.9426 9.41305 23.9426 11.0797C23.9426 12.6767 23.4663 14.1656 22.6306 15.4011C22.5446 15.5284 22.621 15.7001 22.7726 15.7265C22.9827 15.7638 23.1976 15.783 23.4173 15.789C25.6081 15.8466 27.5744 14.4285 28.1176 12.2924Z" fill="white"/>
<path d="M30.4125 19.756C30.0114 18.8963 29.0432 18.3067 27.5711 18.0173C26.8763 17.8468 24.996 17.6067 23.2469 17.6391C23.2207 17.6427 23.2063 17.6607 23.204 17.6727C23.2004 17.6895 23.2075 17.7183 23.2422 17.7363C24.0504 18.1386 27.1748 19.8881 26.782 23.5779C26.7653 23.7376 26.893 23.8757 27.0518 23.8517C27.8207 23.7412 29.7989 23.3138 30.4125 21.9822C30.7516 21.2785 30.7516 20.4608 30.4125 19.756Z" fill="white"/>
<path opacity="0.4" d="M9.39311 6.37314C9.08867 6.3107 8.77468 6.27588 8.44756 6.27588C5.43901 6.27588 3.07634 9.12284 3.8834 12.2928C4.42541 14.4289 6.39172 15.847 8.58247 15.7894C8.80214 15.7833 9.01823 15.7629 9.22716 15.7269C9.37878 15.7005 9.45519 15.5288 9.36923 15.4015C8.53352 14.1648 8.05717 12.677 8.05717 11.08C8.05717 9.41222 8.5777 7.85966 9.48146 6.58567C9.51011 6.54605 9.5316 6.48481 9.50294 6.43918C9.47907 6.40196 9.43489 6.38274 9.39311 6.37314Z" fill="white"/>
<path d="M4.4289 18.0169C2.95686 18.3063 1.98983 18.8959 1.58869 19.7556C1.24843 20.4604 1.24843 21.2781 1.58869 21.983C2.20234 23.3134 4.18058 23.7421 4.94943 23.8513C5.10822 23.8754 5.23477 23.7385 5.21805 23.5776C4.82527 19.8889 7.94963 18.1394 8.75907 17.7372C8.7925 17.7179 8.79966 17.6903 8.79608 17.6723C8.79369 17.6603 8.78056 17.6423 8.75429 17.6399C7.00408 17.6063 5.12493 17.8464 4.4289 18.0169Z" fill="white"/>
</svg>
