<svg width="30" height="22" viewBox="0 0 30 22" fill="none" xmlns="http://www.w3.org/2000/svg">
<path d="M14.9324 14.3866C10.3324 14.3866 6.45117 15.1383 6.45117 18.0393C6.45117 20.9414 10.3575 21.6667 14.9324 21.6667C19.5324 21.6667 23.4137 20.915 23.4137 18.014C23.4137 15.1118 19.5073 14.3866 14.9324 14.3866" fill="white"/>
<path opacity="0.4" d="M14.9322 11.6227C18.047 11.6227 20.5446 9.11079 20.5446 5.97806C20.5446 2.84412 18.047 0.333374 14.9322 0.333374C11.8174 0.333374 9.31982 2.84412 9.31982 5.97806C9.31982 9.11079 11.8174 11.6227 14.9322 11.6227" fill="white"/>
<path opacity="0.4" d="M27.1176 7.29243C27.9234 4.12247 25.5608 1.27551 22.5522 1.27551C22.2251 1.27551 21.9123 1.31153 21.6067 1.37277C21.5661 1.38238 21.5207 1.40279 21.4968 1.43881C21.4694 1.48444 21.4897 1.54568 21.5195 1.5853C22.4233 2.86049 22.9426 4.41305 22.9426 6.07968C22.9426 7.67667 22.4663 9.16559 21.6306 10.4011C21.5446 10.5284 21.621 10.7001 21.7726 10.7265C21.9827 10.7638 22.1976 10.783 22.4173 10.789C24.6081 10.8466 26.5744 9.42855 27.1176 7.29243" fill="white"/>
<path d="M29.4125 14.756C29.0114 13.8963 28.0432 13.3067 26.5711 13.0173C25.8763 12.8468 23.996 12.6067 22.2469 12.6391C22.2207 12.6427 22.2063 12.6607 22.204 12.6727C22.2004 12.6895 22.2075 12.7183 22.2422 12.7363C23.0504 13.1386 26.1748 14.8881 25.782 18.5779C25.7653 18.7376 25.893 18.8757 26.0518 18.8517C26.8207 18.7412 28.7989 18.3138 29.4125 16.9822C29.7516 16.2785 29.7516 15.4608 29.4125 14.756" fill="white"/>
<path opacity="0.4" d="M8.39311 1.37314C8.08867 1.3107 7.77468 1.27588 7.44756 1.27588C4.43901 1.27588 2.07634 4.12284 2.8834 7.29279C3.42541 9.42891 5.39172 10.847 7.58247 10.7894C7.80214 10.7834 8.01823 10.7629 8.22716 10.7269C8.37878 10.7005 8.45519 10.5288 8.36923 10.4015C7.53352 9.16475 7.05717 7.67703 7.05717 6.08005C7.05717 4.41222 7.5777 2.85966 8.48146 1.58567C8.51011 1.54605 8.5316 1.48481 8.50295 1.43918C8.47907 1.40196 8.43489 1.38274 8.39311 1.37314" fill="white"/>
<path d="M3.4289 13.0169C1.95686 13.3063 0.989826 13.8959 0.588686 14.7556C0.248433 15.4604 0.248433 16.2781 0.588686 16.983C1.20234 18.3134 3.18058 18.7421 3.94943 18.8513C4.10822 18.8754 4.23477 18.7385 4.21805 18.5776C3.82527 14.8889 6.94963 13.1394 7.75907 12.7372C7.7925 12.7179 7.79966 12.6903 7.79608 12.6723C7.79369 12.6603 7.78056 12.6423 7.75429 12.6399C6.00408 12.6063 4.12493 12.8464 3.4289 13.0169" fill="white"/>
</svg>
